M48
; DRILL file {KiCad 7.0.11} date Fri Jul 12 14:00:19 2024
; FORMAT={-:-/ absolute / inch / decimal}
; #@! TF.CreationDate,2024-07-12T14:00:19+01:00
; #@! TF.GenerationSoftware,Kicad,Pcbnew,7.0.11
; #@! TF.FileFunction,Plated,1,2,PTH
FMAT,2
INCH
; #@! TA.AperFunction,Plated,PTH,ViaDrill
T1C0.0118
; #@! TA.AperFunction,Plated,PTH,ComponentDrill
T2C0.0276
; #@! TA.AperFunction,Plated,PTH,ComponentDrill
T3C0.0295
; #@! TA.AperFunction,Plated,PTH,ComponentDrill
T4C0.0315
; #@! TA.AperFunction,Plated,PTH,ComponentDrill
T5C0.0320
; #@! TA.AperFunction,Plated,PTH,ComponentDrill
T6C0.0354
; #@! TA.AperFunction,Plated,PTH,ComponentDrill
T7C0.0394
; #@! TA.AperFunction,Plated,PTH,ComponentDrill
T8C0.0433
; #@! TA.AperFunction,Plated,PTH,ComponentDrill
T9C0.0512
; #@! TA.AperFunction,Plated,PTH,ComponentDrill
T10C0.0598
; #@! TA.AperFunction,Plated,PTH,ComponentDrill
T11C0.0610
; #@! TA.AperFunction,Plated,PTH,ComponentDrill
T12C0.1181
; #@! TA.AperFunction,Plated,PTH,ComponentDrill
T13C0.1378
%
G90
G05
T1
X3.7057Y-3.7785
X4.2992Y-3.9961
X4.4262Y-2.0512
X4.5797Y-3.9222
X4.6594Y-4.0384
X4.6644Y-4.1919
X4.9469Y-3.9281
X5.311Y-4.189
X5.3892Y-4.5738
X5.4203Y-4.0951
X5.4222Y-4.6211
X5.5131Y-4.5942
X5.6398Y-4.5472
X5.8957Y-5.2726
X6.0945Y-3.4892
T2
X3.7283Y-4.1795
X3.7283Y-4.3795
X4.2844Y-5.0978
X4.2844Y-5.2978
X4.6132Y-5.1018
X4.6132Y-5.3018
X5.0079Y-5.124
X5.0079Y-5.324
X5.2982Y-5.1303
X5.2982Y-5.3303
X5.5915Y-5.1372
X5.5915Y-5.3372
X5.872Y-4.7504
X5.872Y-4.9504
X6.0772Y-3.7392
X6.2579Y-3.9344
X6.2579Y-4.1344
X6.2772Y-3.7392
T3
X6.1004Y-4.7156
X6.1004Y-4.7656
X6.1004Y-4.8156
X6.5148Y-3.8998
X6.5148Y-3.9498
X6.5148Y-3.9998
T4
X2.9791Y-4.9833
X3.0791Y-4.9833
X3.1791Y-4.9833
X3.377Y-4.4705
X3.377Y-4.5689
X3.3831Y-3.9297
X3.3831Y-4.0281
X3.5197Y-3.9311
X3.5197Y-4.0295
X4.0498Y-3.7321
X4.0498Y-4.3321
X4.1498Y-3.7321
X4.1498Y-4.3321
X4.2498Y-3.7321
X4.2498Y-4.3321
X4.3498Y-3.7321
X4.3498Y-4.3321
X4.4262Y-3.3258
X4.4262Y-3.4242
X4.4498Y-3.7321
X4.4498Y-4.3321
X4.5498Y-3.7321
X4.5498Y-4.3321
X4.6289Y-3.3681
X4.6498Y-3.7321
X4.6498Y-4.3321
X4.7498Y-3.7321
X4.7498Y-4.3321
X4.7785Y-3.3681
X4.8498Y-3.7321
X4.8498Y-4.3321
X4.8976Y-3.5689
X4.9498Y-3.7321
X4.9498Y-4.3321
X4.9774Y-3.3209
X4.9774Y-3.4193
X4.9961Y-3.5689
X5.0498Y-3.7321
X5.0498Y-4.3321
X5.0512Y-4.4882
X5.1496Y-4.4882
X5.1498Y-3.7321
X5.1498Y-4.3321
X5.1959Y-3.4724
X5.1959Y-3.5709
X5.2498Y-3.7321
X5.2498Y-4.3321
X5.3498Y-3.7321
X5.3498Y-4.3321
X5.3976Y-3.4764
X5.3976Y-3.5748
X5.4498Y-3.7321
X5.4498Y-4.3321
X5.5498Y-3.7321
X5.5498Y-4.3321
X5.625Y-3.4793
X5.625Y-3.5778
X5.6498Y-3.7321
X5.6498Y-4.3321
X5.7498Y-3.7321
X5.7498Y-4.3321
X5.8498Y-3.7321
X5.8498Y-4.3321
X5.9498Y-3.7321
X5.9498Y-4.3321
X6.4016Y-3.3807
X6.4016Y-3.5807
X6.5016Y-3.4807
T5
X3.1177Y-3.3528
X3.1177Y-3.5528
X3.4177Y-3.3528
X3.4177Y-3.5528
T6
X3.6831Y-3.9213
X3.6831Y-4.0213
X4.3091Y-4.8695
X4.3091Y-4.9695
X4.6132Y-4.8724
X4.6132Y-4.9724
X5.0049Y-4.873
X5.0049Y-4.973
X5.2913Y-4.8799
X5.2913Y-4.9799
X5.5925Y-4.8843
X5.5925Y-4.9843
T7
X2.9301Y-2.0656
X2.9301Y-2.2231
X2.9301Y-2.4987
X2.9301Y-2.6562
X5.7026Y-1.5145
X5.8026Y-1.5145
X5.9026Y-1.5145
X6.0026Y-1.5145
X6.1026Y-1.5145
X6.2026Y-1.5145
X6.3026Y-1.5145
X6.4026Y-1.5145
X6.5026Y-1.5145
X6.6026Y-1.5145
X6.7026Y-1.5145
X6.8026Y-1.5145
X6.9026Y-1.5145
X7.0026Y-1.5145
X7.0945Y-3.7283
X7.0945Y-4.0276
X7.1026Y-1.5145
X7.2026Y-1.5145
T8
X3.1823Y-3.8254
X3.1823Y-3.9254
X3.1823Y-4.0254
X3.1831Y-4.3573
X3.1831Y-4.4573
X3.1831Y-4.5573
X6.3799Y-4.6159
X6.3799Y-5.0159
T9
X4.2701Y-5.5965
X4.2701Y-5.7933
X4.7622Y-5.5965
X4.7622Y-5.7933
X5.1372Y-5.5925
X5.1372Y-5.7894
X5.6293Y-5.5925
X5.6293Y-5.7894
X6.5571Y-4.8133
X6.6358Y-4.5771
X6.6358Y-5.0495
X7.1161Y-4.5771
X7.1161Y-5.0495
T10
X7.5561Y-4.7081
X7.5561Y-4.9081
T11
X6.7795Y-5.4577
X6.9685Y-5.4577
X7.1575Y-5.4577
T12
X2.5866Y-1.1319
X2.6407Y-5.81
X7.6004Y-5.8179
X7.6476Y-1.1496
T13
X2.9695Y-1.5538
X2.9695Y-3.0105
X7.497Y-1.5538
X7.497Y-3.0105
T7
G00X3.1555Y-5.4557
M15
G01X3.1555Y-5.5344
M16
G05
G00X3.2343Y-5.6801
M15
G01X3.313Y-5.6801
M16
G05
G00X3.3917Y-5.4557
M15
G01X3.3917Y-5.5344
M16
G05
M30
