%TF.GenerationSoftware,KiCad,Pcbnew,7.0.11*%
%TF.CreationDate,2024-07-12T13:59:46+01:00*%
%TF.ProjectId,3 mode bottle filling machine,33206d6f-6465-4206-926f-74746c652066,v1*%
%TF.SameCoordinates,Original*%
%TF.FileFunction,Legend,Top*%
%TF.FilePolarity,Positive*%
%FSLAX46Y46*%
G04 Gerber Fmt 4.6, Leading zero omitted, Abs format (unit mm)*
G04 Created by KiCad (PCBNEW 7.0.11) date 2024-07-12 13:59:46*
%MOMM*%
%LPD*%
G01*
G04 APERTURE LIST*
%ADD10C,0.300000*%
%ADD11C,0.150000*%
%ADD12C,0.120000*%
%ADD13C,0.010000*%
G04 APERTURE END LIST*
D10*
X175993796Y-142075828D02*
X175850939Y-142004400D01*
X175850939Y-142004400D02*
X175779510Y-141932971D01*
X175779510Y-141932971D02*
X175708082Y-141790114D01*
X175708082Y-141790114D02*
X175708082Y-141361542D01*
X175708082Y-141361542D02*
X175779510Y-141218685D01*
X175779510Y-141218685D02*
X175850939Y-141147257D01*
X175850939Y-141147257D02*
X175993796Y-141075828D01*
X175993796Y-141075828D02*
X176208082Y-141075828D01*
X176208082Y-141075828D02*
X176350939Y-141147257D01*
X176350939Y-141147257D02*
X176422368Y-141218685D01*
X176422368Y-141218685D02*
X176493796Y-141361542D01*
X176493796Y-141361542D02*
X176493796Y-141790114D01*
X176493796Y-141790114D02*
X176422368Y-141932971D01*
X176422368Y-141932971D02*
X176350939Y-142004400D01*
X176350939Y-142004400D02*
X176208082Y-142075828D01*
X176208082Y-142075828D02*
X175993796Y-142075828D01*
X177779511Y-141075828D02*
X177779511Y-142075828D01*
X177136653Y-141075828D02*
X177136653Y-141861542D01*
X177136653Y-141861542D02*
X177208082Y-142004400D01*
X177208082Y-142004400D02*
X177350939Y-142075828D01*
X177350939Y-142075828D02*
X177565225Y-142075828D01*
X177565225Y-142075828D02*
X177708082Y-142004400D01*
X177708082Y-142004400D02*
X177779511Y-141932971D01*
X178279511Y-141075828D02*
X178850939Y-141075828D01*
X178493796Y-140575828D02*
X178493796Y-141861542D01*
X178493796Y-141861542D02*
X178565225Y-142004400D01*
X178565225Y-142004400D02*
X178708082Y-142075828D01*
X178708082Y-142075828D02*
X178850939Y-142075828D01*
X73800828Y-99756203D02*
X73800828Y-100470489D01*
X73800828Y-100470489D02*
X74515114Y-100541917D01*
X74515114Y-100541917D02*
X74443685Y-100470489D01*
X74443685Y-100470489D02*
X74372257Y-100327632D01*
X74372257Y-100327632D02*
X74372257Y-99970489D01*
X74372257Y-99970489D02*
X74443685Y-99827632D01*
X74443685Y-99827632D02*
X74515114Y-99756203D01*
X74515114Y-99756203D02*
X74657971Y-99684774D01*
X74657971Y-99684774D02*
X75015114Y-99684774D01*
X75015114Y-99684774D02*
X75157971Y-99756203D01*
X75157971Y-99756203D02*
X75229400Y-99827632D01*
X75229400Y-99827632D02*
X75300828Y-99970489D01*
X75300828Y-99970489D02*
X75300828Y-100327632D01*
X75300828Y-100327632D02*
X75229400Y-100470489D01*
X75229400Y-100470489D02*
X75157971Y-100541917D01*
X74300828Y-99184775D02*
X75300828Y-98827632D01*
X75300828Y-98827632D02*
X74300828Y-98470489D01*
X183204510Y-106215114D02*
X183418796Y-106286542D01*
X183418796Y-106286542D02*
X183490225Y-106357971D01*
X183490225Y-106357971D02*
X183561653Y-106500828D01*
X183561653Y-106500828D02*
X183561653Y-106715114D01*
X183561653Y-106715114D02*
X183490225Y-106857971D01*
X183490225Y-106857971D02*
X183418796Y-106929400D01*
X183418796Y-106929400D02*
X183275939Y-107000828D01*
X183275939Y-107000828D02*
X182704510Y-107000828D01*
X182704510Y-107000828D02*
X182704510Y-105500828D01*
X182704510Y-105500828D02*
X183204510Y-105500828D01*
X183204510Y-105500828D02*
X183347368Y-105572257D01*
X183347368Y-105572257D02*
X183418796Y-105643685D01*
X183418796Y-105643685D02*
X183490225Y-105786542D01*
X183490225Y-105786542D02*
X183490225Y-105929400D01*
X183490225Y-105929400D02*
X183418796Y-106072257D01*
X183418796Y-106072257D02*
X183347368Y-106143685D01*
X183347368Y-106143685D02*
X183204510Y-106215114D01*
X183204510Y-106215114D02*
X182704510Y-106215114D01*
X184847368Y-106000828D02*
X184847368Y-107000828D01*
X184204510Y-106000828D02*
X184204510Y-106786542D01*
X184204510Y-106786542D02*
X184275939Y-106929400D01*
X184275939Y-106929400D02*
X184418796Y-107000828D01*
X184418796Y-107000828D02*
X184633082Y-107000828D01*
X184633082Y-107000828D02*
X184775939Y-106929400D01*
X184775939Y-106929400D02*
X184847368Y-106857971D01*
X185418796Y-106000828D02*
X186204511Y-106000828D01*
X186204511Y-106000828D02*
X185418796Y-107000828D01*
X185418796Y-107000828D02*
X186204511Y-107000828D01*
X186633082Y-106000828D02*
X187418797Y-106000828D01*
X187418797Y-106000828D02*
X186633082Y-107000828D01*
X186633082Y-107000828D02*
X187418797Y-107000828D01*
X188561654Y-106929400D02*
X188418797Y-107000828D01*
X188418797Y-107000828D02*
X188133083Y-107000828D01*
X188133083Y-107000828D02*
X187990225Y-106929400D01*
X187990225Y-106929400D02*
X187918797Y-106786542D01*
X187918797Y-106786542D02*
X187918797Y-106215114D01*
X187918797Y-106215114D02*
X187990225Y-106072257D01*
X187990225Y-106072257D02*
X188133083Y-106000828D01*
X188133083Y-106000828D02*
X188418797Y-106000828D01*
X188418797Y-106000828D02*
X188561654Y-106072257D01*
X188561654Y-106072257D02*
X188633083Y-106215114D01*
X188633083Y-106215114D02*
X188633083Y-106357971D01*
X188633083Y-106357971D02*
X187918797Y-106500828D01*
X189275939Y-107000828D02*
X189275939Y-106000828D01*
X189275939Y-106286542D02*
X189347368Y-106143685D01*
X189347368Y-106143685D02*
X189418797Y-106072257D01*
X189418797Y-106072257D02*
X189561654Y-106000828D01*
X189561654Y-106000828D02*
X189704511Y-106000828D01*
X170986653Y-140978328D02*
X171343796Y-141978328D01*
X171343796Y-141978328D02*
X171700939Y-140978328D01*
X172915225Y-141906900D02*
X172772367Y-141978328D01*
X172772367Y-141978328D02*
X172486653Y-141978328D01*
X172486653Y-141978328D02*
X172343796Y-141906900D01*
X172343796Y-141906900D02*
X172272367Y-141835471D01*
X172272367Y-141835471D02*
X172200939Y-141692614D01*
X172200939Y-141692614D02*
X172200939Y-141264042D01*
X172200939Y-141264042D02*
X172272367Y-141121185D01*
X172272367Y-141121185D02*
X172343796Y-141049757D01*
X172343796Y-141049757D02*
X172486653Y-140978328D01*
X172486653Y-140978328D02*
X172772367Y-140978328D01*
X172772367Y-140978328D02*
X172915225Y-141049757D01*
X174200939Y-141906900D02*
X174058081Y-141978328D01*
X174058081Y-141978328D02*
X173772367Y-141978328D01*
X173772367Y-141978328D02*
X173629510Y-141906900D01*
X173629510Y-141906900D02*
X173558081Y-141835471D01*
X173558081Y-141835471D02*
X173486653Y-141692614D01*
X173486653Y-141692614D02*
X173486653Y-141264042D01*
X173486653Y-141264042D02*
X173558081Y-141121185D01*
X173558081Y-141121185D02*
X173629510Y-141049757D01*
X173629510Y-141049757D02*
X173772367Y-140978328D01*
X173772367Y-140978328D02*
X174058081Y-140978328D01*
X174058081Y-140978328D02*
X174200939Y-141049757D01*
X75350828Y-113284774D02*
X75350828Y-114141917D01*
X75350828Y-113713346D02*
X73850828Y-113713346D01*
X73850828Y-113713346D02*
X74065114Y-113856203D01*
X74065114Y-113856203D02*
X74207971Y-113999060D01*
X74207971Y-113999060D02*
X74279400Y-114141917D01*
X73993685Y-112713346D02*
X73922257Y-112641918D01*
X73922257Y-112641918D02*
X73850828Y-112499061D01*
X73850828Y-112499061D02*
X73850828Y-112141918D01*
X73850828Y-112141918D02*
X73922257Y-111999061D01*
X73922257Y-111999061D02*
X73993685Y-111927632D01*
X73993685Y-111927632D02*
X74136542Y-111856203D01*
X74136542Y-111856203D02*
X74279400Y-111856203D01*
X74279400Y-111856203D02*
X74493685Y-111927632D01*
X74493685Y-111927632D02*
X75350828Y-112784775D01*
X75350828Y-112784775D02*
X75350828Y-111856203D01*
X74350828Y-111356204D02*
X75350828Y-110999061D01*
X75350828Y-110999061D02*
X74350828Y-110641918D01*
X162608082Y-138954400D02*
X162822368Y-139025828D01*
X162822368Y-139025828D02*
X163179510Y-139025828D01*
X163179510Y-139025828D02*
X163322368Y-138954400D01*
X163322368Y-138954400D02*
X163393796Y-138882971D01*
X163393796Y-138882971D02*
X163465225Y-138740114D01*
X163465225Y-138740114D02*
X163465225Y-138597257D01*
X163465225Y-138597257D02*
X163393796Y-138454400D01*
X163393796Y-138454400D02*
X163322368Y-138382971D01*
X163322368Y-138382971D02*
X163179510Y-138311542D01*
X163179510Y-138311542D02*
X162893796Y-138240114D01*
X162893796Y-138240114D02*
X162750939Y-138168685D01*
X162750939Y-138168685D02*
X162679510Y-138097257D01*
X162679510Y-138097257D02*
X162608082Y-137954400D01*
X162608082Y-137954400D02*
X162608082Y-137811542D01*
X162608082Y-137811542D02*
X162679510Y-137668685D01*
X162679510Y-137668685D02*
X162750939Y-137597257D01*
X162750939Y-137597257D02*
X162893796Y-137525828D01*
X162893796Y-137525828D02*
X163250939Y-137525828D01*
X163250939Y-137525828D02*
X163465225Y-137597257D01*
X164679510Y-138954400D02*
X164536653Y-139025828D01*
X164536653Y-139025828D02*
X164250939Y-139025828D01*
X164250939Y-139025828D02*
X164108081Y-138954400D01*
X164108081Y-138954400D02*
X164036653Y-138811542D01*
X164036653Y-138811542D02*
X164036653Y-138240114D01*
X164036653Y-138240114D02*
X164108081Y-138097257D01*
X164108081Y-138097257D02*
X164250939Y-138025828D01*
X164250939Y-138025828D02*
X164536653Y-138025828D01*
X164536653Y-138025828D02*
X164679510Y-138097257D01*
X164679510Y-138097257D02*
X164750939Y-138240114D01*
X164750939Y-138240114D02*
X164750939Y-138382971D01*
X164750939Y-138382971D02*
X164036653Y-138525828D01*
X165393795Y-138025828D02*
X165393795Y-139025828D01*
X165393795Y-138168685D02*
X165465224Y-138097257D01*
X165465224Y-138097257D02*
X165608081Y-138025828D01*
X165608081Y-138025828D02*
X165822367Y-138025828D01*
X165822367Y-138025828D02*
X165965224Y-138097257D01*
X165965224Y-138097257D02*
X166036653Y-138240114D01*
X166036653Y-138240114D02*
X166036653Y-139025828D01*
X166679510Y-138954400D02*
X166822367Y-139025828D01*
X166822367Y-139025828D02*
X167108081Y-139025828D01*
X167108081Y-139025828D02*
X167250938Y-138954400D01*
X167250938Y-138954400D02*
X167322367Y-138811542D01*
X167322367Y-138811542D02*
X167322367Y-138740114D01*
X167322367Y-138740114D02*
X167250938Y-138597257D01*
X167250938Y-138597257D02*
X167108081Y-138525828D01*
X167108081Y-138525828D02*
X166893796Y-138525828D01*
X166893796Y-138525828D02*
X166750938Y-138454400D01*
X166750938Y-138454400D02*
X166679510Y-138311542D01*
X166679510Y-138311542D02*
X166679510Y-138240114D01*
X166679510Y-138240114D02*
X166750938Y-138097257D01*
X166750938Y-138097257D02*
X166893796Y-138025828D01*
X166893796Y-138025828D02*
X167108081Y-138025828D01*
X167108081Y-138025828D02*
X167250938Y-138097257D01*
X168179510Y-139025828D02*
X168036653Y-138954400D01*
X168036653Y-138954400D02*
X167965224Y-138882971D01*
X167965224Y-138882971D02*
X167893796Y-138740114D01*
X167893796Y-138740114D02*
X167893796Y-138311542D01*
X167893796Y-138311542D02*
X167965224Y-138168685D01*
X167965224Y-138168685D02*
X168036653Y-138097257D01*
X168036653Y-138097257D02*
X168179510Y-138025828D01*
X168179510Y-138025828D02*
X168393796Y-138025828D01*
X168393796Y-138025828D02*
X168536653Y-138097257D01*
X168536653Y-138097257D02*
X168608082Y-138168685D01*
X168608082Y-138168685D02*
X168679510Y-138311542D01*
X168679510Y-138311542D02*
X168679510Y-138740114D01*
X168679510Y-138740114D02*
X168608082Y-138882971D01*
X168608082Y-138882971D02*
X168536653Y-138954400D01*
X168536653Y-138954400D02*
X168393796Y-139025828D01*
X168393796Y-139025828D02*
X168179510Y-139025828D01*
X169322367Y-139025828D02*
X169322367Y-138025828D01*
X169322367Y-138311542D02*
X169393796Y-138168685D01*
X169393796Y-138168685D02*
X169465225Y-138097257D01*
X169465225Y-138097257D02*
X169608082Y-138025828D01*
X169608082Y-138025828D02*
X169750939Y-138025828D01*
X92854510Y-145125828D02*
X92854510Y-143625828D01*
X92854510Y-143625828D02*
X93354510Y-144697257D01*
X93354510Y-144697257D02*
X93854510Y-143625828D01*
X93854510Y-143625828D02*
X93854510Y-145125828D01*
X94783082Y-145125828D02*
X94640225Y-145054400D01*
X94640225Y-145054400D02*
X94568796Y-144982971D01*
X94568796Y-144982971D02*
X94497368Y-144840114D01*
X94497368Y-144840114D02*
X94497368Y-144411542D01*
X94497368Y-144411542D02*
X94568796Y-144268685D01*
X94568796Y-144268685D02*
X94640225Y-144197257D01*
X94640225Y-144197257D02*
X94783082Y-144125828D01*
X94783082Y-144125828D02*
X94997368Y-144125828D01*
X94997368Y-144125828D02*
X95140225Y-144197257D01*
X95140225Y-144197257D02*
X95211654Y-144268685D01*
X95211654Y-144268685D02*
X95283082Y-144411542D01*
X95283082Y-144411542D02*
X95283082Y-144840114D01*
X95283082Y-144840114D02*
X95211654Y-144982971D01*
X95211654Y-144982971D02*
X95140225Y-145054400D01*
X95140225Y-145054400D02*
X94997368Y-145125828D01*
X94997368Y-145125828D02*
X94783082Y-145125828D01*
X96568797Y-145125828D02*
X96568797Y-143625828D01*
X96568797Y-145054400D02*
X96425939Y-145125828D01*
X96425939Y-145125828D02*
X96140225Y-145125828D01*
X96140225Y-145125828D02*
X95997368Y-145054400D01*
X95997368Y-145054400D02*
X95925939Y-144982971D01*
X95925939Y-144982971D02*
X95854511Y-144840114D01*
X95854511Y-144840114D02*
X95854511Y-144411542D01*
X95854511Y-144411542D02*
X95925939Y-144268685D01*
X95925939Y-144268685D02*
X95997368Y-144197257D01*
X95997368Y-144197257D02*
X96140225Y-144125828D01*
X96140225Y-144125828D02*
X96425939Y-144125828D01*
X96425939Y-144125828D02*
X96568797Y-144197257D01*
X97854511Y-145054400D02*
X97711654Y-145125828D01*
X97711654Y-145125828D02*
X97425940Y-145125828D01*
X97425940Y-145125828D02*
X97283082Y-145054400D01*
X97283082Y-145054400D02*
X97211654Y-144911542D01*
X97211654Y-144911542D02*
X97211654Y-144340114D01*
X97211654Y-144340114D02*
X97283082Y-144197257D01*
X97283082Y-144197257D02*
X97425940Y-144125828D01*
X97425940Y-144125828D02*
X97711654Y-144125828D01*
X97711654Y-144125828D02*
X97854511Y-144197257D01*
X97854511Y-144197257D02*
X97925940Y-144340114D01*
X97925940Y-144340114D02*
X97925940Y-144482971D01*
X97925940Y-144482971D02*
X97211654Y-144625828D01*
X98211654Y-145268685D02*
X99354511Y-145268685D01*
X99711653Y-145125828D02*
X99711653Y-143625828D01*
X99711653Y-144197257D02*
X99854511Y-144125828D01*
X99854511Y-144125828D02*
X100140225Y-144125828D01*
X100140225Y-144125828D02*
X100283082Y-144197257D01*
X100283082Y-144197257D02*
X100354511Y-144268685D01*
X100354511Y-144268685D02*
X100425939Y-144411542D01*
X100425939Y-144411542D02*
X100425939Y-144840114D01*
X100425939Y-144840114D02*
X100354511Y-144982971D01*
X100354511Y-144982971D02*
X100283082Y-145054400D01*
X100283082Y-145054400D02*
X100140225Y-145125828D01*
X100140225Y-145125828D02*
X99854511Y-145125828D01*
X99854511Y-145125828D02*
X99711653Y-145054400D01*
X101711654Y-144125828D02*
X101711654Y-145125828D01*
X101068796Y-144125828D02*
X101068796Y-144911542D01*
X101068796Y-144911542D02*
X101140225Y-145054400D01*
X101140225Y-145054400D02*
X101283082Y-145125828D01*
X101283082Y-145125828D02*
X101497368Y-145125828D01*
X101497368Y-145125828D02*
X101640225Y-145054400D01*
X101640225Y-145054400D02*
X101711654Y-144982971D01*
X102211654Y-144125828D02*
X102783082Y-144125828D01*
X102425939Y-143625828D02*
X102425939Y-144911542D01*
X102425939Y-144911542D02*
X102497368Y-145054400D01*
X102497368Y-145054400D02*
X102640225Y-145125828D01*
X102640225Y-145125828D02*
X102783082Y-145125828D01*
X103068797Y-144125828D02*
X103640225Y-144125828D01*
X103283082Y-143625828D02*
X103283082Y-144911542D01*
X103283082Y-144911542D02*
X103354511Y-145054400D01*
X103354511Y-145054400D02*
X103497368Y-145125828D01*
X103497368Y-145125828D02*
X103640225Y-145125828D01*
X104354511Y-145125828D02*
X104211654Y-145054400D01*
X104211654Y-145054400D02*
X104140225Y-144982971D01*
X104140225Y-144982971D02*
X104068797Y-144840114D01*
X104068797Y-144840114D02*
X104068797Y-144411542D01*
X104068797Y-144411542D02*
X104140225Y-144268685D01*
X104140225Y-144268685D02*
X104211654Y-144197257D01*
X104211654Y-144197257D02*
X104354511Y-144125828D01*
X104354511Y-144125828D02*
X104568797Y-144125828D01*
X104568797Y-144125828D02*
X104711654Y-144197257D01*
X104711654Y-144197257D02*
X104783083Y-144268685D01*
X104783083Y-144268685D02*
X104854511Y-144411542D01*
X104854511Y-144411542D02*
X104854511Y-144840114D01*
X104854511Y-144840114D02*
X104783083Y-144982971D01*
X104783083Y-144982971D02*
X104711654Y-145054400D01*
X104711654Y-145054400D02*
X104568797Y-145125828D01*
X104568797Y-145125828D02*
X104354511Y-145125828D01*
X105497368Y-144125828D02*
X105497368Y-145125828D01*
X105497368Y-144268685D02*
X105568797Y-144197257D01*
X105568797Y-144197257D02*
X105711654Y-144125828D01*
X105711654Y-144125828D02*
X105925940Y-144125828D01*
X105925940Y-144125828D02*
X106068797Y-144197257D01*
X106068797Y-144197257D02*
X106140226Y-144340114D01*
X106140226Y-144340114D02*
X106140226Y-145125828D01*
X181165225Y-141022257D02*
X181022368Y-140950828D01*
X181022368Y-140950828D02*
X180808082Y-140950828D01*
X180808082Y-140950828D02*
X180593796Y-141022257D01*
X180593796Y-141022257D02*
X180450939Y-141165114D01*
X180450939Y-141165114D02*
X180379510Y-141307971D01*
X180379510Y-141307971D02*
X180308082Y-141593685D01*
X180308082Y-141593685D02*
X180308082Y-141807971D01*
X180308082Y-141807971D02*
X180379510Y-142093685D01*
X180379510Y-142093685D02*
X180450939Y-142236542D01*
X180450939Y-142236542D02*
X180593796Y-142379400D01*
X180593796Y-142379400D02*
X180808082Y-142450828D01*
X180808082Y-142450828D02*
X180950939Y-142450828D01*
X180950939Y-142450828D02*
X181165225Y-142379400D01*
X181165225Y-142379400D02*
X181236653Y-142307971D01*
X181236653Y-142307971D02*
X181236653Y-141807971D01*
X181236653Y-141807971D02*
X180950939Y-141807971D01*
X181879510Y-142450828D02*
X181879510Y-140950828D01*
X181879510Y-140950828D02*
X182736653Y-142450828D01*
X182736653Y-142450828D02*
X182736653Y-140950828D01*
X183450939Y-142450828D02*
X183450939Y-140950828D01*
X183450939Y-140950828D02*
X183808082Y-140950828D01*
X183808082Y-140950828D02*
X184022368Y-141022257D01*
X184022368Y-141022257D02*
X184165225Y-141165114D01*
X184165225Y-141165114D02*
X184236654Y-141307971D01*
X184236654Y-141307971D02*
X184308082Y-141593685D01*
X184308082Y-141593685D02*
X184308082Y-141807971D01*
X184308082Y-141807971D02*
X184236654Y-142093685D01*
X184236654Y-142093685D02*
X184165225Y-142236542D01*
X184165225Y-142236542D02*
X184022368Y-142379400D01*
X184022368Y-142379400D02*
X183808082Y-142450828D01*
X183808082Y-142450828D02*
X183450939Y-142450828D01*
X89761653Y-88175828D02*
X89261653Y-87461542D01*
X88904510Y-88175828D02*
X88904510Y-86675828D01*
X88904510Y-86675828D02*
X89475939Y-86675828D01*
X89475939Y-86675828D02*
X89618796Y-86747257D01*
X89618796Y-86747257D02*
X89690225Y-86818685D01*
X89690225Y-86818685D02*
X89761653Y-86961542D01*
X89761653Y-86961542D02*
X89761653Y-87175828D01*
X89761653Y-87175828D02*
X89690225Y-87318685D01*
X89690225Y-87318685D02*
X89618796Y-87390114D01*
X89618796Y-87390114D02*
X89475939Y-87461542D01*
X89475939Y-87461542D02*
X88904510Y-87461542D01*
X90975939Y-88104400D02*
X90833082Y-88175828D01*
X90833082Y-88175828D02*
X90547368Y-88175828D01*
X90547368Y-88175828D02*
X90404510Y-88104400D01*
X90404510Y-88104400D02*
X90333082Y-87961542D01*
X90333082Y-87961542D02*
X90333082Y-87390114D01*
X90333082Y-87390114D02*
X90404510Y-87247257D01*
X90404510Y-87247257D02*
X90547368Y-87175828D01*
X90547368Y-87175828D02*
X90833082Y-87175828D01*
X90833082Y-87175828D02*
X90975939Y-87247257D01*
X90975939Y-87247257D02*
X91047368Y-87390114D01*
X91047368Y-87390114D02*
X91047368Y-87532971D01*
X91047368Y-87532971D02*
X90333082Y-87675828D01*
X91618796Y-88104400D02*
X91761653Y-88175828D01*
X91761653Y-88175828D02*
X92047367Y-88175828D01*
X92047367Y-88175828D02*
X92190224Y-88104400D01*
X92190224Y-88104400D02*
X92261653Y-87961542D01*
X92261653Y-87961542D02*
X92261653Y-87890114D01*
X92261653Y-87890114D02*
X92190224Y-87747257D01*
X92190224Y-87747257D02*
X92047367Y-87675828D01*
X92047367Y-87675828D02*
X91833082Y-87675828D01*
X91833082Y-87675828D02*
X91690224Y-87604400D01*
X91690224Y-87604400D02*
X91618796Y-87461542D01*
X91618796Y-87461542D02*
X91618796Y-87390114D01*
X91618796Y-87390114D02*
X91690224Y-87247257D01*
X91690224Y-87247257D02*
X91833082Y-87175828D01*
X91833082Y-87175828D02*
X92047367Y-87175828D01*
X92047367Y-87175828D02*
X92190224Y-87247257D01*
X93475939Y-88104400D02*
X93333082Y-88175828D01*
X93333082Y-88175828D02*
X93047368Y-88175828D01*
X93047368Y-88175828D02*
X92904510Y-88104400D01*
X92904510Y-88104400D02*
X92833082Y-87961542D01*
X92833082Y-87961542D02*
X92833082Y-87390114D01*
X92833082Y-87390114D02*
X92904510Y-87247257D01*
X92904510Y-87247257D02*
X93047368Y-87175828D01*
X93047368Y-87175828D02*
X93333082Y-87175828D01*
X93333082Y-87175828D02*
X93475939Y-87247257D01*
X93475939Y-87247257D02*
X93547368Y-87390114D01*
X93547368Y-87390114D02*
X93547368Y-87532971D01*
X93547368Y-87532971D02*
X92833082Y-87675828D01*
X93975939Y-87175828D02*
X94547367Y-87175828D01*
X94190224Y-86675828D02*
X94190224Y-87961542D01*
X94190224Y-87961542D02*
X94261653Y-88104400D01*
X94261653Y-88104400D02*
X94404510Y-88175828D01*
X94404510Y-88175828D02*
X94547367Y-88175828D01*
X147558082Y-145454400D02*
X147772368Y-145525828D01*
X147772368Y-145525828D02*
X148129510Y-145525828D01*
X148129510Y-145525828D02*
X148272368Y-145454400D01*
X148272368Y-145454400D02*
X148343796Y-145382971D01*
X148343796Y-145382971D02*
X148415225Y-145240114D01*
X148415225Y-145240114D02*
X148415225Y-145097257D01*
X148415225Y-145097257D02*
X148343796Y-144954400D01*
X148343796Y-144954400D02*
X148272368Y-144882971D01*
X148272368Y-144882971D02*
X148129510Y-144811542D01*
X148129510Y-144811542D02*
X147843796Y-144740114D01*
X147843796Y-144740114D02*
X147700939Y-144668685D01*
X147700939Y-144668685D02*
X147629510Y-144597257D01*
X147629510Y-144597257D02*
X147558082Y-144454400D01*
X147558082Y-144454400D02*
X147558082Y-144311542D01*
X147558082Y-144311542D02*
X147629510Y-144168685D01*
X147629510Y-144168685D02*
X147700939Y-144097257D01*
X147700939Y-144097257D02*
X147843796Y-144025828D01*
X147843796Y-144025828D02*
X148200939Y-144025828D01*
X148200939Y-144025828D02*
X148415225Y-144097257D01*
X148843796Y-144525828D02*
X149415224Y-144525828D01*
X149058081Y-144025828D02*
X149058081Y-145311542D01*
X149058081Y-145311542D02*
X149129510Y-145454400D01*
X149129510Y-145454400D02*
X149272367Y-145525828D01*
X149272367Y-145525828D02*
X149415224Y-145525828D01*
X150558082Y-145525828D02*
X150558082Y-144740114D01*
X150558082Y-144740114D02*
X150486653Y-144597257D01*
X150486653Y-144597257D02*
X150343796Y-144525828D01*
X150343796Y-144525828D02*
X150058082Y-144525828D01*
X150058082Y-144525828D02*
X149915224Y-144597257D01*
X150558082Y-145454400D02*
X150415224Y-145525828D01*
X150415224Y-145525828D02*
X150058082Y-145525828D01*
X150058082Y-145525828D02*
X149915224Y-145454400D01*
X149915224Y-145454400D02*
X149843796Y-145311542D01*
X149843796Y-145311542D02*
X149843796Y-145168685D01*
X149843796Y-145168685D02*
X149915224Y-145025828D01*
X149915224Y-145025828D02*
X150058082Y-144954400D01*
X150058082Y-144954400D02*
X150415224Y-144954400D01*
X150415224Y-144954400D02*
X150558082Y-144882971D01*
X151272367Y-145525828D02*
X151272367Y-144525828D01*
X151272367Y-144811542D02*
X151343796Y-144668685D01*
X151343796Y-144668685D02*
X151415225Y-144597257D01*
X151415225Y-144597257D02*
X151558082Y-144525828D01*
X151558082Y-144525828D02*
X151700939Y-144525828D01*
X151986653Y-144525828D02*
X152558081Y-144525828D01*
X152200938Y-144025828D02*
X152200938Y-145311542D01*
X152200938Y-145311542D02*
X152272367Y-145454400D01*
X152272367Y-145454400D02*
X152415224Y-145525828D01*
X152415224Y-145525828D02*
X152558081Y-145525828D01*
X152700939Y-145668685D02*
X153843796Y-145668685D01*
X154700938Y-144740114D02*
X154915224Y-144811542D01*
X154915224Y-144811542D02*
X154986653Y-144882971D01*
X154986653Y-144882971D02*
X155058081Y-145025828D01*
X155058081Y-145025828D02*
X155058081Y-145240114D01*
X155058081Y-145240114D02*
X154986653Y-145382971D01*
X154986653Y-145382971D02*
X154915224Y-145454400D01*
X154915224Y-145454400D02*
X154772367Y-145525828D01*
X154772367Y-145525828D02*
X154200938Y-145525828D01*
X154200938Y-145525828D02*
X154200938Y-144025828D01*
X154200938Y-144025828D02*
X154700938Y-144025828D01*
X154700938Y-144025828D02*
X154843796Y-144097257D01*
X154843796Y-144097257D02*
X154915224Y-144168685D01*
X154915224Y-144168685D02*
X154986653Y-144311542D01*
X154986653Y-144311542D02*
X154986653Y-144454400D01*
X154986653Y-144454400D02*
X154915224Y-144597257D01*
X154915224Y-144597257D02*
X154843796Y-144668685D01*
X154843796Y-144668685D02*
X154700938Y-144740114D01*
X154700938Y-144740114D02*
X154200938Y-144740114D01*
X156343796Y-144525828D02*
X156343796Y-145525828D01*
X155700938Y-144525828D02*
X155700938Y-145311542D01*
X155700938Y-145311542D02*
X155772367Y-145454400D01*
X155772367Y-145454400D02*
X155915224Y-145525828D01*
X155915224Y-145525828D02*
X156129510Y-145525828D01*
X156129510Y-145525828D02*
X156272367Y-145454400D01*
X156272367Y-145454400D02*
X156343796Y-145382971D01*
X156843796Y-144525828D02*
X157415224Y-144525828D01*
X157058081Y-144025828D02*
X157058081Y-145311542D01*
X157058081Y-145311542D02*
X157129510Y-145454400D01*
X157129510Y-145454400D02*
X157272367Y-145525828D01*
X157272367Y-145525828D02*
X157415224Y-145525828D01*
X157700939Y-144525828D02*
X158272367Y-144525828D01*
X157915224Y-144025828D02*
X157915224Y-145311542D01*
X157915224Y-145311542D02*
X157986653Y-145454400D01*
X157986653Y-145454400D02*
X158129510Y-145525828D01*
X158129510Y-145525828D02*
X158272367Y-145525828D01*
X158986653Y-145525828D02*
X158843796Y-145454400D01*
X158843796Y-145454400D02*
X158772367Y-145382971D01*
X158772367Y-145382971D02*
X158700939Y-145240114D01*
X158700939Y-145240114D02*
X158700939Y-144811542D01*
X158700939Y-144811542D02*
X158772367Y-144668685D01*
X158772367Y-144668685D02*
X158843796Y-144597257D01*
X158843796Y-144597257D02*
X158986653Y-144525828D01*
X158986653Y-144525828D02*
X159200939Y-144525828D01*
X159200939Y-144525828D02*
X159343796Y-144597257D01*
X159343796Y-144597257D02*
X159415225Y-144668685D01*
X159415225Y-144668685D02*
X159486653Y-144811542D01*
X159486653Y-144811542D02*
X159486653Y-145240114D01*
X159486653Y-145240114D02*
X159415225Y-145382971D01*
X159415225Y-145382971D02*
X159343796Y-145454400D01*
X159343796Y-145454400D02*
X159200939Y-145525828D01*
X159200939Y-145525828D02*
X158986653Y-145525828D01*
X160129510Y-144525828D02*
X160129510Y-145525828D01*
X160129510Y-144668685D02*
X160200939Y-144597257D01*
X160200939Y-144597257D02*
X160343796Y-144525828D01*
X160343796Y-144525828D02*
X160558082Y-144525828D01*
X160558082Y-144525828D02*
X160700939Y-144597257D01*
X160700939Y-144597257D02*
X160772368Y-144740114D01*
X160772368Y-144740114D02*
X160772368Y-145525828D01*
X191429510Y-115754400D02*
X192572368Y-115754400D01*
X191604510Y-128429400D02*
X192747368Y-128429400D01*
X192175939Y-129000828D02*
X192175939Y-127857971D01*
D11*
X162429819Y-115113094D02*
X161429819Y-115113094D01*
X161429819Y-115113094D02*
X161429819Y-114874999D01*
X161429819Y-114874999D02*
X161477438Y-114732142D01*
X161477438Y-114732142D02*
X161572676Y-114636904D01*
X161572676Y-114636904D02*
X161667914Y-114589285D01*
X161667914Y-114589285D02*
X161858390Y-114541666D01*
X161858390Y-114541666D02*
X162001247Y-114541666D01*
X162001247Y-114541666D02*
X162191723Y-114589285D01*
X162191723Y-114589285D02*
X162286961Y-114636904D01*
X162286961Y-114636904D02*
X162382200Y-114732142D01*
X162382200Y-114732142D02*
X162429819Y-114874999D01*
X162429819Y-114874999D02*
X162429819Y-115113094D01*
X161429819Y-114208332D02*
X161429819Y-113541666D01*
X161429819Y-113541666D02*
X162429819Y-113970237D01*
X160404819Y-127666904D02*
X159404819Y-127666904D01*
X160404819Y-127095476D02*
X159833390Y-127524047D01*
X159404819Y-127095476D02*
X159976247Y-127666904D01*
X135409580Y-89716666D02*
X135457200Y-89764285D01*
X135457200Y-89764285D02*
X135504819Y-89907142D01*
X135504819Y-89907142D02*
X135504819Y-90002380D01*
X135504819Y-90002380D02*
X135457200Y-90145237D01*
X135457200Y-90145237D02*
X135361961Y-90240475D01*
X135361961Y-90240475D02*
X135266723Y-90288094D01*
X135266723Y-90288094D02*
X135076247Y-90335713D01*
X135076247Y-90335713D02*
X134933390Y-90335713D01*
X134933390Y-90335713D02*
X134742914Y-90288094D01*
X134742914Y-90288094D02*
X134647676Y-90240475D01*
X134647676Y-90240475D02*
X134552438Y-90145237D01*
X134552438Y-90145237D02*
X134504819Y-90002380D01*
X134504819Y-90002380D02*
X134504819Y-89907142D01*
X134504819Y-89907142D02*
X134552438Y-89764285D01*
X134552438Y-89764285D02*
X134600057Y-89716666D01*
X135504819Y-89240475D02*
X135504819Y-89049999D01*
X135504819Y-89049999D02*
X135457200Y-88954761D01*
X135457200Y-88954761D02*
X135409580Y-88907142D01*
X135409580Y-88907142D02*
X135266723Y-88811904D01*
X135266723Y-88811904D02*
X135076247Y-88764285D01*
X135076247Y-88764285D02*
X134695295Y-88764285D01*
X134695295Y-88764285D02*
X134600057Y-88811904D01*
X134600057Y-88811904D02*
X134552438Y-88859523D01*
X134552438Y-88859523D02*
X134504819Y-88954761D01*
X134504819Y-88954761D02*
X134504819Y-89145237D01*
X134504819Y-89145237D02*
X134552438Y-89240475D01*
X134552438Y-89240475D02*
X134600057Y-89288094D01*
X134600057Y-89288094D02*
X134695295Y-89335713D01*
X134695295Y-89335713D02*
X134933390Y-89335713D01*
X134933390Y-89335713D02*
X135028628Y-89288094D01*
X135028628Y-89288094D02*
X135076247Y-89240475D01*
X135076247Y-89240475D02*
X135123866Y-89145237D01*
X135123866Y-89145237D02*
X135123866Y-88954761D01*
X135123866Y-88954761D02*
X135076247Y-88859523D01*
X135076247Y-88859523D02*
X135028628Y-88811904D01*
X135028628Y-88811904D02*
X134933390Y-88764285D01*
X147684819Y-123366666D02*
X147208628Y-123699999D01*
X147684819Y-123938094D02*
X146684819Y-123938094D01*
X146684819Y-123938094D02*
X146684819Y-123557142D01*
X146684819Y-123557142D02*
X146732438Y-123461904D01*
X146732438Y-123461904D02*
X146780057Y-123414285D01*
X146780057Y-123414285D02*
X146875295Y-123366666D01*
X146875295Y-123366666D02*
X147018152Y-123366666D01*
X147018152Y-123366666D02*
X147113390Y-123414285D01*
X147113390Y-123414285D02*
X147161009Y-123461904D01*
X147161009Y-123461904D02*
X147208628Y-123557142D01*
X147208628Y-123557142D02*
X147208628Y-123938094D01*
X146684819Y-123033332D02*
X146684819Y-122414285D01*
X146684819Y-122414285D02*
X147065771Y-122747618D01*
X147065771Y-122747618D02*
X147065771Y-122604761D01*
X147065771Y-122604761D02*
X147113390Y-122509523D01*
X147113390Y-122509523D02*
X147161009Y-122461904D01*
X147161009Y-122461904D02*
X147256247Y-122414285D01*
X147256247Y-122414285D02*
X147494342Y-122414285D01*
X147494342Y-122414285D02*
X147589580Y-122461904D01*
X147589580Y-122461904D02*
X147637200Y-122509523D01*
X147637200Y-122509523D02*
X147684819Y-122604761D01*
X147684819Y-122604761D02*
X147684819Y-122890475D01*
X147684819Y-122890475D02*
X147637200Y-122985713D01*
X147637200Y-122985713D02*
X147589580Y-123033332D01*
X93629819Y-97978094D02*
X92629819Y-97978094D01*
X92629819Y-97978094D02*
X92629819Y-97739999D01*
X92629819Y-97739999D02*
X92677438Y-97597142D01*
X92677438Y-97597142D02*
X92772676Y-97501904D01*
X92772676Y-97501904D02*
X92867914Y-97454285D01*
X92867914Y-97454285D02*
X93058390Y-97406666D01*
X93058390Y-97406666D02*
X93201247Y-97406666D01*
X93201247Y-97406666D02*
X93391723Y-97454285D01*
X93391723Y-97454285D02*
X93486961Y-97501904D01*
X93486961Y-97501904D02*
X93582200Y-97597142D01*
X93582200Y-97597142D02*
X93629819Y-97739999D01*
X93629819Y-97739999D02*
X93629819Y-97978094D01*
X93629819Y-96454285D02*
X93629819Y-97025713D01*
X93629819Y-96739999D02*
X92629819Y-96739999D01*
X92629819Y-96739999D02*
X92772676Y-96835237D01*
X92772676Y-96835237D02*
X92867914Y-96930475D01*
X92867914Y-96930475D02*
X92915533Y-97025713D01*
X119549819Y-132291666D02*
X119073628Y-132624999D01*
X119549819Y-132863094D02*
X118549819Y-132863094D01*
X118549819Y-132863094D02*
X118549819Y-132482142D01*
X118549819Y-132482142D02*
X118597438Y-132386904D01*
X118597438Y-132386904D02*
X118645057Y-132339285D01*
X118645057Y-132339285D02*
X118740295Y-132291666D01*
X118740295Y-132291666D02*
X118883152Y-132291666D01*
X118883152Y-132291666D02*
X118978390Y-132339285D01*
X118978390Y-132339285D02*
X119026009Y-132386904D01*
X119026009Y-132386904D02*
X119073628Y-132482142D01*
X119073628Y-132482142D02*
X119073628Y-132863094D01*
X118978390Y-131720237D02*
X118930771Y-131815475D01*
X118930771Y-131815475D02*
X118883152Y-131863094D01*
X118883152Y-131863094D02*
X118787914Y-131910713D01*
X118787914Y-131910713D02*
X118740295Y-131910713D01*
X118740295Y-131910713D02*
X118645057Y-131863094D01*
X118645057Y-131863094D02*
X118597438Y-131815475D01*
X118597438Y-131815475D02*
X118549819Y-131720237D01*
X118549819Y-131720237D02*
X118549819Y-131529761D01*
X118549819Y-131529761D02*
X118597438Y-131434523D01*
X118597438Y-131434523D02*
X118645057Y-131386904D01*
X118645057Y-131386904D02*
X118740295Y-131339285D01*
X118740295Y-131339285D02*
X118787914Y-131339285D01*
X118787914Y-131339285D02*
X118883152Y-131386904D01*
X118883152Y-131386904D02*
X118930771Y-131434523D01*
X118930771Y-131434523D02*
X118978390Y-131529761D01*
X118978390Y-131529761D02*
X118978390Y-131720237D01*
X118978390Y-131720237D02*
X119026009Y-131815475D01*
X119026009Y-131815475D02*
X119073628Y-131863094D01*
X119073628Y-131863094D02*
X119168866Y-131910713D01*
X119168866Y-131910713D02*
X119359342Y-131910713D01*
X119359342Y-131910713D02*
X119454580Y-131863094D01*
X119454580Y-131863094D02*
X119502200Y-131815475D01*
X119502200Y-131815475D02*
X119549819Y-131720237D01*
X119549819Y-131720237D02*
X119549819Y-131529761D01*
X119549819Y-131529761D02*
X119502200Y-131434523D01*
X119502200Y-131434523D02*
X119454580Y-131386904D01*
X119454580Y-131386904D02*
X119359342Y-131339285D01*
X119359342Y-131339285D02*
X119168866Y-131339285D01*
X119168866Y-131339285D02*
X119073628Y-131386904D01*
X119073628Y-131386904D02*
X119026009Y-131434523D01*
X119026009Y-131434523D02*
X118978390Y-131529761D01*
X125483333Y-93059580D02*
X125435714Y-93107200D01*
X125435714Y-93107200D02*
X125292857Y-93154819D01*
X125292857Y-93154819D02*
X125197619Y-93154819D01*
X125197619Y-93154819D02*
X125054762Y-93107200D01*
X125054762Y-93107200D02*
X124959524Y-93011961D01*
X124959524Y-93011961D02*
X124911905Y-92916723D01*
X124911905Y-92916723D02*
X124864286Y-92726247D01*
X124864286Y-92726247D02*
X124864286Y-92583390D01*
X124864286Y-92583390D02*
X124911905Y-92392914D01*
X124911905Y-92392914D02*
X124959524Y-92297676D01*
X124959524Y-92297676D02*
X125054762Y-92202438D01*
X125054762Y-92202438D02*
X125197619Y-92154819D01*
X125197619Y-92154819D02*
X125292857Y-92154819D01*
X125292857Y-92154819D02*
X125435714Y-92202438D01*
X125435714Y-92202438D02*
X125483333Y-92250057D01*
X125816667Y-92154819D02*
X126483333Y-92154819D01*
X126483333Y-92154819D02*
X126054762Y-93154819D01*
X117804819Y-122013094D02*
X116804819Y-122013094D01*
X116804819Y-122013094D02*
X116804819Y-121774999D01*
X116804819Y-121774999D02*
X116852438Y-121632142D01*
X116852438Y-121632142D02*
X116947676Y-121536904D01*
X116947676Y-121536904D02*
X117042914Y-121489285D01*
X117042914Y-121489285D02*
X117233390Y-121441666D01*
X117233390Y-121441666D02*
X117376247Y-121441666D01*
X117376247Y-121441666D02*
X117566723Y-121489285D01*
X117566723Y-121489285D02*
X117661961Y-121536904D01*
X117661961Y-121536904D02*
X117757200Y-121632142D01*
X117757200Y-121632142D02*
X117804819Y-121774999D01*
X117804819Y-121774999D02*
X117804819Y-122013094D01*
X116804819Y-120536904D02*
X116804819Y-121013094D01*
X116804819Y-121013094D02*
X117281009Y-121060713D01*
X117281009Y-121060713D02*
X117233390Y-121013094D01*
X117233390Y-121013094D02*
X117185771Y-120917856D01*
X117185771Y-120917856D02*
X117185771Y-120679761D01*
X117185771Y-120679761D02*
X117233390Y-120584523D01*
X117233390Y-120584523D02*
X117281009Y-120536904D01*
X117281009Y-120536904D02*
X117376247Y-120489285D01*
X117376247Y-120489285D02*
X117614342Y-120489285D01*
X117614342Y-120489285D02*
X117709580Y-120536904D01*
X117709580Y-120536904D02*
X117757200Y-120584523D01*
X117757200Y-120584523D02*
X117804819Y-120679761D01*
X117804819Y-120679761D02*
X117804819Y-120917856D01*
X117804819Y-120917856D02*
X117757200Y-121013094D01*
X117757200Y-121013094D02*
X117709580Y-121060713D01*
X86489580Y-104756666D02*
X86537200Y-104804285D01*
X86537200Y-104804285D02*
X86584819Y-104947142D01*
X86584819Y-104947142D02*
X86584819Y-105042380D01*
X86584819Y-105042380D02*
X86537200Y-105185237D01*
X86537200Y-105185237D02*
X86441961Y-105280475D01*
X86441961Y-105280475D02*
X86346723Y-105328094D01*
X86346723Y-105328094D02*
X86156247Y-105375713D01*
X86156247Y-105375713D02*
X86013390Y-105375713D01*
X86013390Y-105375713D02*
X85822914Y-105328094D01*
X85822914Y-105328094D02*
X85727676Y-105280475D01*
X85727676Y-105280475D02*
X85632438Y-105185237D01*
X85632438Y-105185237D02*
X85584819Y-105042380D01*
X85584819Y-105042380D02*
X85584819Y-104947142D01*
X85584819Y-104947142D02*
X85632438Y-104804285D01*
X85632438Y-104804285D02*
X85680057Y-104756666D01*
X85680057Y-104375713D02*
X85632438Y-104328094D01*
X85632438Y-104328094D02*
X85584819Y-104232856D01*
X85584819Y-104232856D02*
X85584819Y-103994761D01*
X85584819Y-103994761D02*
X85632438Y-103899523D01*
X85632438Y-103899523D02*
X85680057Y-103851904D01*
X85680057Y-103851904D02*
X85775295Y-103804285D01*
X85775295Y-103804285D02*
X85870533Y-103804285D01*
X85870533Y-103804285D02*
X86013390Y-103851904D01*
X86013390Y-103851904D02*
X86584819Y-104423332D01*
X86584819Y-104423332D02*
X86584819Y-103804285D01*
X130284580Y-89616666D02*
X130332200Y-89664285D01*
X130332200Y-89664285D02*
X130379819Y-89807142D01*
X130379819Y-89807142D02*
X130379819Y-89902380D01*
X130379819Y-89902380D02*
X130332200Y-90045237D01*
X130332200Y-90045237D02*
X130236961Y-90140475D01*
X130236961Y-90140475D02*
X130141723Y-90188094D01*
X130141723Y-90188094D02*
X129951247Y-90235713D01*
X129951247Y-90235713D02*
X129808390Y-90235713D01*
X129808390Y-90235713D02*
X129617914Y-90188094D01*
X129617914Y-90188094D02*
X129522676Y-90140475D01*
X129522676Y-90140475D02*
X129427438Y-90045237D01*
X129427438Y-90045237D02*
X129379819Y-89902380D01*
X129379819Y-89902380D02*
X129379819Y-89807142D01*
X129379819Y-89807142D02*
X129427438Y-89664285D01*
X129427438Y-89664285D02*
X129475057Y-89616666D01*
X129808390Y-89045237D02*
X129760771Y-89140475D01*
X129760771Y-89140475D02*
X129713152Y-89188094D01*
X129713152Y-89188094D02*
X129617914Y-89235713D01*
X129617914Y-89235713D02*
X129570295Y-89235713D01*
X129570295Y-89235713D02*
X129475057Y-89188094D01*
X129475057Y-89188094D02*
X129427438Y-89140475D01*
X129427438Y-89140475D02*
X129379819Y-89045237D01*
X129379819Y-89045237D02*
X129379819Y-88854761D01*
X129379819Y-88854761D02*
X129427438Y-88759523D01*
X129427438Y-88759523D02*
X129475057Y-88711904D01*
X129475057Y-88711904D02*
X129570295Y-88664285D01*
X129570295Y-88664285D02*
X129617914Y-88664285D01*
X129617914Y-88664285D02*
X129713152Y-88711904D01*
X129713152Y-88711904D02*
X129760771Y-88759523D01*
X129760771Y-88759523D02*
X129808390Y-88854761D01*
X129808390Y-88854761D02*
X129808390Y-89045237D01*
X129808390Y-89045237D02*
X129856009Y-89140475D01*
X129856009Y-89140475D02*
X129903628Y-89188094D01*
X129903628Y-89188094D02*
X129998866Y-89235713D01*
X129998866Y-89235713D02*
X130189342Y-89235713D01*
X130189342Y-89235713D02*
X130284580Y-89188094D01*
X130284580Y-89188094D02*
X130332200Y-89140475D01*
X130332200Y-89140475D02*
X130379819Y-89045237D01*
X130379819Y-89045237D02*
X130379819Y-88854761D01*
X130379819Y-88854761D02*
X130332200Y-88759523D01*
X130332200Y-88759523D02*
X130284580Y-88711904D01*
X130284580Y-88711904D02*
X130189342Y-88664285D01*
X130189342Y-88664285D02*
X129998866Y-88664285D01*
X129998866Y-88664285D02*
X129903628Y-88711904D01*
X129903628Y-88711904D02*
X129856009Y-88759523D01*
X129856009Y-88759523D02*
X129808390Y-88854761D01*
X136949819Y-133016666D02*
X136473628Y-133349999D01*
X136949819Y-133588094D02*
X135949819Y-133588094D01*
X135949819Y-133588094D02*
X135949819Y-133207142D01*
X135949819Y-133207142D02*
X135997438Y-133111904D01*
X135997438Y-133111904D02*
X136045057Y-133064285D01*
X136045057Y-133064285D02*
X136140295Y-133016666D01*
X136140295Y-133016666D02*
X136283152Y-133016666D01*
X136283152Y-133016666D02*
X136378390Y-133064285D01*
X136378390Y-133064285D02*
X136426009Y-133111904D01*
X136426009Y-133111904D02*
X136473628Y-133207142D01*
X136473628Y-133207142D02*
X136473628Y-133588094D01*
X135949819Y-132159523D02*
X135949819Y-132349999D01*
X135949819Y-132349999D02*
X135997438Y-132445237D01*
X135997438Y-132445237D02*
X136045057Y-132492856D01*
X136045057Y-132492856D02*
X136187914Y-132588094D01*
X136187914Y-132588094D02*
X136378390Y-132635713D01*
X136378390Y-132635713D02*
X136759342Y-132635713D01*
X136759342Y-132635713D02*
X136854580Y-132588094D01*
X136854580Y-132588094D02*
X136902200Y-132540475D01*
X136902200Y-132540475D02*
X136949819Y-132445237D01*
X136949819Y-132445237D02*
X136949819Y-132254761D01*
X136949819Y-132254761D02*
X136902200Y-132159523D01*
X136902200Y-132159523D02*
X136854580Y-132111904D01*
X136854580Y-132111904D02*
X136759342Y-132064285D01*
X136759342Y-132064285D02*
X136521247Y-132064285D01*
X136521247Y-132064285D02*
X136426009Y-132111904D01*
X136426009Y-132111904D02*
X136378390Y-132159523D01*
X136378390Y-132159523D02*
X136330771Y-132254761D01*
X136330771Y-132254761D02*
X136330771Y-132445237D01*
X136330771Y-132445237D02*
X136378390Y-132540475D01*
X136378390Y-132540475D02*
X136426009Y-132588094D01*
X136426009Y-132588094D02*
X136521247Y-132635713D01*
X111199819Y-132191666D02*
X110723628Y-132524999D01*
X111199819Y-132763094D02*
X110199819Y-132763094D01*
X110199819Y-132763094D02*
X110199819Y-132382142D01*
X110199819Y-132382142D02*
X110247438Y-132286904D01*
X110247438Y-132286904D02*
X110295057Y-132239285D01*
X110295057Y-132239285D02*
X110390295Y-132191666D01*
X110390295Y-132191666D02*
X110533152Y-132191666D01*
X110533152Y-132191666D02*
X110628390Y-132239285D01*
X110628390Y-132239285D02*
X110676009Y-132286904D01*
X110676009Y-132286904D02*
X110723628Y-132382142D01*
X110723628Y-132382142D02*
X110723628Y-132763094D01*
X111199819Y-131715475D02*
X111199819Y-131524999D01*
X111199819Y-131524999D02*
X111152200Y-131429761D01*
X111152200Y-131429761D02*
X111104580Y-131382142D01*
X111104580Y-131382142D02*
X110961723Y-131286904D01*
X110961723Y-131286904D02*
X110771247Y-131239285D01*
X110771247Y-131239285D02*
X110390295Y-131239285D01*
X110390295Y-131239285D02*
X110295057Y-131286904D01*
X110295057Y-131286904D02*
X110247438Y-131334523D01*
X110247438Y-131334523D02*
X110199819Y-131429761D01*
X110199819Y-131429761D02*
X110199819Y-131620237D01*
X110199819Y-131620237D02*
X110247438Y-131715475D01*
X110247438Y-131715475D02*
X110295057Y-131763094D01*
X110295057Y-131763094D02*
X110390295Y-131810713D01*
X110390295Y-131810713D02*
X110628390Y-131810713D01*
X110628390Y-131810713D02*
X110723628Y-131763094D01*
X110723628Y-131763094D02*
X110771247Y-131715475D01*
X110771247Y-131715475D02*
X110818866Y-131620237D01*
X110818866Y-131620237D02*
X110818866Y-131429761D01*
X110818866Y-131429761D02*
X110771247Y-131334523D01*
X110771247Y-131334523D02*
X110723628Y-131286904D01*
X110723628Y-131286904D02*
X110628390Y-131239285D01*
X141184580Y-90267857D02*
X141232200Y-90315476D01*
X141232200Y-90315476D02*
X141279819Y-90458333D01*
X141279819Y-90458333D02*
X141279819Y-90553571D01*
X141279819Y-90553571D02*
X141232200Y-90696428D01*
X141232200Y-90696428D02*
X141136961Y-90791666D01*
X141136961Y-90791666D02*
X141041723Y-90839285D01*
X141041723Y-90839285D02*
X140851247Y-90886904D01*
X140851247Y-90886904D02*
X140708390Y-90886904D01*
X140708390Y-90886904D02*
X140517914Y-90839285D01*
X140517914Y-90839285D02*
X140422676Y-90791666D01*
X140422676Y-90791666D02*
X140327438Y-90696428D01*
X140327438Y-90696428D02*
X140279819Y-90553571D01*
X140279819Y-90553571D02*
X140279819Y-90458333D01*
X140279819Y-90458333D02*
X140327438Y-90315476D01*
X140327438Y-90315476D02*
X140375057Y-90267857D01*
X141279819Y-89315476D02*
X141279819Y-89886904D01*
X141279819Y-89601190D02*
X140279819Y-89601190D01*
X140279819Y-89601190D02*
X140422676Y-89696428D01*
X140422676Y-89696428D02*
X140517914Y-89791666D01*
X140517914Y-89791666D02*
X140565533Y-89886904D01*
X140279819Y-88696428D02*
X140279819Y-88601190D01*
X140279819Y-88601190D02*
X140327438Y-88505952D01*
X140327438Y-88505952D02*
X140375057Y-88458333D01*
X140375057Y-88458333D02*
X140470295Y-88410714D01*
X140470295Y-88410714D02*
X140660771Y-88363095D01*
X140660771Y-88363095D02*
X140898866Y-88363095D01*
X140898866Y-88363095D02*
X141089342Y-88410714D01*
X141089342Y-88410714D02*
X141184580Y-88458333D01*
X141184580Y-88458333D02*
X141232200Y-88505952D01*
X141232200Y-88505952D02*
X141279819Y-88601190D01*
X141279819Y-88601190D02*
X141279819Y-88696428D01*
X141279819Y-88696428D02*
X141232200Y-88791666D01*
X141232200Y-88791666D02*
X141184580Y-88839285D01*
X141184580Y-88839285D02*
X141089342Y-88886904D01*
X141089342Y-88886904D02*
X140898866Y-88934523D01*
X140898866Y-88934523D02*
X140660771Y-88934523D01*
X140660771Y-88934523D02*
X140470295Y-88886904D01*
X140470295Y-88886904D02*
X140375057Y-88839285D01*
X140375057Y-88839285D02*
X140327438Y-88791666D01*
X140327438Y-88791666D02*
X140279819Y-88696428D01*
X97074819Y-108866666D02*
X96598628Y-109199999D01*
X97074819Y-109438094D02*
X96074819Y-109438094D01*
X96074819Y-109438094D02*
X96074819Y-109057142D01*
X96074819Y-109057142D02*
X96122438Y-108961904D01*
X96122438Y-108961904D02*
X96170057Y-108914285D01*
X96170057Y-108914285D02*
X96265295Y-108866666D01*
X96265295Y-108866666D02*
X96408152Y-108866666D01*
X96408152Y-108866666D02*
X96503390Y-108914285D01*
X96503390Y-108914285D02*
X96551009Y-108961904D01*
X96551009Y-108961904D02*
X96598628Y-109057142D01*
X96598628Y-109057142D02*
X96598628Y-109438094D01*
X97074819Y-107914285D02*
X97074819Y-108485713D01*
X97074819Y-108199999D02*
X96074819Y-108199999D01*
X96074819Y-108199999D02*
X96217676Y-108295237D01*
X96217676Y-108295237D02*
X96312914Y-108390475D01*
X96312914Y-108390475D02*
X96360533Y-108485713D01*
X72953095Y-34512319D02*
X72953095Y-35321842D01*
X72953095Y-35321842D02*
X73000714Y-35417080D01*
X73000714Y-35417080D02*
X73048333Y-35464700D01*
X73048333Y-35464700D02*
X73143571Y-35512319D01*
X73143571Y-35512319D02*
X73334047Y-35512319D01*
X73334047Y-35512319D02*
X73429285Y-35464700D01*
X73429285Y-35464700D02*
X73476904Y-35417080D01*
X73476904Y-35417080D02*
X73524523Y-35321842D01*
X73524523Y-35321842D02*
X73524523Y-34512319D01*
X74429285Y-34845652D02*
X74429285Y-35512319D01*
X74191190Y-34464700D02*
X73953095Y-35178985D01*
X73953095Y-35178985D02*
X74572142Y-35178985D01*
X152909819Y-103176904D02*
X153719342Y-103176904D01*
X153719342Y-103176904D02*
X153814580Y-103129285D01*
X153814580Y-103129285D02*
X153862200Y-103081666D01*
X153862200Y-103081666D02*
X153909819Y-102986428D01*
X153909819Y-102986428D02*
X153909819Y-102795952D01*
X153909819Y-102795952D02*
X153862200Y-102700714D01*
X153862200Y-102700714D02*
X153814580Y-102653095D01*
X153814580Y-102653095D02*
X153719342Y-102605476D01*
X153719342Y-102605476D02*
X152909819Y-102605476D01*
X153005057Y-102176904D02*
X152957438Y-102129285D01*
X152957438Y-102129285D02*
X152909819Y-102034047D01*
X152909819Y-102034047D02*
X152909819Y-101795952D01*
X152909819Y-101795952D02*
X152957438Y-101700714D01*
X152957438Y-101700714D02*
X153005057Y-101653095D01*
X153005057Y-101653095D02*
X153100295Y-101605476D01*
X153100295Y-101605476D02*
X153195533Y-101605476D01*
X153195533Y-101605476D02*
X153338390Y-101653095D01*
X153338390Y-101653095D02*
X153909819Y-102224523D01*
X153909819Y-102224523D02*
X153909819Y-101605476D01*
X156733333Y-97349819D02*
X156400000Y-96873628D01*
X156161905Y-97349819D02*
X156161905Y-96349819D01*
X156161905Y-96349819D02*
X156542857Y-96349819D01*
X156542857Y-96349819D02*
X156638095Y-96397438D01*
X156638095Y-96397438D02*
X156685714Y-96445057D01*
X156685714Y-96445057D02*
X156733333Y-96540295D01*
X156733333Y-96540295D02*
X156733333Y-96683152D01*
X156733333Y-96683152D02*
X156685714Y-96778390D01*
X156685714Y-96778390D02*
X156638095Y-96826009D01*
X156638095Y-96826009D02*
X156542857Y-96873628D01*
X156542857Y-96873628D02*
X156161905Y-96873628D01*
X157114286Y-96445057D02*
X157161905Y-96397438D01*
X157161905Y-96397438D02*
X157257143Y-96349819D01*
X157257143Y-96349819D02*
X157495238Y-96349819D01*
X157495238Y-96349819D02*
X157590476Y-96397438D01*
X157590476Y-96397438D02*
X157638095Y-96445057D01*
X157638095Y-96445057D02*
X157685714Y-96540295D01*
X157685714Y-96540295D02*
X157685714Y-96635533D01*
X157685714Y-96635533D02*
X157638095Y-96778390D01*
X157638095Y-96778390D02*
X157066667Y-97349819D01*
X157066667Y-97349819D02*
X157685714Y-97349819D01*
X159130057Y-120365238D02*
X159082438Y-120460476D01*
X159082438Y-120460476D02*
X158987200Y-120555714D01*
X158987200Y-120555714D02*
X158844342Y-120698571D01*
X158844342Y-120698571D02*
X158796723Y-120793809D01*
X158796723Y-120793809D02*
X158796723Y-120889047D01*
X159034819Y-120841428D02*
X158987200Y-120936666D01*
X158987200Y-120936666D02*
X158891961Y-121031904D01*
X158891961Y-121031904D02*
X158701485Y-121079523D01*
X158701485Y-121079523D02*
X158368152Y-121079523D01*
X158368152Y-121079523D02*
X158177676Y-121031904D01*
X158177676Y-121031904D02*
X158082438Y-120936666D01*
X158082438Y-120936666D02*
X158034819Y-120841428D01*
X158034819Y-120841428D02*
X158034819Y-120650952D01*
X158034819Y-120650952D02*
X158082438Y-120555714D01*
X158082438Y-120555714D02*
X158177676Y-120460476D01*
X158177676Y-120460476D02*
X158368152Y-120412857D01*
X158368152Y-120412857D02*
X158701485Y-120412857D01*
X158701485Y-120412857D02*
X158891961Y-120460476D01*
X158891961Y-120460476D02*
X158987200Y-120555714D01*
X158987200Y-120555714D02*
X159034819Y-120650952D01*
X159034819Y-120650952D02*
X159034819Y-120841428D01*
X159034819Y-119460476D02*
X159034819Y-120031904D01*
X159034819Y-119746190D02*
X158034819Y-119746190D01*
X158034819Y-119746190D02*
X158177676Y-119841428D01*
X158177676Y-119841428D02*
X158272914Y-119936666D01*
X158272914Y-119936666D02*
X158320533Y-120031904D01*
X86134580Y-118191666D02*
X86182200Y-118239285D01*
X86182200Y-118239285D02*
X86229819Y-118382142D01*
X86229819Y-118382142D02*
X86229819Y-118477380D01*
X86229819Y-118477380D02*
X86182200Y-118620237D01*
X86182200Y-118620237D02*
X86086961Y-118715475D01*
X86086961Y-118715475D02*
X85991723Y-118763094D01*
X85991723Y-118763094D02*
X85801247Y-118810713D01*
X85801247Y-118810713D02*
X85658390Y-118810713D01*
X85658390Y-118810713D02*
X85467914Y-118763094D01*
X85467914Y-118763094D02*
X85372676Y-118715475D01*
X85372676Y-118715475D02*
X85277438Y-118620237D01*
X85277438Y-118620237D02*
X85229819Y-118477380D01*
X85229819Y-118477380D02*
X85229819Y-118382142D01*
X85229819Y-118382142D02*
X85277438Y-118239285D01*
X85277438Y-118239285D02*
X85325057Y-118191666D01*
X86229819Y-117239285D02*
X86229819Y-117810713D01*
X86229819Y-117524999D02*
X85229819Y-117524999D01*
X85229819Y-117524999D02*
X85372676Y-117620237D01*
X85372676Y-117620237D02*
X85467914Y-117715475D01*
X85467914Y-117715475D02*
X85515533Y-117810713D01*
X157484819Y-103117857D02*
X157008628Y-103451190D01*
X157484819Y-103689285D02*
X156484819Y-103689285D01*
X156484819Y-103689285D02*
X156484819Y-103308333D01*
X156484819Y-103308333D02*
X156532438Y-103213095D01*
X156532438Y-103213095D02*
X156580057Y-103165476D01*
X156580057Y-103165476D02*
X156675295Y-103117857D01*
X156675295Y-103117857D02*
X156818152Y-103117857D01*
X156818152Y-103117857D02*
X156913390Y-103165476D01*
X156913390Y-103165476D02*
X156961009Y-103213095D01*
X156961009Y-103213095D02*
X157008628Y-103308333D01*
X157008628Y-103308333D02*
X157008628Y-103689285D01*
X157484819Y-102165476D02*
X157484819Y-102736904D01*
X157484819Y-102451190D02*
X156484819Y-102451190D01*
X156484819Y-102451190D02*
X156627676Y-102546428D01*
X156627676Y-102546428D02*
X156722914Y-102641666D01*
X156722914Y-102641666D02*
X156770533Y-102736904D01*
X156484819Y-101546428D02*
X156484819Y-101451190D01*
X156484819Y-101451190D02*
X156532438Y-101355952D01*
X156532438Y-101355952D02*
X156580057Y-101308333D01*
X156580057Y-101308333D02*
X156675295Y-101260714D01*
X156675295Y-101260714D02*
X156865771Y-101213095D01*
X156865771Y-101213095D02*
X157103866Y-101213095D01*
X157103866Y-101213095D02*
X157294342Y-101260714D01*
X157294342Y-101260714D02*
X157389580Y-101308333D01*
X157389580Y-101308333D02*
X157437200Y-101355952D01*
X157437200Y-101355952D02*
X157484819Y-101451190D01*
X157484819Y-101451190D02*
X157484819Y-101546428D01*
X157484819Y-101546428D02*
X157437200Y-101641666D01*
X157437200Y-101641666D02*
X157389580Y-101689285D01*
X157389580Y-101689285D02*
X157294342Y-101736904D01*
X157294342Y-101736904D02*
X157103866Y-101784523D01*
X157103866Y-101784523D02*
X156865771Y-101784523D01*
X156865771Y-101784523D02*
X156675295Y-101736904D01*
X156675295Y-101736904D02*
X156580057Y-101689285D01*
X156580057Y-101689285D02*
X156532438Y-101641666D01*
X156532438Y-101641666D02*
X156484819Y-101546428D01*
X127929819Y-122188094D02*
X126929819Y-122188094D01*
X126929819Y-122188094D02*
X126929819Y-121949999D01*
X126929819Y-121949999D02*
X126977438Y-121807142D01*
X126977438Y-121807142D02*
X127072676Y-121711904D01*
X127072676Y-121711904D02*
X127167914Y-121664285D01*
X127167914Y-121664285D02*
X127358390Y-121616666D01*
X127358390Y-121616666D02*
X127501247Y-121616666D01*
X127501247Y-121616666D02*
X127691723Y-121664285D01*
X127691723Y-121664285D02*
X127786961Y-121711904D01*
X127786961Y-121711904D02*
X127882200Y-121807142D01*
X127882200Y-121807142D02*
X127929819Y-121949999D01*
X127929819Y-121949999D02*
X127929819Y-122188094D01*
X127263152Y-120759523D02*
X127929819Y-120759523D01*
X126882200Y-120997618D02*
X127596485Y-121235713D01*
X127596485Y-121235713D02*
X127596485Y-120616666D01*
X172931009Y-99380952D02*
X172978628Y-99238095D01*
X172978628Y-99238095D02*
X173026247Y-99190476D01*
X173026247Y-99190476D02*
X173121485Y-99142857D01*
X173121485Y-99142857D02*
X173264342Y-99142857D01*
X173264342Y-99142857D02*
X173359580Y-99190476D01*
X173359580Y-99190476D02*
X173407200Y-99238095D01*
X173407200Y-99238095D02*
X173454819Y-99333333D01*
X173454819Y-99333333D02*
X173454819Y-99714285D01*
X173454819Y-99714285D02*
X172454819Y-99714285D01*
X172454819Y-99714285D02*
X172454819Y-99380952D01*
X172454819Y-99380952D02*
X172502438Y-99285714D01*
X172502438Y-99285714D02*
X172550057Y-99238095D01*
X172550057Y-99238095D02*
X172645295Y-99190476D01*
X172645295Y-99190476D02*
X172740533Y-99190476D01*
X172740533Y-99190476D02*
X172835771Y-99238095D01*
X172835771Y-99238095D02*
X172883390Y-99285714D01*
X172883390Y-99285714D02*
X172931009Y-99380952D01*
X172931009Y-99380952D02*
X172931009Y-99714285D01*
X172454819Y-98809523D02*
X172454819Y-98142857D01*
X172454819Y-98142857D02*
X173454819Y-98809523D01*
X173454819Y-98809523D02*
X173454819Y-98142857D01*
X173454819Y-97238095D02*
X173454819Y-97809523D01*
X173454819Y-97523809D02*
X172454819Y-97523809D01*
X172454819Y-97523809D02*
X172597676Y-97619047D01*
X172597676Y-97619047D02*
X172692914Y-97714285D01*
X172692914Y-97714285D02*
X172740533Y-97809523D01*
X177733866Y-102690951D02*
X177733866Y-101929047D01*
X178114819Y-102309999D02*
X177352914Y-102309999D01*
X194729819Y-114858333D02*
X195444104Y-114858333D01*
X195444104Y-114858333D02*
X195586961Y-114905952D01*
X195586961Y-114905952D02*
X195682200Y-115001190D01*
X195682200Y-115001190D02*
X195729819Y-115144047D01*
X195729819Y-115144047D02*
X195729819Y-115239285D01*
X194825057Y-114429761D02*
X194777438Y-114382142D01*
X194777438Y-114382142D02*
X194729819Y-114286904D01*
X194729819Y-114286904D02*
X194729819Y-114048809D01*
X194729819Y-114048809D02*
X194777438Y-113953571D01*
X194777438Y-113953571D02*
X194825057Y-113905952D01*
X194825057Y-113905952D02*
X194920295Y-113858333D01*
X194920295Y-113858333D02*
X195015533Y-113858333D01*
X195015533Y-113858333D02*
X195158390Y-113905952D01*
X195158390Y-113905952D02*
X195729819Y-114477380D01*
X195729819Y-114477380D02*
X195729819Y-113858333D01*
X79526009Y-122458333D02*
X79526009Y-122791666D01*
X80049819Y-122791666D02*
X79049819Y-122791666D01*
X79049819Y-122791666D02*
X79049819Y-122315476D01*
X79526009Y-121601190D02*
X79573628Y-121458333D01*
X79573628Y-121458333D02*
X79621247Y-121410714D01*
X79621247Y-121410714D02*
X79716485Y-121363095D01*
X79716485Y-121363095D02*
X79859342Y-121363095D01*
X79859342Y-121363095D02*
X79954580Y-121410714D01*
X79954580Y-121410714D02*
X80002200Y-121458333D01*
X80002200Y-121458333D02*
X80049819Y-121553571D01*
X80049819Y-121553571D02*
X80049819Y-121934523D01*
X80049819Y-121934523D02*
X79049819Y-121934523D01*
X79049819Y-121934523D02*
X79049819Y-121601190D01*
X79049819Y-121601190D02*
X79097438Y-121505952D01*
X79097438Y-121505952D02*
X79145057Y-121458333D01*
X79145057Y-121458333D02*
X79240295Y-121410714D01*
X79240295Y-121410714D02*
X79335533Y-121410714D01*
X79335533Y-121410714D02*
X79430771Y-121458333D01*
X79430771Y-121458333D02*
X79478390Y-121505952D01*
X79478390Y-121505952D02*
X79526009Y-121601190D01*
X79526009Y-121601190D02*
X79526009Y-121934523D01*
X80049819Y-120410714D02*
X80049819Y-120982142D01*
X80049819Y-120696428D02*
X79049819Y-120696428D01*
X79049819Y-120696428D02*
X79192676Y-120791666D01*
X79192676Y-120791666D02*
X79287914Y-120886904D01*
X79287914Y-120886904D02*
X79335533Y-120982142D01*
X144399819Y-133191666D02*
X143923628Y-133524999D01*
X144399819Y-133763094D02*
X143399819Y-133763094D01*
X143399819Y-133763094D02*
X143399819Y-133382142D01*
X143399819Y-133382142D02*
X143447438Y-133286904D01*
X143447438Y-133286904D02*
X143495057Y-133239285D01*
X143495057Y-133239285D02*
X143590295Y-133191666D01*
X143590295Y-133191666D02*
X143733152Y-133191666D01*
X143733152Y-133191666D02*
X143828390Y-133239285D01*
X143828390Y-133239285D02*
X143876009Y-133286904D01*
X143876009Y-133286904D02*
X143923628Y-133382142D01*
X143923628Y-133382142D02*
X143923628Y-133763094D01*
X143399819Y-132286904D02*
X143399819Y-132763094D01*
X143399819Y-132763094D02*
X143876009Y-132810713D01*
X143876009Y-132810713D02*
X143828390Y-132763094D01*
X143828390Y-132763094D02*
X143780771Y-132667856D01*
X143780771Y-132667856D02*
X143780771Y-132429761D01*
X143780771Y-132429761D02*
X143828390Y-132334523D01*
X143828390Y-132334523D02*
X143876009Y-132286904D01*
X143876009Y-132286904D02*
X143971247Y-132239285D01*
X143971247Y-132239285D02*
X144209342Y-132239285D01*
X144209342Y-132239285D02*
X144304580Y-132286904D01*
X144304580Y-132286904D02*
X144352200Y-132334523D01*
X144352200Y-132334523D02*
X144399819Y-132429761D01*
X144399819Y-132429761D02*
X144399819Y-132667856D01*
X144399819Y-132667856D02*
X144352200Y-132763094D01*
X144352200Y-132763094D02*
X144304580Y-132810713D01*
X65438095Y-34779819D02*
X65438095Y-33779819D01*
X65438095Y-34256009D02*
X66009523Y-34256009D01*
X66009523Y-34779819D02*
X66009523Y-33779819D01*
X66914285Y-34113152D02*
X66914285Y-34779819D01*
X66676190Y-33732200D02*
X66438095Y-34446485D01*
X66438095Y-34446485D02*
X67057142Y-34446485D01*
X76876667Y-124442200D02*
X77019524Y-124489819D01*
X77019524Y-124489819D02*
X77257619Y-124489819D01*
X77257619Y-124489819D02*
X77352857Y-124442200D01*
X77352857Y-124442200D02*
X77400476Y-124394580D01*
X77400476Y-124394580D02*
X77448095Y-124299342D01*
X77448095Y-124299342D02*
X77448095Y-124204104D01*
X77448095Y-124204104D02*
X77400476Y-124108866D01*
X77400476Y-124108866D02*
X77352857Y-124061247D01*
X77352857Y-124061247D02*
X77257619Y-124013628D01*
X77257619Y-124013628D02*
X77067143Y-123966009D01*
X77067143Y-123966009D02*
X76971905Y-123918390D01*
X76971905Y-123918390D02*
X76924286Y-123870771D01*
X76924286Y-123870771D02*
X76876667Y-123775533D01*
X76876667Y-123775533D02*
X76876667Y-123680295D01*
X76876667Y-123680295D02*
X76924286Y-123585057D01*
X76924286Y-123585057D02*
X76971905Y-123537438D01*
X76971905Y-123537438D02*
X77067143Y-123489819D01*
X77067143Y-123489819D02*
X77305238Y-123489819D01*
X77305238Y-123489819D02*
X77448095Y-123537438D01*
X77781429Y-123489819D02*
X78019524Y-124489819D01*
X78019524Y-124489819D02*
X78210000Y-123775533D01*
X78210000Y-123775533D02*
X78400476Y-124489819D01*
X78400476Y-124489819D02*
X78638572Y-123489819D01*
X78924286Y-123489819D02*
X79543333Y-123489819D01*
X79543333Y-123489819D02*
X79210000Y-123870771D01*
X79210000Y-123870771D02*
X79352857Y-123870771D01*
X79352857Y-123870771D02*
X79448095Y-123918390D01*
X79448095Y-123918390D02*
X79495714Y-123966009D01*
X79495714Y-123966009D02*
X79543333Y-124061247D01*
X79543333Y-124061247D02*
X79543333Y-124299342D01*
X79543333Y-124299342D02*
X79495714Y-124394580D01*
X79495714Y-124394580D02*
X79448095Y-124442200D01*
X79448095Y-124442200D02*
X79352857Y-124489819D01*
X79352857Y-124489819D02*
X79067143Y-124489819D01*
X79067143Y-124489819D02*
X78971905Y-124442200D01*
X78971905Y-124442200D02*
X78924286Y-124394580D01*
X129574819Y-132856666D02*
X129098628Y-133189999D01*
X129574819Y-133428094D02*
X128574819Y-133428094D01*
X128574819Y-133428094D02*
X128574819Y-133047142D01*
X128574819Y-133047142D02*
X128622438Y-132951904D01*
X128622438Y-132951904D02*
X128670057Y-132904285D01*
X128670057Y-132904285D02*
X128765295Y-132856666D01*
X128765295Y-132856666D02*
X128908152Y-132856666D01*
X128908152Y-132856666D02*
X129003390Y-132904285D01*
X129003390Y-132904285D02*
X129051009Y-132951904D01*
X129051009Y-132951904D02*
X129098628Y-133047142D01*
X129098628Y-133047142D02*
X129098628Y-133428094D01*
X128574819Y-132523332D02*
X128574819Y-131856666D01*
X128574819Y-131856666D02*
X129574819Y-132285237D01*
X192288095Y-144229819D02*
X192288095Y-143229819D01*
X192288095Y-143706009D02*
X192859523Y-143706009D01*
X192859523Y-144229819D02*
X192859523Y-143229819D01*
X193240476Y-143229819D02*
X193859523Y-143229819D01*
X193859523Y-143229819D02*
X193526190Y-143610771D01*
X193526190Y-143610771D02*
X193669047Y-143610771D01*
X193669047Y-143610771D02*
X193764285Y-143658390D01*
X193764285Y-143658390D02*
X193811904Y-143706009D01*
X193811904Y-143706009D02*
X193859523Y-143801247D01*
X193859523Y-143801247D02*
X193859523Y-144039342D01*
X193859523Y-144039342D02*
X193811904Y-144134580D01*
X193811904Y-144134580D02*
X193764285Y-144182200D01*
X193764285Y-144182200D02*
X193669047Y-144229819D01*
X193669047Y-144229819D02*
X193383333Y-144229819D01*
X193383333Y-144229819D02*
X193288095Y-144182200D01*
X193288095Y-144182200D02*
X193240476Y-144134580D01*
X164804819Y-122995594D02*
X163804819Y-122995594D01*
X164804819Y-122424166D02*
X164233390Y-122852737D01*
X163804819Y-122424166D02*
X164376247Y-122995594D01*
X164804819Y-121471785D02*
X164804819Y-122043213D01*
X164804819Y-121757499D02*
X163804819Y-121757499D01*
X163804819Y-121757499D02*
X163947676Y-121852737D01*
X163947676Y-121852737D02*
X164042914Y-121947975D01*
X164042914Y-121947975D02*
X164090533Y-122043213D01*
X142729819Y-122638094D02*
X141729819Y-122638094D01*
X141729819Y-122638094D02*
X141729819Y-122399999D01*
X141729819Y-122399999D02*
X141777438Y-122257142D01*
X141777438Y-122257142D02*
X141872676Y-122161904D01*
X141872676Y-122161904D02*
X141967914Y-122114285D01*
X141967914Y-122114285D02*
X142158390Y-122066666D01*
X142158390Y-122066666D02*
X142301247Y-122066666D01*
X142301247Y-122066666D02*
X142491723Y-122114285D01*
X142491723Y-122114285D02*
X142586961Y-122161904D01*
X142586961Y-122161904D02*
X142682200Y-122257142D01*
X142682200Y-122257142D02*
X142729819Y-122399999D01*
X142729819Y-122399999D02*
X142729819Y-122638094D01*
X141825057Y-121685713D02*
X141777438Y-121638094D01*
X141777438Y-121638094D02*
X141729819Y-121542856D01*
X141729819Y-121542856D02*
X141729819Y-121304761D01*
X141729819Y-121304761D02*
X141777438Y-121209523D01*
X141777438Y-121209523D02*
X141825057Y-121161904D01*
X141825057Y-121161904D02*
X141920295Y-121114285D01*
X141920295Y-121114285D02*
X142015533Y-121114285D01*
X142015533Y-121114285D02*
X142158390Y-121161904D01*
X142158390Y-121161904D02*
X142729819Y-121733332D01*
X142729819Y-121733332D02*
X142729819Y-121114285D01*
X113206667Y-137897200D02*
X113349524Y-137944819D01*
X113349524Y-137944819D02*
X113587619Y-137944819D01*
X113587619Y-137944819D02*
X113682857Y-137897200D01*
X113682857Y-137897200D02*
X113730476Y-137849580D01*
X113730476Y-137849580D02*
X113778095Y-137754342D01*
X113778095Y-137754342D02*
X113778095Y-137659104D01*
X113778095Y-137659104D02*
X113730476Y-137563866D01*
X113730476Y-137563866D02*
X113682857Y-137516247D01*
X113682857Y-137516247D02*
X113587619Y-137468628D01*
X113587619Y-137468628D02*
X113397143Y-137421009D01*
X113397143Y-137421009D02*
X113301905Y-137373390D01*
X113301905Y-137373390D02*
X113254286Y-137325771D01*
X113254286Y-137325771D02*
X113206667Y-137230533D01*
X113206667Y-137230533D02*
X113206667Y-137135295D01*
X113206667Y-137135295D02*
X113254286Y-137040057D01*
X113254286Y-137040057D02*
X113301905Y-136992438D01*
X113301905Y-136992438D02*
X113397143Y-136944819D01*
X113397143Y-136944819D02*
X113635238Y-136944819D01*
X113635238Y-136944819D02*
X113778095Y-136992438D01*
X114111429Y-136944819D02*
X114349524Y-137944819D01*
X114349524Y-137944819D02*
X114540000Y-137230533D01*
X114540000Y-137230533D02*
X114730476Y-137944819D01*
X114730476Y-137944819D02*
X114968572Y-136944819D01*
X115778095Y-137278152D02*
X115778095Y-137944819D01*
X115540000Y-136897200D02*
X115301905Y-137611485D01*
X115301905Y-137611485D02*
X115920952Y-137611485D01*
X162465057Y-100420238D02*
X162417438Y-100515476D01*
X162417438Y-100515476D02*
X162322200Y-100610714D01*
X162322200Y-100610714D02*
X162179342Y-100753571D01*
X162179342Y-100753571D02*
X162131723Y-100848809D01*
X162131723Y-100848809D02*
X162131723Y-100944047D01*
X162369819Y-100896428D02*
X162322200Y-100991666D01*
X162322200Y-100991666D02*
X162226961Y-101086904D01*
X162226961Y-101086904D02*
X162036485Y-101134523D01*
X162036485Y-101134523D02*
X161703152Y-101134523D01*
X161703152Y-101134523D02*
X161512676Y-101086904D01*
X161512676Y-101086904D02*
X161417438Y-100991666D01*
X161417438Y-100991666D02*
X161369819Y-100896428D01*
X161369819Y-100896428D02*
X161369819Y-100705952D01*
X161369819Y-100705952D02*
X161417438Y-100610714D01*
X161417438Y-100610714D02*
X161512676Y-100515476D01*
X161512676Y-100515476D02*
X161703152Y-100467857D01*
X161703152Y-100467857D02*
X162036485Y-100467857D01*
X162036485Y-100467857D02*
X162226961Y-100515476D01*
X162226961Y-100515476D02*
X162322200Y-100610714D01*
X162322200Y-100610714D02*
X162369819Y-100705952D01*
X162369819Y-100705952D02*
X162369819Y-100896428D01*
X161465057Y-100086904D02*
X161417438Y-100039285D01*
X161417438Y-100039285D02*
X161369819Y-99944047D01*
X161369819Y-99944047D02*
X161369819Y-99705952D01*
X161369819Y-99705952D02*
X161417438Y-99610714D01*
X161417438Y-99610714D02*
X161465057Y-99563095D01*
X161465057Y-99563095D02*
X161560295Y-99515476D01*
X161560295Y-99515476D02*
X161655533Y-99515476D01*
X161655533Y-99515476D02*
X161798390Y-99563095D01*
X161798390Y-99563095D02*
X162369819Y-100134523D01*
X162369819Y-100134523D02*
X162369819Y-99515476D01*
X77366666Y-144779819D02*
X77366666Y-145494104D01*
X77366666Y-145494104D02*
X77319047Y-145636961D01*
X77319047Y-145636961D02*
X77223809Y-145732200D01*
X77223809Y-145732200D02*
X77080952Y-145779819D01*
X77080952Y-145779819D02*
X76985714Y-145779819D01*
X78366666Y-145779819D02*
X77795238Y-145779819D01*
X78080952Y-145779819D02*
X78080952Y-144779819D01*
X78080952Y-144779819D02*
X77985714Y-144922676D01*
X77985714Y-144922676D02*
X77890476Y-145017914D01*
X77890476Y-145017914D02*
X77795238Y-145065533D01*
X126784580Y-81976666D02*
X126832200Y-82024285D01*
X126832200Y-82024285D02*
X126879819Y-82167142D01*
X126879819Y-82167142D02*
X126879819Y-82262380D01*
X126879819Y-82262380D02*
X126832200Y-82405237D01*
X126832200Y-82405237D02*
X126736961Y-82500475D01*
X126736961Y-82500475D02*
X126641723Y-82548094D01*
X126641723Y-82548094D02*
X126451247Y-82595713D01*
X126451247Y-82595713D02*
X126308390Y-82595713D01*
X126308390Y-82595713D02*
X126117914Y-82548094D01*
X126117914Y-82548094D02*
X126022676Y-82500475D01*
X126022676Y-82500475D02*
X125927438Y-82405237D01*
X125927438Y-82405237D02*
X125879819Y-82262380D01*
X125879819Y-82262380D02*
X125879819Y-82167142D01*
X125879819Y-82167142D02*
X125927438Y-82024285D01*
X125927438Y-82024285D02*
X125975057Y-81976666D01*
X126213152Y-81119523D02*
X126879819Y-81119523D01*
X125832200Y-81357618D02*
X126546485Y-81595713D01*
X126546485Y-81595713D02*
X126546485Y-80976666D01*
X193388095Y-34129819D02*
X193388095Y-33129819D01*
X193388095Y-33606009D02*
X193959523Y-33606009D01*
X193959523Y-34129819D02*
X193959523Y-33129819D01*
X194959523Y-34129819D02*
X194388095Y-34129819D01*
X194673809Y-34129819D02*
X194673809Y-33129819D01*
X194673809Y-33129819D02*
X194578571Y-33272676D01*
X194578571Y-33272676D02*
X194483333Y-33367914D01*
X194483333Y-33367914D02*
X194388095Y-33415533D01*
X66313095Y-144029819D02*
X66313095Y-143029819D01*
X66313095Y-143506009D02*
X66884523Y-143506009D01*
X66884523Y-144029819D02*
X66884523Y-143029819D01*
X67313095Y-143125057D02*
X67360714Y-143077438D01*
X67360714Y-143077438D02*
X67455952Y-143029819D01*
X67455952Y-143029819D02*
X67694047Y-143029819D01*
X67694047Y-143029819D02*
X67789285Y-143077438D01*
X67789285Y-143077438D02*
X67836904Y-143125057D01*
X67836904Y-143125057D02*
X67884523Y-143220295D01*
X67884523Y-143220295D02*
X67884523Y-143315533D01*
X67884523Y-143315533D02*
X67836904Y-143458390D01*
X67836904Y-143458390D02*
X67265476Y-144029819D01*
X67265476Y-144029819D02*
X67884523Y-144029819D01*
X112784580Y-82101666D02*
X112832200Y-82149285D01*
X112832200Y-82149285D02*
X112879819Y-82292142D01*
X112879819Y-82292142D02*
X112879819Y-82387380D01*
X112879819Y-82387380D02*
X112832200Y-82530237D01*
X112832200Y-82530237D02*
X112736961Y-82625475D01*
X112736961Y-82625475D02*
X112641723Y-82673094D01*
X112641723Y-82673094D02*
X112451247Y-82720713D01*
X112451247Y-82720713D02*
X112308390Y-82720713D01*
X112308390Y-82720713D02*
X112117914Y-82673094D01*
X112117914Y-82673094D02*
X112022676Y-82625475D01*
X112022676Y-82625475D02*
X111927438Y-82530237D01*
X111927438Y-82530237D02*
X111879819Y-82387380D01*
X111879819Y-82387380D02*
X111879819Y-82292142D01*
X111879819Y-82292142D02*
X111927438Y-82149285D01*
X111927438Y-82149285D02*
X111975057Y-82101666D01*
X111879819Y-81196904D02*
X111879819Y-81673094D01*
X111879819Y-81673094D02*
X112356009Y-81720713D01*
X112356009Y-81720713D02*
X112308390Y-81673094D01*
X112308390Y-81673094D02*
X112260771Y-81577856D01*
X112260771Y-81577856D02*
X112260771Y-81339761D01*
X112260771Y-81339761D02*
X112308390Y-81244523D01*
X112308390Y-81244523D02*
X112356009Y-81196904D01*
X112356009Y-81196904D02*
X112451247Y-81149285D01*
X112451247Y-81149285D02*
X112689342Y-81149285D01*
X112689342Y-81149285D02*
X112784580Y-81196904D01*
X112784580Y-81196904D02*
X112832200Y-81244523D01*
X112832200Y-81244523D02*
X112879819Y-81339761D01*
X112879819Y-81339761D02*
X112879819Y-81577856D01*
X112879819Y-81577856D02*
X112832200Y-81673094D01*
X112832200Y-81673094D02*
X112784580Y-81720713D01*
X118998809Y-82678628D02*
X118998809Y-83154819D01*
X118665476Y-82154819D02*
X118998809Y-82678628D01*
X118998809Y-82678628D02*
X119332142Y-82154819D01*
X120189285Y-83154819D02*
X119617857Y-83154819D01*
X119903571Y-83154819D02*
X119903571Y-82154819D01*
X119903571Y-82154819D02*
X119808333Y-82297676D01*
X119808333Y-82297676D02*
X119713095Y-82392914D01*
X119713095Y-82392914D02*
X119617857Y-82440533D01*
X176666666Y-135609819D02*
X176666666Y-136324104D01*
X176666666Y-136324104D02*
X176619047Y-136466961D01*
X176619047Y-136466961D02*
X176523809Y-136562200D01*
X176523809Y-136562200D02*
X176380952Y-136609819D01*
X176380952Y-136609819D02*
X176285714Y-136609819D01*
X177047619Y-135609819D02*
X177666666Y-135609819D01*
X177666666Y-135609819D02*
X177333333Y-135990771D01*
X177333333Y-135990771D02*
X177476190Y-135990771D01*
X177476190Y-135990771D02*
X177571428Y-136038390D01*
X177571428Y-136038390D02*
X177619047Y-136086009D01*
X177619047Y-136086009D02*
X177666666Y-136181247D01*
X177666666Y-136181247D02*
X177666666Y-136419342D01*
X177666666Y-136419342D02*
X177619047Y-136514580D01*
X177619047Y-136514580D02*
X177571428Y-136562200D01*
X177571428Y-136562200D02*
X177476190Y-136609819D01*
X177476190Y-136609819D02*
X177190476Y-136609819D01*
X177190476Y-136609819D02*
X177095238Y-136562200D01*
X177095238Y-136562200D02*
X177047619Y-136514580D01*
X76014819Y-100466904D02*
X76824342Y-100466904D01*
X76824342Y-100466904D02*
X76919580Y-100419285D01*
X76919580Y-100419285D02*
X76967200Y-100371666D01*
X76967200Y-100371666D02*
X77014819Y-100276428D01*
X77014819Y-100276428D02*
X77014819Y-100085952D01*
X77014819Y-100085952D02*
X76967200Y-99990714D01*
X76967200Y-99990714D02*
X76919580Y-99943095D01*
X76919580Y-99943095D02*
X76824342Y-99895476D01*
X76824342Y-99895476D02*
X76014819Y-99895476D01*
X77014819Y-98895476D02*
X77014819Y-99466904D01*
X77014819Y-99181190D02*
X76014819Y-99181190D01*
X76014819Y-99181190D02*
X76157676Y-99276428D01*
X76157676Y-99276428D02*
X76252914Y-99371666D01*
X76252914Y-99371666D02*
X76300533Y-99466904D01*
X110179819Y-122188094D02*
X109179819Y-122188094D01*
X109179819Y-122188094D02*
X109179819Y-121949999D01*
X109179819Y-121949999D02*
X109227438Y-121807142D01*
X109227438Y-121807142D02*
X109322676Y-121711904D01*
X109322676Y-121711904D02*
X109417914Y-121664285D01*
X109417914Y-121664285D02*
X109608390Y-121616666D01*
X109608390Y-121616666D02*
X109751247Y-121616666D01*
X109751247Y-121616666D02*
X109941723Y-121664285D01*
X109941723Y-121664285D02*
X110036961Y-121711904D01*
X110036961Y-121711904D02*
X110132200Y-121807142D01*
X110132200Y-121807142D02*
X110179819Y-121949999D01*
X110179819Y-121949999D02*
X110179819Y-122188094D01*
X109179819Y-120759523D02*
X109179819Y-120949999D01*
X109179819Y-120949999D02*
X109227438Y-121045237D01*
X109227438Y-121045237D02*
X109275057Y-121092856D01*
X109275057Y-121092856D02*
X109417914Y-121188094D01*
X109417914Y-121188094D02*
X109608390Y-121235713D01*
X109608390Y-121235713D02*
X109989342Y-121235713D01*
X109989342Y-121235713D02*
X110084580Y-121188094D01*
X110084580Y-121188094D02*
X110132200Y-121140475D01*
X110132200Y-121140475D02*
X110179819Y-121045237D01*
X110179819Y-121045237D02*
X110179819Y-120854761D01*
X110179819Y-120854761D02*
X110132200Y-120759523D01*
X110132200Y-120759523D02*
X110084580Y-120711904D01*
X110084580Y-120711904D02*
X109989342Y-120664285D01*
X109989342Y-120664285D02*
X109751247Y-120664285D01*
X109751247Y-120664285D02*
X109656009Y-120711904D01*
X109656009Y-120711904D02*
X109608390Y-120759523D01*
X109608390Y-120759523D02*
X109560771Y-120854761D01*
X109560771Y-120854761D02*
X109560771Y-121045237D01*
X109560771Y-121045237D02*
X109608390Y-121140475D01*
X109608390Y-121140475D02*
X109656009Y-121188094D01*
X109656009Y-121188094D02*
X109751247Y-121235713D01*
X81666667Y-83487200D02*
X81809524Y-83534819D01*
X81809524Y-83534819D02*
X82047619Y-83534819D01*
X82047619Y-83534819D02*
X82142857Y-83487200D01*
X82142857Y-83487200D02*
X82190476Y-83439580D01*
X82190476Y-83439580D02*
X82238095Y-83344342D01*
X82238095Y-83344342D02*
X82238095Y-83249104D01*
X82238095Y-83249104D02*
X82190476Y-83153866D01*
X82190476Y-83153866D02*
X82142857Y-83106247D01*
X82142857Y-83106247D02*
X82047619Y-83058628D01*
X82047619Y-83058628D02*
X81857143Y-83011009D01*
X81857143Y-83011009D02*
X81761905Y-82963390D01*
X81761905Y-82963390D02*
X81714286Y-82915771D01*
X81714286Y-82915771D02*
X81666667Y-82820533D01*
X81666667Y-82820533D02*
X81666667Y-82725295D01*
X81666667Y-82725295D02*
X81714286Y-82630057D01*
X81714286Y-82630057D02*
X81761905Y-82582438D01*
X81761905Y-82582438D02*
X81857143Y-82534819D01*
X81857143Y-82534819D02*
X82095238Y-82534819D01*
X82095238Y-82534819D02*
X82238095Y-82582438D01*
X82571429Y-82534819D02*
X82809524Y-83534819D01*
X82809524Y-83534819D02*
X83000000Y-82820533D01*
X83000000Y-82820533D02*
X83190476Y-83534819D01*
X83190476Y-83534819D02*
X83428572Y-82534819D01*
X84333333Y-83534819D02*
X83761905Y-83534819D01*
X84047619Y-83534819D02*
X84047619Y-82534819D01*
X84047619Y-82534819D02*
X83952381Y-82677676D01*
X83952381Y-82677676D02*
X83857143Y-82772914D01*
X83857143Y-82772914D02*
X83761905Y-82820533D01*
X134854819Y-122263094D02*
X133854819Y-122263094D01*
X133854819Y-122263094D02*
X133854819Y-122024999D01*
X133854819Y-122024999D02*
X133902438Y-121882142D01*
X133902438Y-121882142D02*
X133997676Y-121786904D01*
X133997676Y-121786904D02*
X134092914Y-121739285D01*
X134092914Y-121739285D02*
X134283390Y-121691666D01*
X134283390Y-121691666D02*
X134426247Y-121691666D01*
X134426247Y-121691666D02*
X134616723Y-121739285D01*
X134616723Y-121739285D02*
X134711961Y-121786904D01*
X134711961Y-121786904D02*
X134807200Y-121882142D01*
X134807200Y-121882142D02*
X134854819Y-122024999D01*
X134854819Y-122024999D02*
X134854819Y-122263094D01*
X133854819Y-121358332D02*
X133854819Y-120739285D01*
X133854819Y-120739285D02*
X134235771Y-121072618D01*
X134235771Y-121072618D02*
X134235771Y-120929761D01*
X134235771Y-120929761D02*
X134283390Y-120834523D01*
X134283390Y-120834523D02*
X134331009Y-120786904D01*
X134331009Y-120786904D02*
X134426247Y-120739285D01*
X134426247Y-120739285D02*
X134664342Y-120739285D01*
X134664342Y-120739285D02*
X134759580Y-120786904D01*
X134759580Y-120786904D02*
X134807200Y-120834523D01*
X134807200Y-120834523D02*
X134854819Y-120929761D01*
X134854819Y-120929761D02*
X134854819Y-121215475D01*
X134854819Y-121215475D02*
X134807200Y-121310713D01*
X134807200Y-121310713D02*
X134759580Y-121358332D01*
X76034819Y-113976904D02*
X76844342Y-113976904D01*
X76844342Y-113976904D02*
X76939580Y-113929285D01*
X76939580Y-113929285D02*
X76987200Y-113881666D01*
X76987200Y-113881666D02*
X77034819Y-113786428D01*
X77034819Y-113786428D02*
X77034819Y-113595952D01*
X77034819Y-113595952D02*
X76987200Y-113500714D01*
X76987200Y-113500714D02*
X76939580Y-113453095D01*
X76939580Y-113453095D02*
X76844342Y-113405476D01*
X76844342Y-113405476D02*
X76034819Y-113405476D01*
X76034819Y-113024523D02*
X76034819Y-112405476D01*
X76034819Y-112405476D02*
X76415771Y-112738809D01*
X76415771Y-112738809D02*
X76415771Y-112595952D01*
X76415771Y-112595952D02*
X76463390Y-112500714D01*
X76463390Y-112500714D02*
X76511009Y-112453095D01*
X76511009Y-112453095D02*
X76606247Y-112405476D01*
X76606247Y-112405476D02*
X76844342Y-112405476D01*
X76844342Y-112405476D02*
X76939580Y-112453095D01*
X76939580Y-112453095D02*
X76987200Y-112500714D01*
X76987200Y-112500714D02*
X77034819Y-112595952D01*
X77034819Y-112595952D02*
X77034819Y-112881666D01*
X77034819Y-112881666D02*
X76987200Y-112976904D01*
X76987200Y-112976904D02*
X76939580Y-113024523D01*
X129383333Y-116409580D02*
X129335714Y-116457200D01*
X129335714Y-116457200D02*
X129192857Y-116504819D01*
X129192857Y-116504819D02*
X129097619Y-116504819D01*
X129097619Y-116504819D02*
X128954762Y-116457200D01*
X128954762Y-116457200D02*
X128859524Y-116361961D01*
X128859524Y-116361961D02*
X128811905Y-116266723D01*
X128811905Y-116266723D02*
X128764286Y-116076247D01*
X128764286Y-116076247D02*
X128764286Y-115933390D01*
X128764286Y-115933390D02*
X128811905Y-115742914D01*
X128811905Y-115742914D02*
X128859524Y-115647676D01*
X128859524Y-115647676D02*
X128954762Y-115552438D01*
X128954762Y-115552438D02*
X129097619Y-115504819D01*
X129097619Y-115504819D02*
X129192857Y-115504819D01*
X129192857Y-115504819D02*
X129335714Y-115552438D01*
X129335714Y-115552438D02*
X129383333Y-115600057D01*
X130240476Y-115504819D02*
X130050000Y-115504819D01*
X130050000Y-115504819D02*
X129954762Y-115552438D01*
X129954762Y-115552438D02*
X129907143Y-115600057D01*
X129907143Y-115600057D02*
X129811905Y-115742914D01*
X129811905Y-115742914D02*
X129764286Y-115933390D01*
X129764286Y-115933390D02*
X129764286Y-116314342D01*
X129764286Y-116314342D02*
X129811905Y-116409580D01*
X129811905Y-116409580D02*
X129859524Y-116457200D01*
X129859524Y-116457200D02*
X129954762Y-116504819D01*
X129954762Y-116504819D02*
X130145238Y-116504819D01*
X130145238Y-116504819D02*
X130240476Y-116457200D01*
X130240476Y-116457200D02*
X130288095Y-116409580D01*
X130288095Y-116409580D02*
X130335714Y-116314342D01*
X130335714Y-116314342D02*
X130335714Y-116076247D01*
X130335714Y-116076247D02*
X130288095Y-115981009D01*
X130288095Y-115981009D02*
X130240476Y-115933390D01*
X130240476Y-115933390D02*
X130145238Y-115885771D01*
X130145238Y-115885771D02*
X129954762Y-115885771D01*
X129954762Y-115885771D02*
X129859524Y-115933390D01*
X129859524Y-115933390D02*
X129811905Y-115981009D01*
X129811905Y-115981009D02*
X129764286Y-116076247D01*
X135231667Y-137797200D02*
X135374524Y-137844819D01*
X135374524Y-137844819D02*
X135612619Y-137844819D01*
X135612619Y-137844819D02*
X135707857Y-137797200D01*
X135707857Y-137797200D02*
X135755476Y-137749580D01*
X135755476Y-137749580D02*
X135803095Y-137654342D01*
X135803095Y-137654342D02*
X135803095Y-137559104D01*
X135803095Y-137559104D02*
X135755476Y-137463866D01*
X135755476Y-137463866D02*
X135707857Y-137416247D01*
X135707857Y-137416247D02*
X135612619Y-137368628D01*
X135612619Y-137368628D02*
X135422143Y-137321009D01*
X135422143Y-137321009D02*
X135326905Y-137273390D01*
X135326905Y-137273390D02*
X135279286Y-137225771D01*
X135279286Y-137225771D02*
X135231667Y-137130533D01*
X135231667Y-137130533D02*
X135231667Y-137035295D01*
X135231667Y-137035295D02*
X135279286Y-136940057D01*
X135279286Y-136940057D02*
X135326905Y-136892438D01*
X135326905Y-136892438D02*
X135422143Y-136844819D01*
X135422143Y-136844819D02*
X135660238Y-136844819D01*
X135660238Y-136844819D02*
X135803095Y-136892438D01*
X136136429Y-136844819D02*
X136374524Y-137844819D01*
X136374524Y-137844819D02*
X136565000Y-137130533D01*
X136565000Y-137130533D02*
X136755476Y-137844819D01*
X136755476Y-137844819D02*
X136993572Y-136844819D01*
X137326905Y-136940057D02*
X137374524Y-136892438D01*
X137374524Y-136892438D02*
X137469762Y-136844819D01*
X137469762Y-136844819D02*
X137707857Y-136844819D01*
X137707857Y-136844819D02*
X137803095Y-136892438D01*
X137803095Y-136892438D02*
X137850714Y-136940057D01*
X137850714Y-136940057D02*
X137898333Y-137035295D01*
X137898333Y-137035295D02*
X137898333Y-137130533D01*
X137898333Y-137130533D02*
X137850714Y-137273390D01*
X137850714Y-137273390D02*
X137279286Y-137844819D01*
X137279286Y-137844819D02*
X137898333Y-137844819D01*
X161944761Y-84314819D02*
X161611428Y-83838628D01*
X161373333Y-84314819D02*
X161373333Y-83314819D01*
X161373333Y-83314819D02*
X161754285Y-83314819D01*
X161754285Y-83314819D02*
X161849523Y-83362438D01*
X161849523Y-83362438D02*
X161897142Y-83410057D01*
X161897142Y-83410057D02*
X161944761Y-83505295D01*
X161944761Y-83505295D02*
X161944761Y-83648152D01*
X161944761Y-83648152D02*
X161897142Y-83743390D01*
X161897142Y-83743390D02*
X161849523Y-83791009D01*
X161849523Y-83791009D02*
X161754285Y-83838628D01*
X161754285Y-83838628D02*
X161373333Y-83838628D01*
X162230476Y-83314819D02*
X162563809Y-84314819D01*
X162563809Y-84314819D02*
X162897142Y-83314819D01*
X163754285Y-84314819D02*
X163182857Y-84314819D01*
X163468571Y-84314819D02*
X163468571Y-83314819D01*
X163468571Y-83314819D02*
X163373333Y-83457676D01*
X163373333Y-83457676D02*
X163278095Y-83552914D01*
X163278095Y-83552914D02*
X163182857Y-83600533D01*
X89884580Y-104616666D02*
X89932200Y-104664285D01*
X89932200Y-104664285D02*
X89979819Y-104807142D01*
X89979819Y-104807142D02*
X89979819Y-104902380D01*
X89979819Y-104902380D02*
X89932200Y-105045237D01*
X89932200Y-105045237D02*
X89836961Y-105140475D01*
X89836961Y-105140475D02*
X89741723Y-105188094D01*
X89741723Y-105188094D02*
X89551247Y-105235713D01*
X89551247Y-105235713D02*
X89408390Y-105235713D01*
X89408390Y-105235713D02*
X89217914Y-105188094D01*
X89217914Y-105188094D02*
X89122676Y-105140475D01*
X89122676Y-105140475D02*
X89027438Y-105045237D01*
X89027438Y-105045237D02*
X88979819Y-104902380D01*
X88979819Y-104902380D02*
X88979819Y-104807142D01*
X88979819Y-104807142D02*
X89027438Y-104664285D01*
X89027438Y-104664285D02*
X89075057Y-104616666D01*
X88979819Y-104283332D02*
X88979819Y-103664285D01*
X88979819Y-103664285D02*
X89360771Y-103997618D01*
X89360771Y-103997618D02*
X89360771Y-103854761D01*
X89360771Y-103854761D02*
X89408390Y-103759523D01*
X89408390Y-103759523D02*
X89456009Y-103711904D01*
X89456009Y-103711904D02*
X89551247Y-103664285D01*
X89551247Y-103664285D02*
X89789342Y-103664285D01*
X89789342Y-103664285D02*
X89884580Y-103711904D01*
X89884580Y-103711904D02*
X89932200Y-103759523D01*
X89932200Y-103759523D02*
X89979819Y-103854761D01*
X89979819Y-103854761D02*
X89979819Y-104140475D01*
X89979819Y-104140475D02*
X89932200Y-104235713D01*
X89932200Y-104235713D02*
X89884580Y-104283332D01*
D12*
%TO.C,D7*%
X162050000Y-126065000D02*
X162050000Y-125045000D01*
X160580000Y-125045000D02*
X163520000Y-125045000D01*
X163520000Y-125045000D02*
X163520000Y-119605000D01*
X160580000Y-124265000D02*
X163520000Y-124265000D01*
X160580000Y-124145000D02*
X163520000Y-124145000D01*
X160580000Y-124025000D02*
X163520000Y-124025000D01*
X160580000Y-119605000D02*
X160580000Y-125045000D01*
X163520000Y-119605000D02*
X160580000Y-119605000D01*
X162050000Y-118585000D02*
X162050000Y-119605000D01*
%TO.C,C9*%
X136180000Y-90179000D02*
X136180000Y-88921000D01*
X138020000Y-90179000D02*
X138020000Y-88921000D01*
%TO.C,R3*%
X148230000Y-125120000D02*
X148230000Y-121280000D01*
X150070000Y-125120000D02*
X150070000Y-121280000D01*
%TO.C,D1*%
X92314000Y-102430000D02*
X92470000Y-102430000D01*
X94630000Y-102430000D02*
X94786000Y-102430000D01*
X92471392Y-99197666D02*
G75*
G03*
X92314485Y-102429999I1078608J-1672334D01*
G01*
X92470164Y-99828871D02*
G75*
G03*
X92470001Y-101910960I1079836J-1041129D01*
G01*
X94629999Y-101910960D02*
G75*
G03*
X94629836Y-99828871I-1079999J1040960D01*
G01*
X94785515Y-102429999D02*
G75*
G03*
X94628608Y-99197666I-1235515J1559999D01*
G01*
%TO.C,R8*%
X118095000Y-130205000D02*
X118095000Y-134045000D01*
X116255000Y-130205000D02*
X116255000Y-134045000D01*
%TO.C,C7*%
X126279000Y-91570000D02*
X125021000Y-91570000D01*
X126279000Y-89730000D02*
X125021000Y-89730000D01*
%TO.C,D5*%
X115939000Y-126590000D02*
X116095000Y-126590000D01*
X118255000Y-126590000D02*
X118411000Y-126590000D01*
X116096392Y-123357666D02*
G75*
G03*
X115939485Y-126589999I1078608J-1672334D01*
G01*
X116095164Y-123988871D02*
G75*
G03*
X116095001Y-126070960I1079836J-1041129D01*
G01*
X118254999Y-126070960D02*
G75*
G03*
X118254836Y-123988871I-1079999J1040960D01*
G01*
X118410515Y-126589999D02*
G75*
G03*
X118253608Y-123357666I-1235515J1559999D01*
G01*
%TO.C,C2*%
X85010000Y-101694000D02*
X85010000Y-100436000D01*
X86850000Y-101694000D02*
X86850000Y-100436000D01*
%TO.C,C8*%
X131055000Y-90079000D02*
X131055000Y-88821000D01*
X132895000Y-90079000D02*
X132895000Y-88821000D01*
%TO.C,REF\u002A\u002A*%
D13*
X181938614Y-150075877D02*
X181962327Y-150090647D01*
X181988978Y-150112227D01*
X181988978Y-150433773D01*
X181988893Y-150527830D01*
X181988529Y-150601932D01*
X181987724Y-150658704D01*
X181986313Y-150700768D01*
X181984133Y-150730748D01*
X181981021Y-150751267D01*
X181976814Y-150764949D01*
X181971348Y-150774416D01*
X181967472Y-150779082D01*
X181936034Y-150799575D01*
X181900233Y-150798739D01*
X181868873Y-150781264D01*
X181842222Y-150759684D01*
X181842222Y-150112227D01*
X181868873Y-150090647D01*
X181894594Y-150074949D01*
X181915600Y-150069067D01*
X181938614Y-150075877D01*
G36*
X181938614Y-150075877D02*
G01*
X181962327Y-150090647D01*
X181988978Y-150112227D01*
X181988978Y-150433773D01*
X181988893Y-150527830D01*
X181988529Y-150601932D01*
X181987724Y-150658704D01*
X181986313Y-150700768D01*
X181984133Y-150730748D01*
X181981021Y-150751267D01*
X181976814Y-150764949D01*
X181971348Y-150774416D01*
X181967472Y-150779082D01*
X181936034Y-150799575D01*
X181900233Y-150798739D01*
X181868873Y-150781264D01*
X181842222Y-150759684D01*
X181842222Y-150112227D01*
X181868873Y-150090647D01*
X181894594Y-150074949D01*
X181915600Y-150069067D01*
X181938614Y-150075877D01*
G37*
X174826178Y-150091645D02*
X174832758Y-150099218D01*
X174837921Y-150108987D01*
X174841836Y-150123571D01*
X174844676Y-150145585D01*
X174846613Y-150177648D01*
X174847817Y-150222375D01*
X174848461Y-150282385D01*
X174848716Y-150360294D01*
X174848755Y-150435956D01*
X174848686Y-150529802D01*
X174848362Y-150603689D01*
X174847614Y-150660232D01*
X174846268Y-150702049D01*
X174844154Y-150731757D01*
X174841100Y-150751973D01*
X174836934Y-150765314D01*
X174831484Y-150774398D01*
X174826178Y-150780267D01*
X174793174Y-150799947D01*
X174758009Y-150798181D01*
X174726545Y-150776717D01*
X174719316Y-150768337D01*
X174713666Y-150758614D01*
X174709401Y-150744861D01*
X174706327Y-150724389D01*
X174704248Y-150694512D01*
X174702970Y-150652541D01*
X174702299Y-150595789D01*
X174702041Y-150521567D01*
X174702000Y-150437537D01*
X174702000Y-150124485D01*
X174729709Y-150096776D01*
X174763863Y-150073463D01*
X174796994Y-150072623D01*
X174826178Y-150091645D01*
G36*
X174826178Y-150091645D02*
G01*
X174832758Y-150099218D01*
X174837921Y-150108987D01*
X174841836Y-150123571D01*
X174844676Y-150145585D01*
X174846613Y-150177648D01*
X174847817Y-150222375D01*
X174848461Y-150282385D01*
X174848716Y-150360294D01*
X174848755Y-150435956D01*
X174848686Y-150529802D01*
X174848362Y-150603689D01*
X174847614Y-150660232D01*
X174846268Y-150702049D01*
X174844154Y-150731757D01*
X174841100Y-150751973D01*
X174836934Y-150765314D01*
X174831484Y-150774398D01*
X174826178Y-150780267D01*
X174793174Y-150799947D01*
X174758009Y-150798181D01*
X174726545Y-150776717D01*
X174719316Y-150768337D01*
X174713666Y-150758614D01*
X174709401Y-150744861D01*
X174706327Y-150724389D01*
X174704248Y-150694512D01*
X174702970Y-150652541D01*
X174702299Y-150595789D01*
X174702041Y-150521567D01*
X174702000Y-150437537D01*
X174702000Y-150124485D01*
X174729709Y-150096776D01*
X174763863Y-150073463D01*
X174796994Y-150072623D01*
X174826178Y-150091645D01*
G37*
X175476957Y-144826571D02*
X175573232Y-144850809D01*
X175659816Y-144893641D01*
X175734627Y-144953419D01*
X175795582Y-145028494D01*
X175840601Y-145117220D01*
X175866864Y-145213530D01*
X175872714Y-145310795D01*
X175857860Y-145404654D01*
X175824160Y-145492511D01*
X175773472Y-145571770D01*
X175707655Y-145639836D01*
X175628566Y-145694112D01*
X175538066Y-145732002D01*
X175486800Y-145744426D01*
X175442302Y-145751947D01*
X175408001Y-145754919D01*
X175375040Y-145753094D01*
X175334566Y-145746225D01*
X175301469Y-145739250D01*
X175208053Y-145707741D01*
X175124381Y-145656617D01*
X175052335Y-145587429D01*
X174993800Y-145501728D01*
X174979852Y-145474489D01*
X174963414Y-145438122D01*
X174953106Y-145407582D01*
X174947540Y-145375450D01*
X174945331Y-145334307D01*
X174945052Y-145288222D01*
X174949139Y-145203865D01*
X174962554Y-145134586D01*
X174987744Y-145073961D01*
X175027154Y-145015567D01*
X175065702Y-144971302D01*
X175137594Y-144905484D01*
X175212687Y-144860053D01*
X175295438Y-144832850D01*
X175373072Y-144822576D01*
X175476957Y-144826571D01*
G36*
X175476957Y-144826571D02*
G01*
X175573232Y-144850809D01*
X175659816Y-144893641D01*
X175734627Y-144953419D01*
X175795582Y-145028494D01*
X175840601Y-145117220D01*
X175866864Y-145213530D01*
X175872714Y-145310795D01*
X175857860Y-145404654D01*
X175824160Y-145492511D01*
X175773472Y-145571770D01*
X175707655Y-145639836D01*
X175628566Y-145694112D01*
X175538066Y-145732002D01*
X175486800Y-145744426D01*
X175442302Y-145751947D01*
X175408001Y-145754919D01*
X175375040Y-145753094D01*
X175334566Y-145746225D01*
X175301469Y-145739250D01*
X175208053Y-145707741D01*
X175124381Y-145656617D01*
X175052335Y-145587429D01*
X174993800Y-145501728D01*
X174979852Y-145474489D01*
X174963414Y-145438122D01*
X174953106Y-145407582D01*
X174947540Y-145375450D01*
X174945331Y-145334307D01*
X174945052Y-145288222D01*
X174949139Y-145203865D01*
X174962554Y-145134586D01*
X174987744Y-145073961D01*
X175027154Y-145015567D01*
X175065702Y-144971302D01*
X175137594Y-144905484D01*
X175212687Y-144860053D01*
X175295438Y-144832850D01*
X175373072Y-144822576D01*
X175476957Y-144826571D01*
G37*
X182713065Y-150069163D02*
X182791772Y-150069542D01*
X182852863Y-150070333D01*
X182898817Y-150071670D01*
X182932114Y-150073683D01*
X182955236Y-150076506D01*
X182970662Y-150080269D01*
X182980871Y-150085105D01*
X182985813Y-150088822D01*
X183011457Y-150121358D01*
X183014559Y-150155138D01*
X182998711Y-150185826D01*
X182988348Y-150198089D01*
X182977196Y-150206450D01*
X182961035Y-150211657D01*
X182935642Y-150214457D01*
X182896798Y-150215596D01*
X182840280Y-150215821D01*
X182829180Y-150215822D01*
X182683244Y-150215822D01*
X182683244Y-150486756D01*
X182683148Y-150572154D01*
X182682711Y-150637864D01*
X182681712Y-150686774D01*
X182679928Y-150721773D01*
X182677137Y-150745749D01*
X182673117Y-150761593D01*
X182667645Y-150772191D01*
X182660666Y-150780267D01*
X182627734Y-150800112D01*
X182593354Y-150798548D01*
X182562176Y-150775906D01*
X182559886Y-150773100D01*
X182552429Y-150762492D01*
X182546747Y-150750081D01*
X182542601Y-150732850D01*
X182539750Y-150707784D01*
X182537954Y-150671867D01*
X182536972Y-150622083D01*
X182536564Y-150555417D01*
X182536489Y-150479589D01*
X182536489Y-150215822D01*
X182397127Y-150215822D01*
X182337322Y-150215418D01*
X182295918Y-150213840D01*
X182268748Y-150210547D01*
X182251646Y-150204992D01*
X182240443Y-150196631D01*
X182239083Y-150195178D01*
X182222725Y-150161939D01*
X182224172Y-150124362D01*
X182242978Y-150091645D01*
X182250250Y-150085298D01*
X182259627Y-150080266D01*
X182273609Y-150076396D01*
X182294696Y-150073537D01*
X182325389Y-150071535D01*
X182368189Y-150070239D01*
X182425595Y-150069498D01*
X182500110Y-150069158D01*
X182594233Y-150069068D01*
X182614260Y-150069067D01*
X182713065Y-150069163D01*
G36*
X182713065Y-150069163D02*
G01*
X182791772Y-150069542D01*
X182852863Y-150070333D01*
X182898817Y-150071670D01*
X182932114Y-150073683D01*
X182955236Y-150076506D01*
X182970662Y-150080269D01*
X182980871Y-150085105D01*
X182985813Y-150088822D01*
X183011457Y-150121358D01*
X183014559Y-150155138D01*
X182998711Y-150185826D01*
X182988348Y-150198089D01*
X182977196Y-150206450D01*
X182961035Y-150211657D01*
X182935642Y-150214457D01*
X182896798Y-150215596D01*
X182840280Y-150215821D01*
X182829180Y-150215822D01*
X182683244Y-150215822D01*
X182683244Y-150486756D01*
X182683148Y-150572154D01*
X182682711Y-150637864D01*
X182681712Y-150686774D01*
X182679928Y-150721773D01*
X182677137Y-150745749D01*
X182673117Y-150761593D01*
X182667645Y-150772191D01*
X182660666Y-150780267D01*
X182627734Y-150800112D01*
X182593354Y-150798548D01*
X182562176Y-150775906D01*
X182559886Y-150773100D01*
X182552429Y-150762492D01*
X182546747Y-150750081D01*
X182542601Y-150732850D01*
X182539750Y-150707784D01*
X182537954Y-150671867D01*
X182536972Y-150622083D01*
X182536564Y-150555417D01*
X182536489Y-150479589D01*
X182536489Y-150215822D01*
X182397127Y-150215822D01*
X182337322Y-150215418D01*
X182295918Y-150213840D01*
X182268748Y-150210547D01*
X182251646Y-150204992D01*
X182240443Y-150196631D01*
X182239083Y-150195178D01*
X182222725Y-150161939D01*
X182224172Y-150124362D01*
X182242978Y-150091645D01*
X182250250Y-150085298D01*
X182259627Y-150080266D01*
X182273609Y-150076396D01*
X182294696Y-150073537D01*
X182325389Y-150071535D01*
X182368189Y-150070239D01*
X182425595Y-150069498D01*
X182500110Y-150069158D01*
X182594233Y-150069068D01*
X182614260Y-150069067D01*
X182713065Y-150069163D01*
G37*
X183978823Y-150074533D02*
X184010202Y-150096776D01*
X184037911Y-150124485D01*
X184037911Y-150433920D01*
X184037838Y-150525799D01*
X184037495Y-150597840D01*
X184036692Y-150652780D01*
X184035241Y-150693360D01*
X184032952Y-150722317D01*
X184029636Y-150742391D01*
X184025105Y-150756321D01*
X184019169Y-150766845D01*
X184014514Y-150773100D01*
X183983783Y-150797673D01*
X183948496Y-150800341D01*
X183916245Y-150785271D01*
X183905588Y-150776374D01*
X183898464Y-150764557D01*
X183894167Y-150745526D01*
X183891991Y-150714992D01*
X183891228Y-150668662D01*
X183891155Y-150632871D01*
X183891155Y-150498045D01*
X183394444Y-150498045D01*
X183394444Y-150620700D01*
X183393931Y-150676787D01*
X183391876Y-150715333D01*
X183387508Y-150741361D01*
X183380056Y-150759897D01*
X183371047Y-150773100D01*
X183340144Y-150797604D01*
X183305196Y-150800506D01*
X183271738Y-150783089D01*
X183262604Y-150773959D01*
X183256152Y-150761855D01*
X183251897Y-150743001D01*
X183249352Y-150713620D01*
X183248029Y-150669937D01*
X183247443Y-150608175D01*
X183247375Y-150594000D01*
X183246891Y-150477631D01*
X183246641Y-150381727D01*
X183246723Y-150304177D01*
X183247231Y-150242869D01*
X183248262Y-150195690D01*
X183249913Y-150160530D01*
X183252279Y-150135276D01*
X183255457Y-150117817D01*
X183259544Y-150106041D01*
X183264634Y-150097835D01*
X183270266Y-150091645D01*
X183302128Y-150071844D01*
X183335357Y-150074533D01*
X183366735Y-150096776D01*
X183379433Y-150111126D01*
X183387526Y-150126978D01*
X183392042Y-150149554D01*
X183394006Y-150184078D01*
X183394444Y-150235776D01*
X183394444Y-150351289D01*
X183891155Y-150351289D01*
X183891155Y-150232756D01*
X183891662Y-150178148D01*
X183893698Y-150141275D01*
X183898035Y-150117307D01*
X183905447Y-150101415D01*
X183913733Y-150091645D01*
X183945594Y-150071844D01*
X183978823Y-150074533D01*
G36*
X183978823Y-150074533D02*
G01*
X184010202Y-150096776D01*
X184037911Y-150124485D01*
X184037911Y-150433920D01*
X184037838Y-150525799D01*
X184037495Y-150597840D01*
X184036692Y-150652780D01*
X184035241Y-150693360D01*
X184032952Y-150722317D01*
X184029636Y-150742391D01*
X184025105Y-150756321D01*
X184019169Y-150766845D01*
X184014514Y-150773100D01*
X183983783Y-150797673D01*
X183948496Y-150800341D01*
X183916245Y-150785271D01*
X183905588Y-150776374D01*
X183898464Y-150764557D01*
X183894167Y-150745526D01*
X183891991Y-150714992D01*
X183891228Y-150668662D01*
X183891155Y-150632871D01*
X183891155Y-150498045D01*
X183394444Y-150498045D01*
X183394444Y-150620700D01*
X183393931Y-150676787D01*
X183391876Y-150715333D01*
X183387508Y-150741361D01*
X183380056Y-150759897D01*
X183371047Y-150773100D01*
X183340144Y-150797604D01*
X183305196Y-150800506D01*
X183271738Y-150783089D01*
X183262604Y-150773959D01*
X183256152Y-150761855D01*
X183251897Y-150743001D01*
X183249352Y-150713620D01*
X183248029Y-150669937D01*
X183247443Y-150608175D01*
X183247375Y-150594000D01*
X183246891Y-150477631D01*
X183246641Y-150381727D01*
X183246723Y-150304177D01*
X183247231Y-150242869D01*
X183248262Y-150195690D01*
X183249913Y-150160530D01*
X183252279Y-150135276D01*
X183255457Y-150117817D01*
X183259544Y-150106041D01*
X183264634Y-150097835D01*
X183270266Y-150091645D01*
X183302128Y-150071844D01*
X183335357Y-150074533D01*
X183366735Y-150096776D01*
X183379433Y-150111126D01*
X183387526Y-150126978D01*
X183392042Y-150149554D01*
X183394006Y-150184078D01*
X183394444Y-150235776D01*
X183394444Y-150351289D01*
X183891155Y-150351289D01*
X183891155Y-150232756D01*
X183891662Y-150178148D01*
X183893698Y-150141275D01*
X183898035Y-150117307D01*
X183905447Y-150101415D01*
X183913733Y-150091645D01*
X183945594Y-150071844D01*
X183978823Y-150074533D01*
G37*
X178768309Y-150069275D02*
X178897288Y-150073636D01*
X179006991Y-150086861D01*
X179099226Y-150109741D01*
X179175802Y-150143070D01*
X179238527Y-150187638D01*
X179289212Y-150244236D01*
X179329663Y-150313658D01*
X179330459Y-150315351D01*
X179354601Y-150377483D01*
X179363203Y-150432509D01*
X179356231Y-150487887D01*
X179333654Y-150551073D01*
X179329372Y-150560689D01*
X179300172Y-150616966D01*
X179267356Y-150660451D01*
X179225002Y-150697417D01*
X179167190Y-150734135D01*
X179163831Y-150736052D01*
X179113504Y-150760227D01*
X179056621Y-150778282D01*
X178989527Y-150790839D01*
X178908565Y-150798522D01*
X178810082Y-150801953D01*
X178775286Y-150802251D01*
X178609594Y-150802845D01*
X178586197Y-150773100D01*
X178579257Y-150763319D01*
X178573842Y-150751897D01*
X178569765Y-150736095D01*
X178566837Y-150713175D01*
X178564867Y-150680396D01*
X178564225Y-150656089D01*
X178720844Y-150656089D01*
X178814726Y-150656089D01*
X178869664Y-150654483D01*
X178926060Y-150650255D01*
X178972345Y-150644292D01*
X178975139Y-150643790D01*
X179057348Y-150621736D01*
X179121114Y-150588600D01*
X179168452Y-150542847D01*
X179201382Y-150482939D01*
X179207108Y-150467061D01*
X179212721Y-150442333D01*
X179210291Y-150417902D01*
X179198467Y-150385400D01*
X179191340Y-150369434D01*
X179168000Y-150327006D01*
X179139880Y-150297240D01*
X179108940Y-150276511D01*
X179046966Y-150249537D01*
X178967651Y-150229998D01*
X178875253Y-150218746D01*
X178808333Y-150216270D01*
X178720844Y-150215822D01*
X178720844Y-150656089D01*
X178564225Y-150656089D01*
X178563668Y-150635021D01*
X178563050Y-150574311D01*
X178562825Y-150495526D01*
X178562800Y-150433920D01*
X178562800Y-150124485D01*
X178590509Y-150096776D01*
X178602806Y-150085544D01*
X178616103Y-150077853D01*
X178634672Y-150073040D01*
X178662786Y-150070446D01*
X178704717Y-150069410D01*
X178764737Y-150069270D01*
X178768309Y-150069275D01*
G36*
X178768309Y-150069275D02*
G01*
X178897288Y-150073636D01*
X179006991Y-150086861D01*
X179099226Y-150109741D01*
X179175802Y-150143070D01*
X179238527Y-150187638D01*
X179289212Y-150244236D01*
X179329663Y-150313658D01*
X179330459Y-150315351D01*
X179354601Y-150377483D01*
X179363203Y-150432509D01*
X179356231Y-150487887D01*
X179333654Y-150551073D01*
X179329372Y-150560689D01*
X179300172Y-150616966D01*
X179267356Y-150660451D01*
X179225002Y-150697417D01*
X179167190Y-150734135D01*
X179163831Y-150736052D01*
X179113504Y-150760227D01*
X179056621Y-150778282D01*
X178989527Y-150790839D01*
X178908565Y-150798522D01*
X178810082Y-150801953D01*
X178775286Y-150802251D01*
X178609594Y-150802845D01*
X178586197Y-150773100D01*
X178579257Y-150763319D01*
X178573842Y-150751897D01*
X178569765Y-150736095D01*
X178566837Y-150713175D01*
X178564867Y-150680396D01*
X178564225Y-150656089D01*
X178720844Y-150656089D01*
X178814726Y-150656089D01*
X178869664Y-150654483D01*
X178926060Y-150650255D01*
X178972345Y-150644292D01*
X178975139Y-150643790D01*
X179057348Y-150621736D01*
X179121114Y-150588600D01*
X179168452Y-150542847D01*
X179201382Y-150482939D01*
X179207108Y-150467061D01*
X179212721Y-150442333D01*
X179210291Y-150417902D01*
X179198467Y-150385400D01*
X179191340Y-150369434D01*
X179168000Y-150327006D01*
X179139880Y-150297240D01*
X179108940Y-150276511D01*
X179046966Y-150249537D01*
X178967651Y-150229998D01*
X178875253Y-150218746D01*
X178808333Y-150216270D01*
X178720844Y-150215822D01*
X178720844Y-150656089D01*
X178564225Y-150656089D01*
X178563668Y-150635021D01*
X178563050Y-150574311D01*
X178562825Y-150495526D01*
X178562800Y-150433920D01*
X178562800Y-150124485D01*
X178590509Y-150096776D01*
X178602806Y-150085544D01*
X178616103Y-150077853D01*
X178634672Y-150073040D01*
X178662786Y-150070446D01*
X178704717Y-150069410D01*
X178764737Y-150069270D01*
X178768309Y-150069275D01*
G37*
X171628629Y-150069066D02*
X171668111Y-150069467D01*
X171783800Y-150072259D01*
X171880689Y-150080550D01*
X171962081Y-150095232D01*
X172031277Y-150117193D01*
X172091580Y-150147322D01*
X172146292Y-150186510D01*
X172165833Y-150203532D01*
X172198250Y-150243363D01*
X172227480Y-150297413D01*
X172250009Y-150357323D01*
X172262321Y-150414739D01*
X172263600Y-150435956D01*
X172255583Y-150494769D01*
X172234101Y-150559013D01*
X172203001Y-150619821D01*
X172166134Y-150668330D01*
X172160146Y-150674182D01*
X172109421Y-150715321D01*
X172053875Y-150747435D01*
X171990304Y-150771365D01*
X171915506Y-150787953D01*
X171826278Y-150798041D01*
X171719418Y-150802469D01*
X171670472Y-150802845D01*
X171608238Y-150802545D01*
X171564472Y-150801292D01*
X171535069Y-150798554D01*
X171515921Y-150793801D01*
X171502923Y-150786501D01*
X171495955Y-150780267D01*
X171489374Y-150772694D01*
X171484212Y-150762924D01*
X171480297Y-150748340D01*
X171477457Y-150726326D01*
X171475520Y-150694264D01*
X171474316Y-150649536D01*
X171473672Y-150589526D01*
X171473417Y-150511617D01*
X171473378Y-150435956D01*
X171473130Y-150335041D01*
X171473183Y-150254427D01*
X171474143Y-150215822D01*
X171620133Y-150215822D01*
X171620133Y-150656089D01*
X171713266Y-150656004D01*
X171769307Y-150654396D01*
X171828001Y-150650256D01*
X171876972Y-150644464D01*
X171878462Y-150644226D01*
X171957608Y-150625090D01*
X172018998Y-150595287D01*
X172065695Y-150552878D01*
X172095365Y-150506961D01*
X172113647Y-150456026D01*
X172112229Y-150408200D01*
X172091012Y-150356933D01*
X172049511Y-150303899D01*
X171992002Y-150264600D01*
X171917250Y-150238331D01*
X171867292Y-150229035D01*
X171810584Y-150222507D01*
X171750481Y-150217782D01*
X171699361Y-150215817D01*
X171696333Y-150215808D01*
X171620133Y-150215822D01*
X171474143Y-150215822D01*
X171474740Y-150191851D01*
X171479002Y-150145055D01*
X171487170Y-150111778D01*
X171500444Y-150089759D01*
X171520026Y-150076739D01*
X171547117Y-150070457D01*
X171582918Y-150068653D01*
X171628629Y-150069066D01*
G36*
X171628629Y-150069066D02*
G01*
X171668111Y-150069467D01*
X171783800Y-150072259D01*
X171880689Y-150080550D01*
X171962081Y-150095232D01*
X172031277Y-150117193D01*
X172091580Y-150147322D01*
X172146292Y-150186510D01*
X172165833Y-150203532D01*
X172198250Y-150243363D01*
X172227480Y-150297413D01*
X172250009Y-150357323D01*
X172262321Y-150414739D01*
X172263600Y-150435956D01*
X172255583Y-150494769D01*
X172234101Y-150559013D01*
X172203001Y-150619821D01*
X172166134Y-150668330D01*
X172160146Y-150674182D01*
X172109421Y-150715321D01*
X172053875Y-150747435D01*
X171990304Y-150771365D01*
X171915506Y-150787953D01*
X171826278Y-150798041D01*
X171719418Y-150802469D01*
X171670472Y-150802845D01*
X171608238Y-150802545D01*
X171564472Y-150801292D01*
X171535069Y-150798554D01*
X171515921Y-150793801D01*
X171502923Y-150786501D01*
X171495955Y-150780267D01*
X171489374Y-150772694D01*
X171484212Y-150762924D01*
X171480297Y-150748340D01*
X171477457Y-150726326D01*
X171475520Y-150694264D01*
X171474316Y-150649536D01*
X171473672Y-150589526D01*
X171473417Y-150511617D01*
X171473378Y-150435956D01*
X171473130Y-150335041D01*
X171473183Y-150254427D01*
X171474143Y-150215822D01*
X171620133Y-150215822D01*
X171620133Y-150656089D01*
X171713266Y-150656004D01*
X171769307Y-150654396D01*
X171828001Y-150650256D01*
X171876972Y-150644464D01*
X171878462Y-150644226D01*
X171957608Y-150625090D01*
X172018998Y-150595287D01*
X172065695Y-150552878D01*
X172095365Y-150506961D01*
X172113647Y-150456026D01*
X172112229Y-150408200D01*
X172091012Y-150356933D01*
X172049511Y-150303899D01*
X171992002Y-150264600D01*
X171917250Y-150238331D01*
X171867292Y-150229035D01*
X171810584Y-150222507D01*
X171750481Y-150217782D01*
X171699361Y-150215817D01*
X171696333Y-150215808D01*
X171620133Y-150215822D01*
X171474143Y-150215822D01*
X171474740Y-150191851D01*
X171479002Y-150145055D01*
X171487170Y-150111778D01*
X171500444Y-150089759D01*
X171520026Y-150076739D01*
X171547117Y-150070457D01*
X171582918Y-150068653D01*
X171628629Y-150069066D01*
G37*
X176449886Y-150073448D02*
X176473452Y-150087273D01*
X176504265Y-150109881D01*
X176543922Y-150142338D01*
X176594020Y-150185708D01*
X176656157Y-150241058D01*
X176731928Y-150309451D01*
X176818666Y-150388084D01*
X176999289Y-150551878D01*
X177004933Y-150332029D01*
X177006971Y-150256351D01*
X177008937Y-150199994D01*
X177011266Y-150159706D01*
X177014394Y-150132235D01*
X177018755Y-150114329D01*
X177024784Y-150102737D01*
X177032916Y-150094208D01*
X177037228Y-150090623D01*
X177071759Y-150071670D01*
X177104617Y-150074441D01*
X177130682Y-150090633D01*
X177157333Y-150112199D01*
X177160648Y-150427151D01*
X177161565Y-150519779D01*
X177162032Y-150592544D01*
X177161887Y-150648161D01*
X177160968Y-150689342D01*
X177159113Y-150718803D01*
X177156161Y-150739255D01*
X177151950Y-150753413D01*
X177146318Y-150763991D01*
X177140073Y-150772474D01*
X177126561Y-150788207D01*
X177113117Y-150798636D01*
X177097876Y-150802639D01*
X177078974Y-150799094D01*
X177054545Y-150786879D01*
X177022727Y-150764871D01*
X176981652Y-150731949D01*
X176929458Y-150686991D01*
X176864278Y-150628875D01*
X176790444Y-150562099D01*
X176525155Y-150321458D01*
X176519511Y-150540589D01*
X176517469Y-150616128D01*
X176515498Y-150672354D01*
X176513161Y-150712524D01*
X176510019Y-150739896D01*
X176505636Y-150757728D01*
X176499576Y-150769279D01*
X176491400Y-150777807D01*
X176487216Y-150781282D01*
X176450235Y-150800372D01*
X176415292Y-150797493D01*
X176384864Y-150773100D01*
X176377903Y-150763286D01*
X176372477Y-150751826D01*
X176368397Y-150735968D01*
X176365471Y-150712963D01*
X176363508Y-150680062D01*
X176362317Y-150634516D01*
X176361708Y-150573573D01*
X176361489Y-150494486D01*
X176361466Y-150435956D01*
X176361540Y-150344407D01*
X176361887Y-150272687D01*
X176362699Y-150218045D01*
X176364167Y-150177732D01*
X176366481Y-150148998D01*
X176369833Y-150129093D01*
X176374412Y-150115268D01*
X176380411Y-150104772D01*
X176384864Y-150098811D01*
X176396150Y-150084691D01*
X176406699Y-150074029D01*
X176418107Y-150067892D01*
X176431970Y-150067343D01*
X176449886Y-150073448D01*
G36*
X176449886Y-150073448D02*
G01*
X176473452Y-150087273D01*
X176504265Y-150109881D01*
X176543922Y-150142338D01*
X176594020Y-150185708D01*
X176656157Y-150241058D01*
X176731928Y-150309451D01*
X176818666Y-150388084D01*
X176999289Y-150551878D01*
X177004933Y-150332029D01*
X177006971Y-150256351D01*
X177008937Y-150199994D01*
X177011266Y-150159706D01*
X177014394Y-150132235D01*
X177018755Y-150114329D01*
X177024784Y-150102737D01*
X177032916Y-150094208D01*
X177037228Y-150090623D01*
X177071759Y-150071670D01*
X177104617Y-150074441D01*
X177130682Y-150090633D01*
X177157333Y-150112199D01*
X177160648Y-150427151D01*
X177161565Y-150519779D01*
X177162032Y-150592544D01*
X177161887Y-150648161D01*
X177160968Y-150689342D01*
X177159113Y-150718803D01*
X177156161Y-150739255D01*
X177151950Y-150753413D01*
X177146318Y-150763991D01*
X177140073Y-150772474D01*
X177126561Y-150788207D01*
X177113117Y-150798636D01*
X177097876Y-150802639D01*
X177078974Y-150799094D01*
X177054545Y-150786879D01*
X177022727Y-150764871D01*
X176981652Y-150731949D01*
X176929458Y-150686991D01*
X176864278Y-150628875D01*
X176790444Y-150562099D01*
X176525155Y-150321458D01*
X176519511Y-150540589D01*
X176517469Y-150616128D01*
X176515498Y-150672354D01*
X176513161Y-150712524D01*
X176510019Y-150739896D01*
X176505636Y-150757728D01*
X176499576Y-150769279D01*
X176491400Y-150777807D01*
X176487216Y-150781282D01*
X176450235Y-150800372D01*
X176415292Y-150797493D01*
X176384864Y-150773100D01*
X176377903Y-150763286D01*
X176372477Y-150751826D01*
X176368397Y-150735968D01*
X176365471Y-150712963D01*
X176363508Y-150680062D01*
X176362317Y-150634516D01*
X176361708Y-150573573D01*
X176361489Y-150494486D01*
X176361466Y-150435956D01*
X176361540Y-150344407D01*
X176361887Y-150272687D01*
X176362699Y-150218045D01*
X176364167Y-150177732D01*
X176366481Y-150148998D01*
X176369833Y-150129093D01*
X176374412Y-150115268D01*
X176380411Y-150104772D01*
X176384864Y-150098811D01*
X176396150Y-150084691D01*
X176406699Y-150074029D01*
X176418107Y-150067892D01*
X176431970Y-150067343D01*
X176449886Y-150073448D01*
G37*
X175799919Y-150074599D02*
X175868435Y-150086095D01*
X175921057Y-150103967D01*
X175955292Y-150127499D01*
X175964621Y-150140924D01*
X175974107Y-150172148D01*
X175967723Y-150200395D01*
X175947570Y-150227182D01*
X175916255Y-150239713D01*
X175870817Y-150238696D01*
X175835674Y-150231906D01*
X175757581Y-150218971D01*
X175677774Y-150217742D01*
X175588445Y-150228241D01*
X175563771Y-150232690D01*
X175480709Y-150256108D01*
X175415727Y-150290945D01*
X175369539Y-150336604D01*
X175342855Y-150392494D01*
X175337337Y-150421388D01*
X175340949Y-150480012D01*
X175364271Y-150531879D01*
X175405176Y-150575978D01*
X175461541Y-150611299D01*
X175531240Y-150636829D01*
X175612148Y-150651559D01*
X175702140Y-150654478D01*
X175799090Y-150644575D01*
X175804564Y-150643641D01*
X175843125Y-150636459D01*
X175864506Y-150629521D01*
X175873773Y-150619227D01*
X175875994Y-150601976D01*
X175876044Y-150592841D01*
X175876044Y-150554489D01*
X175807569Y-150554489D01*
X175747100Y-150550347D01*
X175705835Y-150537147D01*
X175681825Y-150513730D01*
X175673123Y-150478936D01*
X175673017Y-150474394D01*
X175678108Y-150444654D01*
X175695567Y-150423419D01*
X175728061Y-150409366D01*
X175778257Y-150401173D01*
X175826877Y-150398161D01*
X175897544Y-150396433D01*
X175948802Y-150399070D01*
X175983761Y-150408800D01*
X176005530Y-150428353D01*
X176017220Y-150460456D01*
X176021940Y-150507838D01*
X176022800Y-150570071D01*
X176021391Y-150639535D01*
X176017152Y-150686786D01*
X176010064Y-150712012D01*
X176008689Y-150713988D01*
X175969772Y-150745508D01*
X175912714Y-150770470D01*
X175841131Y-150788340D01*
X175758642Y-150798586D01*
X175668861Y-150800673D01*
X175575408Y-150794068D01*
X175520444Y-150785956D01*
X175434234Y-150761554D01*
X175354108Y-150721662D01*
X175287023Y-150669887D01*
X175276827Y-150659539D01*
X175243698Y-150616035D01*
X175213806Y-150562118D01*
X175190643Y-150505592D01*
X175177702Y-150454259D01*
X175176142Y-150434544D01*
X175182782Y-150393419D01*
X175200432Y-150342252D01*
X175225703Y-150288394D01*
X175255211Y-150239195D01*
X175281281Y-150206334D01*
X175342235Y-150157452D01*
X175421031Y-150118545D01*
X175514843Y-150090494D01*
X175620850Y-150074179D01*
X175718000Y-150070192D01*
X175799919Y-150074599D01*
G36*
X175799919Y-150074599D02*
G01*
X175868435Y-150086095D01*
X175921057Y-150103967D01*
X175955292Y-150127499D01*
X175964621Y-150140924D01*
X175974107Y-150172148D01*
X175967723Y-150200395D01*
X175947570Y-150227182D01*
X175916255Y-150239713D01*
X175870817Y-150238696D01*
X175835674Y-150231906D01*
X175757581Y-150218971D01*
X175677774Y-150217742D01*
X175588445Y-150228241D01*
X175563771Y-150232690D01*
X175480709Y-150256108D01*
X175415727Y-150290945D01*
X175369539Y-150336604D01*
X175342855Y-150392494D01*
X175337337Y-150421388D01*
X175340949Y-150480012D01*
X175364271Y-150531879D01*
X175405176Y-150575978D01*
X175461541Y-150611299D01*
X175531240Y-150636829D01*
X175612148Y-150651559D01*
X175702140Y-150654478D01*
X175799090Y-150644575D01*
X175804564Y-150643641D01*
X175843125Y-150636459D01*
X175864506Y-150629521D01*
X175873773Y-150619227D01*
X175875994Y-150601976D01*
X175876044Y-150592841D01*
X175876044Y-150554489D01*
X175807569Y-150554489D01*
X175747100Y-150550347D01*
X175705835Y-150537147D01*
X175681825Y-150513730D01*
X175673123Y-150478936D01*
X175673017Y-150474394D01*
X175678108Y-150444654D01*
X175695567Y-150423419D01*
X175728061Y-150409366D01*
X175778257Y-150401173D01*
X175826877Y-150398161D01*
X175897544Y-150396433D01*
X175948802Y-150399070D01*
X175983761Y-150408800D01*
X176005530Y-150428353D01*
X176017220Y-150460456D01*
X176021940Y-150507838D01*
X176022800Y-150570071D01*
X176021391Y-150639535D01*
X176017152Y-150686786D01*
X176010064Y-150712012D01*
X176008689Y-150713988D01*
X175969772Y-150745508D01*
X175912714Y-150770470D01*
X175841131Y-150788340D01*
X175758642Y-150798586D01*
X175668861Y-150800673D01*
X175575408Y-150794068D01*
X175520444Y-150785956D01*
X175434234Y-150761554D01*
X175354108Y-150721662D01*
X175287023Y-150669887D01*
X175276827Y-150659539D01*
X175243698Y-150616035D01*
X175213806Y-150562118D01*
X175190643Y-150505592D01*
X175177702Y-150454259D01*
X175176142Y-150434544D01*
X175182782Y-150393419D01*
X175200432Y-150342252D01*
X175225703Y-150288394D01*
X175255211Y-150239195D01*
X175281281Y-150206334D01*
X175342235Y-150157452D01*
X175421031Y-150118545D01*
X175514843Y-150090494D01*
X175620850Y-150074179D01*
X175718000Y-150070192D01*
X175799919Y-150074599D01*
G37*
X177980343Y-150069260D02*
X178056701Y-150070174D01*
X178115217Y-150072311D01*
X178158255Y-150076175D01*
X178188183Y-150082267D01*
X178207368Y-150091090D01*
X178218176Y-150103146D01*
X178222973Y-150118939D01*
X178224127Y-150138970D01*
X178224133Y-150141335D01*
X178223131Y-150163992D01*
X178218396Y-150181503D01*
X178207333Y-150194574D01*
X178187348Y-150203913D01*
X178155846Y-150210227D01*
X178110232Y-150214222D01*
X178047913Y-150216606D01*
X177966293Y-150218086D01*
X177941277Y-150218414D01*
X177699200Y-150221467D01*
X177695814Y-150286378D01*
X177692429Y-150351289D01*
X177860576Y-150351289D01*
X177926266Y-150351531D01*
X177973172Y-150352556D01*
X178005083Y-150354811D01*
X178025791Y-150358742D01*
X178039084Y-150364798D01*
X178048755Y-150373424D01*
X178048817Y-150373493D01*
X178066356Y-150407112D01*
X178065722Y-150443448D01*
X178047314Y-150474423D01*
X178043671Y-150477607D01*
X178030741Y-150485812D01*
X178013024Y-150491521D01*
X177986570Y-150495162D01*
X177947432Y-150497167D01*
X177891662Y-150497964D01*
X177855994Y-150498045D01*
X177693555Y-150498045D01*
X177693555Y-150656089D01*
X177940161Y-150656089D01*
X178021580Y-150656231D01*
X178083410Y-150656814D01*
X178128637Y-150658068D01*
X178160248Y-150660227D01*
X178181231Y-150663523D01*
X178194573Y-150668189D01*
X178203261Y-150674457D01*
X178205450Y-150676733D01*
X178221614Y-150708280D01*
X178222797Y-150744168D01*
X178209536Y-150775285D01*
X178199043Y-150785271D01*
X178188129Y-150790769D01*
X178171217Y-150795022D01*
X178145633Y-150798180D01*
X178108701Y-150800392D01*
X178057746Y-150801806D01*
X177990094Y-150802572D01*
X177903069Y-150802838D01*
X177883394Y-150802845D01*
X177794911Y-150802787D01*
X177726227Y-150802467D01*
X177674564Y-150801667D01*
X177637145Y-150800167D01*
X177611190Y-150797749D01*
X177593922Y-150794194D01*
X177582562Y-150789282D01*
X177574332Y-150782795D01*
X177569817Y-150778138D01*
X177563021Y-150769889D01*
X177557712Y-150759669D01*
X177553706Y-150744800D01*
X177550821Y-150722602D01*
X177548874Y-150690393D01*
X177547681Y-150645496D01*
X177547061Y-150585228D01*
X177546829Y-150506911D01*
X177546800Y-150440994D01*
X177546871Y-150348628D01*
X177547208Y-150276117D01*
X177547998Y-150220737D01*
X177549426Y-150179765D01*
X177551679Y-150150478D01*
X177554943Y-150130153D01*
X177559404Y-150116066D01*
X177565248Y-150105495D01*
X177570197Y-150098811D01*
X177593594Y-150069067D01*
X177883774Y-150069067D01*
X177980343Y-150069260D01*
G36*
X177980343Y-150069260D02*
G01*
X178056701Y-150070174D01*
X178115217Y-150072311D01*
X178158255Y-150076175D01*
X178188183Y-150082267D01*
X178207368Y-150091090D01*
X178218176Y-150103146D01*
X178222973Y-150118939D01*
X178224127Y-150138970D01*
X178224133Y-150141335D01*
X178223131Y-150163992D01*
X178218396Y-150181503D01*
X178207333Y-150194574D01*
X178187348Y-150203913D01*
X178155846Y-150210227D01*
X178110232Y-150214222D01*
X178047913Y-150216606D01*
X177966293Y-150218086D01*
X177941277Y-150218414D01*
X177699200Y-150221467D01*
X177695814Y-150286378D01*
X177692429Y-150351289D01*
X177860576Y-150351289D01*
X177926266Y-150351531D01*
X177973172Y-150352556D01*
X178005083Y-150354811D01*
X178025791Y-150358742D01*
X178039084Y-150364798D01*
X178048755Y-150373424D01*
X178048817Y-150373493D01*
X178066356Y-150407112D01*
X178065722Y-150443448D01*
X178047314Y-150474423D01*
X178043671Y-150477607D01*
X178030741Y-150485812D01*
X178013024Y-150491521D01*
X177986570Y-150495162D01*
X177947432Y-150497167D01*
X177891662Y-150497964D01*
X177855994Y-150498045D01*
X177693555Y-150498045D01*
X177693555Y-150656089D01*
X177940161Y-150656089D01*
X178021580Y-150656231D01*
X178083410Y-150656814D01*
X178128637Y-150658068D01*
X178160248Y-150660227D01*
X178181231Y-150663523D01*
X178194573Y-150668189D01*
X178203261Y-150674457D01*
X178205450Y-150676733D01*
X178221614Y-150708280D01*
X178222797Y-150744168D01*
X178209536Y-150775285D01*
X178199043Y-150785271D01*
X178188129Y-150790769D01*
X178171217Y-150795022D01*
X178145633Y-150798180D01*
X178108701Y-150800392D01*
X178057746Y-150801806D01*
X177990094Y-150802572D01*
X177903069Y-150802838D01*
X177883394Y-150802845D01*
X177794911Y-150802787D01*
X177726227Y-150802467D01*
X177674564Y-150801667D01*
X177637145Y-150800167D01*
X177611190Y-150797749D01*
X177593922Y-150794194D01*
X177582562Y-150789282D01*
X177574332Y-150782795D01*
X177569817Y-150778138D01*
X177563021Y-150769889D01*
X177557712Y-150759669D01*
X177553706Y-150744800D01*
X177550821Y-150722602D01*
X177548874Y-150690393D01*
X177547681Y-150645496D01*
X177547061Y-150585228D01*
X177546829Y-150506911D01*
X177546800Y-150440994D01*
X177546871Y-150348628D01*
X177547208Y-150276117D01*
X177547998Y-150220737D01*
X177549426Y-150179765D01*
X177551679Y-150150478D01*
X177554943Y-150130153D01*
X177559404Y-150116066D01*
X177565248Y-150105495D01*
X177570197Y-150098811D01*
X177593594Y-150069067D01*
X177883774Y-150069067D01*
X177980343Y-150069260D01*
G37*
X173037206Y-150069146D02*
X173106614Y-150069518D01*
X173159003Y-150070385D01*
X173197153Y-150071946D01*
X173223841Y-150074403D01*
X173241847Y-150077957D01*
X173253951Y-150082810D01*
X173262931Y-150089161D01*
X173266182Y-150092084D01*
X173285957Y-150123142D01*
X173289518Y-150158828D01*
X173276509Y-150190510D01*
X173270494Y-150196913D01*
X173260765Y-150203121D01*
X173245099Y-150207910D01*
X173220592Y-150211514D01*
X173184339Y-150214164D01*
X173133435Y-150216095D01*
X173064974Y-150217539D01*
X173002383Y-150218418D01*
X172754666Y-150221467D01*
X172751281Y-150286378D01*
X172747895Y-150351289D01*
X172916042Y-150351289D01*
X172989041Y-150351919D01*
X173042483Y-150354553D01*
X173079372Y-150360309D01*
X173102712Y-150370304D01*
X173115506Y-150385656D01*
X173120758Y-150407482D01*
X173121555Y-150427738D01*
X173119077Y-150452592D01*
X173109723Y-150470906D01*
X173090617Y-150483637D01*
X173058882Y-150491741D01*
X173011641Y-150496176D01*
X172946017Y-150497899D01*
X172910199Y-150498045D01*
X172749022Y-150498045D01*
X172749022Y-150656089D01*
X172997378Y-150656089D01*
X173078787Y-150656202D01*
X173140658Y-150656712D01*
X173186032Y-150657870D01*
X173217946Y-150659930D01*
X173239441Y-150663146D01*
X173253557Y-150667772D01*
X173263332Y-150674059D01*
X173268311Y-150678667D01*
X173285390Y-150705560D01*
X173290889Y-150729467D01*
X173283037Y-150758667D01*
X173268311Y-150780267D01*
X173260454Y-150787066D01*
X173250312Y-150792346D01*
X173235156Y-150796298D01*
X173212259Y-150799113D01*
X173178891Y-150800982D01*
X173132325Y-150802098D01*
X173069833Y-150802651D01*
X172988686Y-150802833D01*
X172946578Y-150802845D01*
X172856402Y-150802765D01*
X172786076Y-150802398D01*
X172732871Y-150801552D01*
X172694060Y-150800036D01*
X172666913Y-150797659D01*
X172648702Y-150794229D01*
X172636700Y-150789554D01*
X172628178Y-150783444D01*
X172624844Y-150780267D01*
X172618245Y-150772670D01*
X172613073Y-150762870D01*
X172609154Y-150748239D01*
X172606316Y-150726152D01*
X172604385Y-150693982D01*
X172603188Y-150649103D01*
X172602552Y-150588889D01*
X172602303Y-150510713D01*
X172602266Y-150437923D01*
X172602300Y-150344707D01*
X172602535Y-150271431D01*
X172603170Y-150215458D01*
X172604406Y-150174151D01*
X172606444Y-150144872D01*
X172609483Y-150124984D01*
X172613723Y-150111850D01*
X172619365Y-150102832D01*
X172626609Y-150095293D01*
X172628394Y-150093612D01*
X172637055Y-150086172D01*
X172647118Y-150080409D01*
X172661375Y-150076112D01*
X172682617Y-150073064D01*
X172713636Y-150071051D01*
X172757223Y-150069860D01*
X172816169Y-150069275D01*
X172893266Y-150069083D01*
X172947999Y-150069067D01*
X173037206Y-150069146D01*
G36*
X173037206Y-150069146D02*
G01*
X173106614Y-150069518D01*
X173159003Y-150070385D01*
X173197153Y-150071946D01*
X173223841Y-150074403D01*
X173241847Y-150077957D01*
X173253951Y-150082810D01*
X173262931Y-150089161D01*
X173266182Y-150092084D01*
X173285957Y-150123142D01*
X173289518Y-150158828D01*
X173276509Y-150190510D01*
X173270494Y-150196913D01*
X173260765Y-150203121D01*
X173245099Y-150207910D01*
X173220592Y-150211514D01*
X173184339Y-150214164D01*
X173133435Y-150216095D01*
X173064974Y-150217539D01*
X173002383Y-150218418D01*
X172754666Y-150221467D01*
X172751281Y-150286378D01*
X172747895Y-150351289D01*
X172916042Y-150351289D01*
X172989041Y-150351919D01*
X173042483Y-150354553D01*
X173079372Y-150360309D01*
X173102712Y-150370304D01*
X173115506Y-150385656D01*
X173120758Y-150407482D01*
X173121555Y-150427738D01*
X173119077Y-150452592D01*
X173109723Y-150470906D01*
X173090617Y-150483637D01*
X173058882Y-150491741D01*
X173011641Y-150496176D01*
X172946017Y-150497899D01*
X172910199Y-150498045D01*
X172749022Y-150498045D01*
X172749022Y-150656089D01*
X172997378Y-150656089D01*
X173078787Y-150656202D01*
X173140658Y-150656712D01*
X173186032Y-150657870D01*
X173217946Y-150659930D01*
X173239441Y-150663146D01*
X173253557Y-150667772D01*
X173263332Y-150674059D01*
X173268311Y-150678667D01*
X173285390Y-150705560D01*
X173290889Y-150729467D01*
X173283037Y-150758667D01*
X173268311Y-150780267D01*
X173260454Y-150787066D01*
X173250312Y-150792346D01*
X173235156Y-150796298D01*
X173212259Y-150799113D01*
X173178891Y-150800982D01*
X173132325Y-150802098D01*
X173069833Y-150802651D01*
X172988686Y-150802833D01*
X172946578Y-150802845D01*
X172856402Y-150802765D01*
X172786076Y-150802398D01*
X172732871Y-150801552D01*
X172694060Y-150800036D01*
X172666913Y-150797659D01*
X172648702Y-150794229D01*
X172636700Y-150789554D01*
X172628178Y-150783444D01*
X172624844Y-150780267D01*
X172618245Y-150772670D01*
X172613073Y-150762870D01*
X172609154Y-150748239D01*
X172606316Y-150726152D01*
X172604385Y-150693982D01*
X172603188Y-150649103D01*
X172602552Y-150588889D01*
X172602303Y-150510713D01*
X172602266Y-150437923D01*
X172602300Y-150344707D01*
X172602535Y-150271431D01*
X172603170Y-150215458D01*
X172604406Y-150174151D01*
X172606444Y-150144872D01*
X172609483Y-150124984D01*
X172613723Y-150111850D01*
X172619365Y-150102832D01*
X172626609Y-150095293D01*
X172628394Y-150093612D01*
X172637055Y-150086172D01*
X172647118Y-150080409D01*
X172661375Y-150076112D01*
X172682617Y-150073064D01*
X172713636Y-150071051D01*
X172757223Y-150069860D01*
X172816169Y-150069275D01*
X172893266Y-150069083D01*
X172947999Y-150069067D01*
X173037206Y-150069146D01*
G37*
X181494665Y-150071034D02*
X181514255Y-150078035D01*
X181515010Y-150078377D01*
X181541613Y-150098678D01*
X181556270Y-150119561D01*
X181559138Y-150129352D01*
X181558996Y-150142361D01*
X181554961Y-150160895D01*
X181546146Y-150187257D01*
X181531669Y-150223752D01*
X181510645Y-150272687D01*
X181482188Y-150336365D01*
X181445415Y-150417093D01*
X181425175Y-150461216D01*
X181388625Y-150539985D01*
X181354315Y-150612423D01*
X181323552Y-150675880D01*
X181297648Y-150727708D01*
X181277910Y-150765259D01*
X181265650Y-150785884D01*
X181263224Y-150788733D01*
X181232183Y-150801302D01*
X181197121Y-150799619D01*
X181169000Y-150784332D01*
X181167854Y-150783089D01*
X181156668Y-150766154D01*
X181137904Y-150733170D01*
X181113875Y-150688380D01*
X181086897Y-150636032D01*
X181077201Y-150616742D01*
X181004014Y-150470150D01*
X180924240Y-150629393D01*
X180895767Y-150684415D01*
X180869350Y-150732132D01*
X180847148Y-150768893D01*
X180831319Y-150791044D01*
X180825954Y-150795741D01*
X180784257Y-150802102D01*
X180749849Y-150788733D01*
X180739728Y-150774446D01*
X180722214Y-150742692D01*
X180698735Y-150696597D01*
X180670720Y-150639285D01*
X180639599Y-150573880D01*
X180606799Y-150503507D01*
X180573750Y-150431291D01*
X180541881Y-150360355D01*
X180512619Y-150293825D01*
X180487395Y-150234826D01*
X180467636Y-150186481D01*
X180454772Y-150151915D01*
X180450231Y-150134253D01*
X180450277Y-150133613D01*
X180461326Y-150111388D01*
X180483410Y-150088753D01*
X180484710Y-150087768D01*
X180511853Y-150072425D01*
X180536958Y-150072574D01*
X180546368Y-150075466D01*
X180557834Y-150081718D01*
X180570010Y-150094014D01*
X180584357Y-150114908D01*
X180602336Y-150146949D01*
X180625407Y-150192688D01*
X180655030Y-150254677D01*
X180681745Y-150311898D01*
X180712480Y-150378226D01*
X180740021Y-150437874D01*
X180762938Y-150487725D01*
X180779798Y-150524664D01*
X180789173Y-150545573D01*
X180790540Y-150548845D01*
X180796689Y-150543497D01*
X180810822Y-150521109D01*
X180831057Y-150484946D01*
X180855515Y-150438277D01*
X180865248Y-150419022D01*
X180898217Y-150354004D01*
X180923643Y-150306654D01*
X180943612Y-150274219D01*
X180960210Y-150253946D01*
X180975524Y-150243082D01*
X180991640Y-150238875D01*
X181002143Y-150238400D01*
X181020670Y-150240042D01*
X181036904Y-150246831D01*
X181053035Y-150261566D01*
X181071251Y-150287044D01*
X181093739Y-150326061D01*
X181122689Y-150381414D01*
X181138662Y-150412903D01*
X181164570Y-150463087D01*
X181187167Y-150504704D01*
X181204458Y-150534242D01*
X181214450Y-150548189D01*
X181215809Y-150548770D01*
X181222261Y-150537793D01*
X181236708Y-150509290D01*
X181257703Y-150466244D01*
X181283797Y-150411638D01*
X181313546Y-150348454D01*
X181328180Y-150317071D01*
X181366250Y-150236078D01*
X181396905Y-150173756D01*
X181421737Y-150128071D01*
X181442337Y-150096989D01*
X181460298Y-150078478D01*
X181477210Y-150070504D01*
X181494665Y-150071034D01*
G36*
X181494665Y-150071034D02*
G01*
X181514255Y-150078035D01*
X181515010Y-150078377D01*
X181541613Y-150098678D01*
X181556270Y-150119561D01*
X181559138Y-150129352D01*
X181558996Y-150142361D01*
X181554961Y-150160895D01*
X181546146Y-150187257D01*
X181531669Y-150223752D01*
X181510645Y-150272687D01*
X181482188Y-150336365D01*
X181445415Y-150417093D01*
X181425175Y-150461216D01*
X181388625Y-150539985D01*
X181354315Y-150612423D01*
X181323552Y-150675880D01*
X181297648Y-150727708D01*
X181277910Y-150765259D01*
X181265650Y-150785884D01*
X181263224Y-150788733D01*
X181232183Y-150801302D01*
X181197121Y-150799619D01*
X181169000Y-150784332D01*
X181167854Y-150783089D01*
X181156668Y-150766154D01*
X181137904Y-150733170D01*
X181113875Y-150688380D01*
X181086897Y-150636032D01*
X181077201Y-150616742D01*
X181004014Y-150470150D01*
X180924240Y-150629393D01*
X180895767Y-150684415D01*
X180869350Y-150732132D01*
X180847148Y-150768893D01*
X180831319Y-150791044D01*
X180825954Y-150795741D01*
X180784257Y-150802102D01*
X180749849Y-150788733D01*
X180739728Y-150774446D01*
X180722214Y-150742692D01*
X180698735Y-150696597D01*
X180670720Y-150639285D01*
X180639599Y-150573880D01*
X180606799Y-150503507D01*
X180573750Y-150431291D01*
X180541881Y-150360355D01*
X180512619Y-150293825D01*
X180487395Y-150234826D01*
X180467636Y-150186481D01*
X180454772Y-150151915D01*
X180450231Y-150134253D01*
X180450277Y-150133613D01*
X180461326Y-150111388D01*
X180483410Y-150088753D01*
X180484710Y-150087768D01*
X180511853Y-150072425D01*
X180536958Y-150072574D01*
X180546368Y-150075466D01*
X180557834Y-150081718D01*
X180570010Y-150094014D01*
X180584357Y-150114908D01*
X180602336Y-150146949D01*
X180625407Y-150192688D01*
X180655030Y-150254677D01*
X180681745Y-150311898D01*
X180712480Y-150378226D01*
X180740021Y-150437874D01*
X180762938Y-150487725D01*
X180779798Y-150524664D01*
X180789173Y-150545573D01*
X180790540Y-150548845D01*
X180796689Y-150543497D01*
X180810822Y-150521109D01*
X180831057Y-150484946D01*
X180855515Y-150438277D01*
X180865248Y-150419022D01*
X180898217Y-150354004D01*
X180923643Y-150306654D01*
X180943612Y-150274219D01*
X180960210Y-150253946D01*
X180975524Y-150243082D01*
X180991640Y-150238875D01*
X181002143Y-150238400D01*
X181020670Y-150240042D01*
X181036904Y-150246831D01*
X181053035Y-150261566D01*
X181071251Y-150287044D01*
X181093739Y-150326061D01*
X181122689Y-150381414D01*
X181138662Y-150412903D01*
X181164570Y-150463087D01*
X181187167Y-150504704D01*
X181204458Y-150534242D01*
X181214450Y-150548189D01*
X181215809Y-150548770D01*
X181222261Y-150537793D01*
X181236708Y-150509290D01*
X181257703Y-150466244D01*
X181283797Y-150411638D01*
X181313546Y-150348454D01*
X181328180Y-150317071D01*
X181366250Y-150236078D01*
X181396905Y-150173756D01*
X181421737Y-150128071D01*
X181442337Y-150096989D01*
X181460298Y-150078478D01*
X181477210Y-150070504D01*
X181494665Y-150071034D01*
G37*
X174058297Y-150070351D02*
X174133112Y-150075581D01*
X174202694Y-150083750D01*
X174262998Y-150094550D01*
X174309980Y-150107673D01*
X174339594Y-150122813D01*
X174344140Y-150127269D01*
X174359946Y-150161850D01*
X174355153Y-150197351D01*
X174330636Y-150227725D01*
X174329466Y-150228596D01*
X174315046Y-150237954D01*
X174299992Y-150242876D01*
X174278995Y-150243473D01*
X174246743Y-150239861D01*
X174197927Y-150232154D01*
X174194000Y-150231505D01*
X174121261Y-150222569D01*
X174042783Y-150218161D01*
X173964073Y-150218119D01*
X173890639Y-150222279D01*
X173827989Y-150230479D01*
X173781630Y-150242557D01*
X173778584Y-150243771D01*
X173744952Y-150262615D01*
X173733136Y-150281685D01*
X173742386Y-150300439D01*
X173771953Y-150318337D01*
X173821089Y-150334837D01*
X173889043Y-150349396D01*
X173934355Y-150356406D01*
X174028544Y-150369889D01*
X174103456Y-150382214D01*
X174162283Y-150394449D01*
X174208215Y-150407661D01*
X174244445Y-150422917D01*
X174274162Y-150441285D01*
X174300558Y-150463831D01*
X174321770Y-150485971D01*
X174346935Y-150516819D01*
X174359319Y-150543345D01*
X174363192Y-150576026D01*
X174363333Y-150587995D01*
X174360424Y-150627712D01*
X174348798Y-150657259D01*
X174328677Y-150683486D01*
X174287784Y-150723576D01*
X174242183Y-150754149D01*
X174188487Y-150776203D01*
X174123308Y-150790735D01*
X174043256Y-150798741D01*
X173944943Y-150801218D01*
X173928711Y-150801177D01*
X173863151Y-150799818D01*
X173798134Y-150796730D01*
X173740748Y-150792356D01*
X173698078Y-150787140D01*
X173694628Y-150786541D01*
X173652204Y-150776491D01*
X173616220Y-150763796D01*
X173595850Y-150752190D01*
X173576893Y-150721572D01*
X173575573Y-150685918D01*
X173591915Y-150654144D01*
X173595571Y-150650551D01*
X173610685Y-150639876D01*
X173629585Y-150635276D01*
X173658838Y-150636059D01*
X173694349Y-150640127D01*
X173734030Y-150643762D01*
X173789655Y-150646828D01*
X173854594Y-150649053D01*
X173922215Y-150650164D01*
X173940000Y-150650237D01*
X174007872Y-150649964D01*
X174057546Y-150648646D01*
X174093390Y-150645827D01*
X174119776Y-150641050D01*
X174141074Y-150633857D01*
X174153874Y-150627867D01*
X174182000Y-150611233D01*
X174199932Y-150596168D01*
X174202553Y-150591897D01*
X174197024Y-150574263D01*
X174170740Y-150557192D01*
X174125522Y-150541458D01*
X174063192Y-150527838D01*
X174044829Y-150524804D01*
X173948910Y-150509738D01*
X173872359Y-150497146D01*
X173812220Y-150486111D01*
X173765540Y-150475720D01*
X173729363Y-150465056D01*
X173700735Y-150453205D01*
X173676702Y-150439251D01*
X173654308Y-150422281D01*
X173630598Y-150401378D01*
X173622620Y-150394049D01*
X173594647Y-150366699D01*
X173579840Y-150345029D01*
X173574048Y-150320232D01*
X173573111Y-150288983D01*
X173583425Y-150227705D01*
X173614248Y-150175640D01*
X173665405Y-150132958D01*
X173736717Y-150099825D01*
X173787600Y-150084964D01*
X173842900Y-150075366D01*
X173909147Y-150069936D01*
X173982294Y-150068367D01*
X174058297Y-150070351D01*
G36*
X174058297Y-150070351D02*
G01*
X174133112Y-150075581D01*
X174202694Y-150083750D01*
X174262998Y-150094550D01*
X174309980Y-150107673D01*
X174339594Y-150122813D01*
X174344140Y-150127269D01*
X174359946Y-150161850D01*
X174355153Y-150197351D01*
X174330636Y-150227725D01*
X174329466Y-150228596D01*
X174315046Y-150237954D01*
X174299992Y-150242876D01*
X174278995Y-150243473D01*
X174246743Y-150239861D01*
X174197927Y-150232154D01*
X174194000Y-150231505D01*
X174121261Y-150222569D01*
X174042783Y-150218161D01*
X173964073Y-150218119D01*
X173890639Y-150222279D01*
X173827989Y-150230479D01*
X173781630Y-150242557D01*
X173778584Y-150243771D01*
X173744952Y-150262615D01*
X173733136Y-150281685D01*
X173742386Y-150300439D01*
X173771953Y-150318337D01*
X173821089Y-150334837D01*
X173889043Y-150349396D01*
X173934355Y-150356406D01*
X174028544Y-150369889D01*
X174103456Y-150382214D01*
X174162283Y-150394449D01*
X174208215Y-150407661D01*
X174244445Y-150422917D01*
X174274162Y-150441285D01*
X174300558Y-150463831D01*
X174321770Y-150485971D01*
X174346935Y-150516819D01*
X174359319Y-150543345D01*
X174363192Y-150576026D01*
X174363333Y-150587995D01*
X174360424Y-150627712D01*
X174348798Y-150657259D01*
X174328677Y-150683486D01*
X174287784Y-150723576D01*
X174242183Y-150754149D01*
X174188487Y-150776203D01*
X174123308Y-150790735D01*
X174043256Y-150798741D01*
X173944943Y-150801218D01*
X173928711Y-150801177D01*
X173863151Y-150799818D01*
X173798134Y-150796730D01*
X173740748Y-150792356D01*
X173698078Y-150787140D01*
X173694628Y-150786541D01*
X173652204Y-150776491D01*
X173616220Y-150763796D01*
X173595850Y-150752190D01*
X173576893Y-150721572D01*
X173575573Y-150685918D01*
X173591915Y-150654144D01*
X173595571Y-150650551D01*
X173610685Y-150639876D01*
X173629585Y-150635276D01*
X173658838Y-150636059D01*
X173694349Y-150640127D01*
X173734030Y-150643762D01*
X173789655Y-150646828D01*
X173854594Y-150649053D01*
X173922215Y-150650164D01*
X173940000Y-150650237D01*
X174007872Y-150649964D01*
X174057546Y-150648646D01*
X174093390Y-150645827D01*
X174119776Y-150641050D01*
X174141074Y-150633857D01*
X174153874Y-150627867D01*
X174182000Y-150611233D01*
X174199932Y-150596168D01*
X174202553Y-150591897D01*
X174197024Y-150574263D01*
X174170740Y-150557192D01*
X174125522Y-150541458D01*
X174063192Y-150527838D01*
X174044829Y-150524804D01*
X173948910Y-150509738D01*
X173872359Y-150497146D01*
X173812220Y-150486111D01*
X173765540Y-150475720D01*
X173729363Y-150465056D01*
X173700735Y-150453205D01*
X173676702Y-150439251D01*
X173654308Y-150422281D01*
X173630598Y-150401378D01*
X173622620Y-150394049D01*
X173594647Y-150366699D01*
X173579840Y-150345029D01*
X173574048Y-150320232D01*
X173573111Y-150288983D01*
X173583425Y-150227705D01*
X173614248Y-150175640D01*
X173665405Y-150132958D01*
X173736717Y-150099825D01*
X173787600Y-150084964D01*
X173842900Y-150075366D01*
X173909147Y-150069936D01*
X173982294Y-150068367D01*
X174058297Y-150070351D01*
G37*
X178078429Y-145749071D02*
X178238570Y-145770245D01*
X178402510Y-145810385D01*
X178572313Y-145869889D01*
X178750043Y-145949154D01*
X178761310Y-145954699D01*
X178819005Y-145982725D01*
X178870552Y-146006802D01*
X178912191Y-146025249D01*
X178940162Y-146036386D01*
X178949733Y-146038933D01*
X178968950Y-146043941D01*
X178973561Y-146048147D01*
X178968458Y-146058580D01*
X178952418Y-146084868D01*
X178927288Y-146124257D01*
X178894914Y-146173991D01*
X178857143Y-146231315D01*
X178815822Y-146293476D01*
X178772798Y-146357718D01*
X178729917Y-146421285D01*
X178689026Y-146481425D01*
X178651971Y-146535380D01*
X178620600Y-146580397D01*
X178596759Y-146613721D01*
X178582294Y-146632597D01*
X178580309Y-146634787D01*
X178570191Y-146630138D01*
X178547850Y-146612962D01*
X178517280Y-146586440D01*
X178501536Y-146571964D01*
X178405047Y-146496682D01*
X178298336Y-146441241D01*
X178182832Y-146406141D01*
X178059962Y-146391880D01*
X177990561Y-146393051D01*
X177869423Y-146410212D01*
X177760205Y-146446094D01*
X177662582Y-146500959D01*
X177576228Y-146575070D01*
X177500815Y-146668688D01*
X177436018Y-146782076D01*
X177398601Y-146868667D01*
X177354748Y-147004366D01*
X177322428Y-147151850D01*
X177301557Y-147307314D01*
X177292051Y-147466956D01*
X177293827Y-147626973D01*
X177306803Y-147783561D01*
X177330894Y-147932918D01*
X177366018Y-148071240D01*
X177412092Y-148194724D01*
X177428373Y-148228978D01*
X177496620Y-148343064D01*
X177577079Y-148439557D01*
X177668570Y-148517670D01*
X177769911Y-148576617D01*
X177879920Y-148615612D01*
X177997415Y-148633868D01*
X178038883Y-148635211D01*
X178160441Y-148624290D01*
X178280878Y-148591474D01*
X178398666Y-148537439D01*
X178512277Y-148462865D01*
X178603685Y-148384539D01*
X178650215Y-148340008D01*
X178831483Y-148637271D01*
X178876580Y-148711433D01*
X178917819Y-148779646D01*
X178953735Y-148839459D01*
X178982866Y-148888420D01*
X179003750Y-148924079D01*
X179014924Y-148943984D01*
X179016375Y-148947079D01*
X179008146Y-148956718D01*
X178982567Y-148973999D01*
X178942873Y-148997283D01*
X178892297Y-149024934D01*
X178834074Y-149055315D01*
X178771437Y-149086790D01*
X178707621Y-149117722D01*
X178645860Y-149146473D01*
X178589388Y-149171408D01*
X178541438Y-149190889D01*
X178517986Y-149199318D01*
X178384221Y-149237133D01*
X178246327Y-149262136D01*
X178098622Y-149275140D01*
X177971833Y-149277468D01*
X177903878Y-149276373D01*
X177838277Y-149274275D01*
X177780847Y-149271434D01*
X177737403Y-149268106D01*
X177723298Y-149266422D01*
X177584284Y-149237587D01*
X177442757Y-149192468D01*
X177305275Y-149133750D01*
X177178394Y-149064120D01*
X177100889Y-149011441D01*
X176973481Y-148903239D01*
X176855178Y-148776671D01*
X176748172Y-148634866D01*
X176654652Y-148480951D01*
X176576810Y-148318053D01*
X176532956Y-148200756D01*
X176482708Y-148017128D01*
X176449209Y-147822581D01*
X176432449Y-147621325D01*
X176432416Y-147417568D01*
X176449101Y-147215521D01*
X176482493Y-147019392D01*
X176532580Y-146833391D01*
X176536397Y-146821803D01*
X176599281Y-146659750D01*
X176676028Y-146511832D01*
X176769242Y-146373865D01*
X176881527Y-146241661D01*
X176925392Y-146196399D01*
X177061534Y-146072457D01*
X177201491Y-145969915D01*
X177347411Y-145887656D01*
X177501442Y-145824564D01*
X177665732Y-145779523D01*
X177761289Y-145762033D01*
X177920023Y-145746466D01*
X178078429Y-145749071D01*
G36*
X178078429Y-145749071D02*
G01*
X178238570Y-145770245D01*
X178402510Y-145810385D01*
X178572313Y-145869889D01*
X178750043Y-145949154D01*
X178761310Y-145954699D01*
X178819005Y-145982725D01*
X178870552Y-146006802D01*
X178912191Y-146025249D01*
X178940162Y-146036386D01*
X178949733Y-146038933D01*
X178968950Y-146043941D01*
X178973561Y-146048147D01*
X178968458Y-146058580D01*
X178952418Y-146084868D01*
X178927288Y-146124257D01*
X178894914Y-146173991D01*
X178857143Y-146231315D01*
X178815822Y-146293476D01*
X178772798Y-146357718D01*
X178729917Y-146421285D01*
X178689026Y-146481425D01*
X178651971Y-146535380D01*
X178620600Y-146580397D01*
X178596759Y-146613721D01*
X178582294Y-146632597D01*
X178580309Y-146634787D01*
X178570191Y-146630138D01*
X178547850Y-146612962D01*
X178517280Y-146586440D01*
X178501536Y-146571964D01*
X178405047Y-146496682D01*
X178298336Y-146441241D01*
X178182832Y-146406141D01*
X178059962Y-146391880D01*
X177990561Y-146393051D01*
X177869423Y-146410212D01*
X177760205Y-146446094D01*
X177662582Y-146500959D01*
X177576228Y-146575070D01*
X177500815Y-146668688D01*
X177436018Y-146782076D01*
X177398601Y-146868667D01*
X177354748Y-147004366D01*
X177322428Y-147151850D01*
X177301557Y-147307314D01*
X177292051Y-147466956D01*
X177293827Y-147626973D01*
X177306803Y-147783561D01*
X177330894Y-147932918D01*
X177366018Y-148071240D01*
X177412092Y-148194724D01*
X177428373Y-148228978D01*
X177496620Y-148343064D01*
X177577079Y-148439557D01*
X177668570Y-148517670D01*
X177769911Y-148576617D01*
X177879920Y-148615612D01*
X177997415Y-148633868D01*
X178038883Y-148635211D01*
X178160441Y-148624290D01*
X178280878Y-148591474D01*
X178398666Y-148537439D01*
X178512277Y-148462865D01*
X178603685Y-148384539D01*
X178650215Y-148340008D01*
X178831483Y-148637271D01*
X178876580Y-148711433D01*
X178917819Y-148779646D01*
X178953735Y-148839459D01*
X178982866Y-148888420D01*
X179003750Y-148924079D01*
X179014924Y-148943984D01*
X179016375Y-148947079D01*
X179008146Y-148956718D01*
X178982567Y-148973999D01*
X178942873Y-148997283D01*
X178892297Y-149024934D01*
X178834074Y-149055315D01*
X178771437Y-149086790D01*
X178707621Y-149117722D01*
X178645860Y-149146473D01*
X178589388Y-149171408D01*
X178541438Y-149190889D01*
X178517986Y-149199318D01*
X178384221Y-149237133D01*
X178246327Y-149262136D01*
X178098622Y-149275140D01*
X177971833Y-149277468D01*
X177903878Y-149276373D01*
X177838277Y-149274275D01*
X177780847Y-149271434D01*
X177737403Y-149268106D01*
X177723298Y-149266422D01*
X177584284Y-149237587D01*
X177442757Y-149192468D01*
X177305275Y-149133750D01*
X177178394Y-149064120D01*
X177100889Y-149011441D01*
X176973481Y-148903239D01*
X176855178Y-148776671D01*
X176748172Y-148634866D01*
X176654652Y-148480951D01*
X176576810Y-148318053D01*
X176532956Y-148200756D01*
X176482708Y-148017128D01*
X176449209Y-147822581D01*
X176432449Y-147621325D01*
X176432416Y-147417568D01*
X176449101Y-147215521D01*
X176482493Y-147019392D01*
X176532580Y-146833391D01*
X176536397Y-146821803D01*
X176599281Y-146659750D01*
X176676028Y-146511832D01*
X176769242Y-146373865D01*
X176881527Y-146241661D01*
X176925392Y-146196399D01*
X177061534Y-146072457D01*
X177201491Y-145969915D01*
X177347411Y-145887656D01*
X177501442Y-145824564D01*
X177665732Y-145779523D01*
X177761289Y-145762033D01*
X177920023Y-145746466D01*
X178078429Y-145749071D01*
G37*
X183936507Y-147272245D02*
X183936526Y-147506662D01*
X183936552Y-147719603D01*
X183936625Y-147912168D01*
X183936782Y-148085459D01*
X183937064Y-148240576D01*
X183937509Y-148378620D01*
X183938156Y-148500692D01*
X183939045Y-148607894D01*
X183940213Y-148701326D01*
X183941701Y-148782090D01*
X183943546Y-148851286D01*
X183945789Y-148910015D01*
X183948469Y-148959379D01*
X183951623Y-149000478D01*
X183955292Y-149034413D01*
X183959513Y-149062286D01*
X183964327Y-149085198D01*
X183969773Y-149104249D01*
X183975888Y-149120540D01*
X183982712Y-149135173D01*
X183990285Y-149149249D01*
X183998645Y-149163868D01*
X184003839Y-149172974D01*
X184038104Y-149233689D01*
X183179955Y-149233689D01*
X183179955Y-149137733D01*
X183179224Y-149094370D01*
X183177272Y-149061205D01*
X183174463Y-149043424D01*
X183173221Y-149041778D01*
X183161799Y-149048662D01*
X183139084Y-149066505D01*
X183116385Y-149085879D01*
X183061800Y-149126614D01*
X182992321Y-149167617D01*
X182915270Y-149205123D01*
X182837965Y-149235364D01*
X182807113Y-149245012D01*
X182738616Y-149259578D01*
X182655764Y-149269539D01*
X182566371Y-149274583D01*
X182478248Y-149274396D01*
X182399207Y-149268666D01*
X182361511Y-149262858D01*
X182223414Y-149224797D01*
X182096113Y-149167073D01*
X181980292Y-149090211D01*
X181876637Y-148994739D01*
X181785833Y-148881179D01*
X181719031Y-148770381D01*
X181664164Y-148653625D01*
X181622163Y-148534276D01*
X181592167Y-148408283D01*
X181573311Y-148271594D01*
X181564732Y-148120158D01*
X181564006Y-148042711D01*
X181566100Y-147985934D01*
X182395217Y-147985934D01*
X182395424Y-148079002D01*
X182398337Y-148166692D01*
X182404000Y-148243772D01*
X182412455Y-148305009D01*
X182415038Y-148317350D01*
X182446840Y-148424633D01*
X182488498Y-148511658D01*
X182540363Y-148578642D01*
X182602781Y-148625805D01*
X182676100Y-148653365D01*
X182760669Y-148661541D01*
X182856835Y-148650551D01*
X182920311Y-148634829D01*
X182969454Y-148616639D01*
X183023583Y-148590791D01*
X183064244Y-148567089D01*
X183134800Y-148520721D01*
X183134800Y-147370530D01*
X183067392Y-147326962D01*
X182988867Y-147286040D01*
X182904681Y-147259389D01*
X182819557Y-147247465D01*
X182738216Y-147250722D01*
X182665380Y-147269615D01*
X182633426Y-147285184D01*
X182575501Y-147328181D01*
X182526544Y-147384953D01*
X182485390Y-147457575D01*
X182450874Y-147548121D01*
X182421833Y-147658666D01*
X182420552Y-147664533D01*
X182410381Y-147726788D01*
X182402739Y-147804594D01*
X182397670Y-147892720D01*
X182395217Y-147985934D01*
X181566100Y-147985934D01*
X181571857Y-147829895D01*
X181593802Y-147634059D01*
X181629786Y-147455332D01*
X181679759Y-147293845D01*
X181743668Y-147149726D01*
X181821462Y-147023106D01*
X181913089Y-146914115D01*
X182018497Y-146822883D01*
X182063662Y-146791932D01*
X182164611Y-146735785D01*
X182267901Y-146696174D01*
X182377989Y-146672014D01*
X182499330Y-146662219D01*
X182591836Y-146663265D01*
X182721490Y-146674231D01*
X182834084Y-146696046D01*
X182932875Y-146729714D01*
X183021121Y-146776236D01*
X183069986Y-146810448D01*
X183099353Y-146832362D01*
X183121043Y-146847333D01*
X183129253Y-146851733D01*
X183130868Y-146840904D01*
X183132159Y-146810251D01*
X183133138Y-146762526D01*
X183133817Y-146700479D01*
X183134210Y-146626862D01*
X183134330Y-146544427D01*
X183134188Y-146455925D01*
X183133797Y-146364107D01*
X183133171Y-146271724D01*
X183132320Y-146181528D01*
X183131260Y-146096271D01*
X183130001Y-146018703D01*
X183128556Y-145951576D01*
X183126938Y-145897641D01*
X183125161Y-145859650D01*
X183124669Y-145852667D01*
X183117092Y-145782251D01*
X183105531Y-145727102D01*
X183087792Y-145679981D01*
X183061682Y-145633647D01*
X183055415Y-145624067D01*
X183030983Y-145587378D01*
X183936311Y-145587378D01*
X183936507Y-147272245D01*
G36*
X183936507Y-147272245D02*
G01*
X183936526Y-147506662D01*
X183936552Y-147719603D01*
X183936625Y-147912168D01*
X183936782Y-148085459D01*
X183937064Y-148240576D01*
X183937509Y-148378620D01*
X183938156Y-148500692D01*
X183939045Y-148607894D01*
X183940213Y-148701326D01*
X183941701Y-148782090D01*
X183943546Y-148851286D01*
X183945789Y-148910015D01*
X183948469Y-148959379D01*
X183951623Y-149000478D01*
X183955292Y-149034413D01*
X183959513Y-149062286D01*
X183964327Y-149085198D01*
X183969773Y-149104249D01*
X183975888Y-149120540D01*
X183982712Y-149135173D01*
X183990285Y-149149249D01*
X183998645Y-149163868D01*
X184003839Y-149172974D01*
X184038104Y-149233689D01*
X183179955Y-149233689D01*
X183179955Y-149137733D01*
X183179224Y-149094370D01*
X183177272Y-149061205D01*
X183174463Y-149043424D01*
X183173221Y-149041778D01*
X183161799Y-149048662D01*
X183139084Y-149066505D01*
X183116385Y-149085879D01*
X183061800Y-149126614D01*
X182992321Y-149167617D01*
X182915270Y-149205123D01*
X182837965Y-149235364D01*
X182807113Y-149245012D01*
X182738616Y-149259578D01*
X182655764Y-149269539D01*
X182566371Y-149274583D01*
X182478248Y-149274396D01*
X182399207Y-149268666D01*
X182361511Y-149262858D01*
X182223414Y-149224797D01*
X182096113Y-149167073D01*
X181980292Y-149090211D01*
X181876637Y-148994739D01*
X181785833Y-148881179D01*
X181719031Y-148770381D01*
X181664164Y-148653625D01*
X181622163Y-148534276D01*
X181592167Y-148408283D01*
X181573311Y-148271594D01*
X181564732Y-148120158D01*
X181564006Y-148042711D01*
X181566100Y-147985934D01*
X182395217Y-147985934D01*
X182395424Y-148079002D01*
X182398337Y-148166692D01*
X182404000Y-148243772D01*
X182412455Y-148305009D01*
X182415038Y-148317350D01*
X182446840Y-148424633D01*
X182488498Y-148511658D01*
X182540363Y-148578642D01*
X182602781Y-148625805D01*
X182676100Y-148653365D01*
X182760669Y-148661541D01*
X182856835Y-148650551D01*
X182920311Y-148634829D01*
X182969454Y-148616639D01*
X183023583Y-148590791D01*
X183064244Y-148567089D01*
X183134800Y-148520721D01*
X183134800Y-147370530D01*
X183067392Y-147326962D01*
X182988867Y-147286040D01*
X182904681Y-147259389D01*
X182819557Y-147247465D01*
X182738216Y-147250722D01*
X182665380Y-147269615D01*
X182633426Y-147285184D01*
X182575501Y-147328181D01*
X182526544Y-147384953D01*
X182485390Y-147457575D01*
X182450874Y-147548121D01*
X182421833Y-147658666D01*
X182420552Y-147664533D01*
X182410381Y-147726788D01*
X182402739Y-147804594D01*
X182397670Y-147892720D01*
X182395217Y-147985934D01*
X181566100Y-147985934D01*
X181571857Y-147829895D01*
X181593802Y-147634059D01*
X181629786Y-147455332D01*
X181679759Y-147293845D01*
X181743668Y-147149726D01*
X181821462Y-147023106D01*
X181913089Y-146914115D01*
X182018497Y-146822883D01*
X182063662Y-146791932D01*
X182164611Y-146735785D01*
X182267901Y-146696174D01*
X182377989Y-146672014D01*
X182499330Y-146662219D01*
X182591836Y-146663265D01*
X182721490Y-146674231D01*
X182834084Y-146696046D01*
X182932875Y-146729714D01*
X183021121Y-146776236D01*
X183069986Y-146810448D01*
X183099353Y-146832362D01*
X183121043Y-146847333D01*
X183129253Y-146851733D01*
X183130868Y-146840904D01*
X183132159Y-146810251D01*
X183133138Y-146762526D01*
X183133817Y-146700479D01*
X183134210Y-146626862D01*
X183134330Y-146544427D01*
X183134188Y-146455925D01*
X183133797Y-146364107D01*
X183133171Y-146271724D01*
X183132320Y-146181528D01*
X183131260Y-146096271D01*
X183130001Y-146018703D01*
X183128556Y-145951576D01*
X183126938Y-145897641D01*
X183125161Y-145859650D01*
X183124669Y-145852667D01*
X183117092Y-145782251D01*
X183105531Y-145727102D01*
X183087792Y-145679981D01*
X183061682Y-145633647D01*
X183055415Y-145624067D01*
X183030983Y-145587378D01*
X183936311Y-145587378D01*
X183936507Y-147272245D01*
G37*
X180423574Y-146666552D02*
X180575492Y-146686567D01*
X180710756Y-146720202D01*
X180830239Y-146767725D01*
X180934815Y-146829405D01*
X181012424Y-146892965D01*
X181081265Y-146967099D01*
X181135006Y-147046871D01*
X181177910Y-147139091D01*
X181193384Y-147182161D01*
X181206244Y-147221142D01*
X181217446Y-147257289D01*
X181227120Y-147292434D01*
X181235396Y-147328410D01*
X181242403Y-147367050D01*
X181248272Y-147410185D01*
X181253131Y-147459649D01*
X181257110Y-147517273D01*
X181260340Y-147584891D01*
X181262949Y-147664334D01*
X181265067Y-147757436D01*
X181266824Y-147866027D01*
X181268349Y-147991942D01*
X181269772Y-148137012D01*
X181271025Y-148279778D01*
X181272351Y-148435968D01*
X181273556Y-148571239D01*
X181274766Y-148687246D01*
X181276106Y-148785645D01*
X181277700Y-148868093D01*
X181279675Y-148936246D01*
X181282156Y-148991760D01*
X181285269Y-149036292D01*
X181289138Y-149071498D01*
X181293889Y-149099034D01*
X181299648Y-149120556D01*
X181306539Y-149137722D01*
X181314689Y-149152186D01*
X181324223Y-149165606D01*
X181335266Y-149179638D01*
X181339566Y-149185071D01*
X181355386Y-149207910D01*
X181362422Y-149223463D01*
X181362444Y-149223922D01*
X181351567Y-149226121D01*
X181320582Y-149228147D01*
X181271957Y-149229942D01*
X181208163Y-149231451D01*
X181131669Y-149232616D01*
X181044944Y-149233380D01*
X180950457Y-149233686D01*
X180939550Y-149233689D01*
X180516657Y-149233689D01*
X180513395Y-149137622D01*
X180510133Y-149041556D01*
X180448044Y-149092543D01*
X180350714Y-149160057D01*
X180240813Y-149214749D01*
X180154349Y-149244978D01*
X180085278Y-149259666D01*
X180001925Y-149269659D01*
X179912159Y-149274646D01*
X179823845Y-149274313D01*
X179744851Y-149268351D01*
X179708622Y-149262638D01*
X179568603Y-149224776D01*
X179442178Y-149169932D01*
X179330260Y-149098924D01*
X179233762Y-149012568D01*
X179153600Y-148911679D01*
X179090687Y-148797076D01*
X179046312Y-148670984D01*
X179033978Y-148614401D01*
X179026368Y-148552202D01*
X179022739Y-148477363D01*
X179022245Y-148443467D01*
X179022310Y-148440282D01*
X179782248Y-148440282D01*
X179791541Y-148515333D01*
X179819728Y-148579160D01*
X179868197Y-148634798D01*
X179873254Y-148639211D01*
X179921548Y-148674037D01*
X179973257Y-148696620D01*
X180033989Y-148708540D01*
X180109352Y-148711383D01*
X180127459Y-148710978D01*
X180181278Y-148708325D01*
X180221308Y-148702909D01*
X180256324Y-148692745D01*
X180295103Y-148675850D01*
X180305745Y-148670672D01*
X180366396Y-148634844D01*
X180413215Y-148592212D01*
X180425952Y-148576973D01*
X180470622Y-148520462D01*
X180470622Y-148324586D01*
X180470086Y-148245939D01*
X180468396Y-148187988D01*
X180465428Y-148148875D01*
X180461057Y-148126741D01*
X180456972Y-148120274D01*
X180441047Y-148117111D01*
X180407264Y-148114488D01*
X180360340Y-148112655D01*
X180304993Y-148111857D01*
X180296106Y-148111842D01*
X180175330Y-148117096D01*
X180072660Y-148133263D01*
X179986106Y-148160961D01*
X179913681Y-148200808D01*
X179858751Y-148247758D01*
X179814204Y-148305645D01*
X179789480Y-148368693D01*
X179782248Y-148440282D01*
X179022310Y-148440282D01*
X179024178Y-148349712D01*
X179032522Y-148270812D01*
X179048768Y-148199590D01*
X179074405Y-148128864D01*
X179098401Y-148076493D01*
X179157020Y-147981196D01*
X179235117Y-147893170D01*
X179330315Y-147814017D01*
X179440238Y-147745340D01*
X179562510Y-147688741D01*
X179694755Y-147645821D01*
X179759422Y-147630882D01*
X179895604Y-147608777D01*
X180044049Y-147594194D01*
X180195505Y-147587813D01*
X180322064Y-147589445D01*
X180483950Y-147596224D01*
X180476530Y-147537245D01*
X180457238Y-147438092D01*
X180426104Y-147357372D01*
X180382269Y-147294466D01*
X180324871Y-147248756D01*
X180253048Y-147219622D01*
X180165941Y-147206447D01*
X180062686Y-147208611D01*
X180024711Y-147212612D01*
X179883520Y-147237780D01*
X179746707Y-147278814D01*
X179652178Y-147316815D01*
X179607018Y-147336190D01*
X179568585Y-147351760D01*
X179542234Y-147361405D01*
X179534546Y-147363452D01*
X179524802Y-147354374D01*
X179508083Y-147325405D01*
X179484232Y-147276217D01*
X179453093Y-147206484D01*
X179414507Y-147115879D01*
X179407910Y-147100089D01*
X179377853Y-147027772D01*
X179350874Y-146962425D01*
X179328136Y-146906906D01*
X179310806Y-146864072D01*
X179300048Y-146836781D01*
X179296941Y-146827942D01*
X179306940Y-146823187D01*
X179333217Y-146817910D01*
X179361489Y-146814231D01*
X179391646Y-146809474D01*
X179439433Y-146800028D01*
X179500612Y-146786820D01*
X179570946Y-146770776D01*
X179646194Y-146752820D01*
X179674755Y-146745797D01*
X179779816Y-146720209D01*
X179867480Y-146700147D01*
X179942068Y-146684969D01*
X180007903Y-146674035D01*
X180069307Y-146666704D01*
X180130602Y-146662335D01*
X180196110Y-146660287D01*
X180254128Y-146659889D01*
X180423574Y-146666552D01*
G36*
X180423574Y-146666552D02*
G01*
X180575492Y-146686567D01*
X180710756Y-146720202D01*
X180830239Y-146767725D01*
X180934815Y-146829405D01*
X181012424Y-146892965D01*
X181081265Y-146967099D01*
X181135006Y-147046871D01*
X181177910Y-147139091D01*
X181193384Y-147182161D01*
X181206244Y-147221142D01*
X181217446Y-147257289D01*
X181227120Y-147292434D01*
X181235396Y-147328410D01*
X181242403Y-147367050D01*
X181248272Y-147410185D01*
X181253131Y-147459649D01*
X181257110Y-147517273D01*
X181260340Y-147584891D01*
X181262949Y-147664334D01*
X181265067Y-147757436D01*
X181266824Y-147866027D01*
X181268349Y-147991942D01*
X181269772Y-148137012D01*
X181271025Y-148279778D01*
X181272351Y-148435968D01*
X181273556Y-148571239D01*
X181274766Y-148687246D01*
X181276106Y-148785645D01*
X181277700Y-148868093D01*
X181279675Y-148936246D01*
X181282156Y-148991760D01*
X181285269Y-149036292D01*
X181289138Y-149071498D01*
X181293889Y-149099034D01*
X181299648Y-149120556D01*
X181306539Y-149137722D01*
X181314689Y-149152186D01*
X181324223Y-149165606D01*
X181335266Y-149179638D01*
X181339566Y-149185071D01*
X181355386Y-149207910D01*
X181362422Y-149223463D01*
X181362444Y-149223922D01*
X181351567Y-149226121D01*
X181320582Y-149228147D01*
X181271957Y-149229942D01*
X181208163Y-149231451D01*
X181131669Y-149232616D01*
X181044944Y-149233380D01*
X180950457Y-149233686D01*
X180939550Y-149233689D01*
X180516657Y-149233689D01*
X180513395Y-149137622D01*
X180510133Y-149041556D01*
X180448044Y-149092543D01*
X180350714Y-149160057D01*
X180240813Y-149214749D01*
X180154349Y-149244978D01*
X180085278Y-149259666D01*
X180001925Y-149269659D01*
X179912159Y-149274646D01*
X179823845Y-149274313D01*
X179744851Y-149268351D01*
X179708622Y-149262638D01*
X179568603Y-149224776D01*
X179442178Y-149169932D01*
X179330260Y-149098924D01*
X179233762Y-149012568D01*
X179153600Y-148911679D01*
X179090687Y-148797076D01*
X179046312Y-148670984D01*
X179033978Y-148614401D01*
X179026368Y-148552202D01*
X179022739Y-148477363D01*
X179022245Y-148443467D01*
X179022310Y-148440282D01*
X179782248Y-148440282D01*
X179791541Y-148515333D01*
X179819728Y-148579160D01*
X179868197Y-148634798D01*
X179873254Y-148639211D01*
X179921548Y-148674037D01*
X179973257Y-148696620D01*
X180033989Y-148708540D01*
X180109352Y-148711383D01*
X180127459Y-148710978D01*
X180181278Y-148708325D01*
X180221308Y-148702909D01*
X180256324Y-148692745D01*
X180295103Y-148675850D01*
X180305745Y-148670672D01*
X180366396Y-148634844D01*
X180413215Y-148592212D01*
X180425952Y-148576973D01*
X180470622Y-148520462D01*
X180470622Y-148324586D01*
X180470086Y-148245939D01*
X180468396Y-148187988D01*
X180465428Y-148148875D01*
X180461057Y-148126741D01*
X180456972Y-148120274D01*
X180441047Y-148117111D01*
X180407264Y-148114488D01*
X180360340Y-148112655D01*
X180304993Y-148111857D01*
X180296106Y-148111842D01*
X180175330Y-148117096D01*
X180072660Y-148133263D01*
X179986106Y-148160961D01*
X179913681Y-148200808D01*
X179858751Y-148247758D01*
X179814204Y-148305645D01*
X179789480Y-148368693D01*
X179782248Y-148440282D01*
X179022310Y-148440282D01*
X179024178Y-148349712D01*
X179032522Y-148270812D01*
X179048768Y-148199590D01*
X179074405Y-148128864D01*
X179098401Y-148076493D01*
X179157020Y-147981196D01*
X179235117Y-147893170D01*
X179330315Y-147814017D01*
X179440238Y-147745340D01*
X179562510Y-147688741D01*
X179694755Y-147645821D01*
X179759422Y-147630882D01*
X179895604Y-147608777D01*
X180044049Y-147594194D01*
X180195505Y-147587813D01*
X180322064Y-147589445D01*
X180483950Y-147596224D01*
X180476530Y-147537245D01*
X180457238Y-147438092D01*
X180426104Y-147357372D01*
X180382269Y-147294466D01*
X180324871Y-147248756D01*
X180253048Y-147219622D01*
X180165941Y-147206447D01*
X180062686Y-147208611D01*
X180024711Y-147212612D01*
X179883520Y-147237780D01*
X179746707Y-147278814D01*
X179652178Y-147316815D01*
X179607018Y-147336190D01*
X179568585Y-147351760D01*
X179542234Y-147361405D01*
X179534546Y-147363452D01*
X179524802Y-147354374D01*
X179508083Y-147325405D01*
X179484232Y-147276217D01*
X179453093Y-147206484D01*
X179414507Y-147115879D01*
X179407910Y-147100089D01*
X179377853Y-147027772D01*
X179350874Y-146962425D01*
X179328136Y-146906906D01*
X179310806Y-146864072D01*
X179300048Y-146836781D01*
X179296941Y-146827942D01*
X179306940Y-146823187D01*
X179333217Y-146817910D01*
X179361489Y-146814231D01*
X179391646Y-146809474D01*
X179439433Y-146800028D01*
X179500612Y-146786820D01*
X179570946Y-146770776D01*
X179646194Y-146752820D01*
X179674755Y-146745797D01*
X179779816Y-146720209D01*
X179867480Y-146700147D01*
X179942068Y-146684969D01*
X180007903Y-146674035D01*
X180069307Y-146666704D01*
X180130602Y-146662335D01*
X180196110Y-146660287D01*
X180254128Y-146659889D01*
X180423574Y-146666552D01*
G37*
X174803600Y-145289054D02*
X174814465Y-145402993D01*
X174846082Y-145510616D01*
X174896985Y-145609615D01*
X174965707Y-145697684D01*
X175050781Y-145772516D01*
X175147768Y-145830384D01*
X175254036Y-145870005D01*
X175361050Y-145888573D01*
X175466700Y-145887434D01*
X175568875Y-145867930D01*
X175665466Y-145831406D01*
X175754362Y-145779205D01*
X175833454Y-145712673D01*
X175900631Y-145633152D01*
X175953783Y-145541987D01*
X175990801Y-145440523D01*
X176009573Y-145330102D01*
X176011511Y-145280206D01*
X176011511Y-145192267D01*
X176063440Y-145192267D01*
X176099747Y-145195111D01*
X176126645Y-145206911D01*
X176153751Y-145230649D01*
X176192133Y-145269031D01*
X176192133Y-147460602D01*
X176192124Y-147722739D01*
X176192092Y-147963241D01*
X176192028Y-148183048D01*
X176191924Y-148383101D01*
X176191773Y-148564344D01*
X176191566Y-148727716D01*
X176191294Y-148874160D01*
X176190950Y-149004617D01*
X176190526Y-149120029D01*
X176190013Y-149221338D01*
X176189403Y-149309484D01*
X176188688Y-149385410D01*
X176187860Y-149450057D01*
X176186911Y-149504367D01*
X176185833Y-149549280D01*
X176184617Y-149585740D01*
X176183255Y-149614687D01*
X176181739Y-149637063D01*
X176180062Y-149653809D01*
X176178214Y-149665868D01*
X176176187Y-149674180D01*
X176173975Y-149679687D01*
X176172892Y-149681537D01*
X176168729Y-149688549D01*
X176165195Y-149694996D01*
X176161365Y-149700900D01*
X176156318Y-149706286D01*
X176149129Y-149711178D01*
X176138877Y-149715598D01*
X176124636Y-149719572D01*
X176105486Y-149723121D01*
X176080501Y-149726270D01*
X176048760Y-149729042D01*
X176009338Y-149731461D01*
X175961314Y-149733551D01*
X175903763Y-149735335D01*
X175835763Y-149736837D01*
X175756390Y-149738080D01*
X175664721Y-149739089D01*
X175559834Y-149739885D01*
X175440804Y-149740494D01*
X175306710Y-149740939D01*
X175156627Y-149741243D01*
X174989633Y-149741430D01*
X174804804Y-149741524D01*
X174601217Y-149741548D01*
X174377950Y-149741525D01*
X174134078Y-149741480D01*
X173868679Y-149741437D01*
X173830296Y-149741432D01*
X173563318Y-149741389D01*
X173317998Y-149741318D01*
X173093417Y-149741213D01*
X172888655Y-149741066D01*
X172702794Y-149740869D01*
X172534912Y-149740616D01*
X172384092Y-149740300D01*
X172249413Y-149739913D01*
X172129956Y-149739447D01*
X172024801Y-149738897D01*
X171933029Y-149738253D01*
X171853721Y-149737511D01*
X171785957Y-149736661D01*
X171728818Y-149735697D01*
X171681383Y-149734611D01*
X171642734Y-149733397D01*
X171611951Y-149732047D01*
X171588115Y-149730555D01*
X171570306Y-149728911D01*
X171557605Y-149727111D01*
X171549092Y-149725145D01*
X171544734Y-149723477D01*
X171536272Y-149719906D01*
X171528503Y-149717270D01*
X171521398Y-149714634D01*
X171514927Y-149711062D01*
X171509061Y-149705621D01*
X171503771Y-149697375D01*
X171499026Y-149685390D01*
X171494798Y-149668731D01*
X171491057Y-149646463D01*
X171487773Y-149617652D01*
X171484917Y-149581363D01*
X171482460Y-149536661D01*
X171480371Y-149482611D01*
X171478622Y-149418279D01*
X171477183Y-149342730D01*
X171476024Y-149255030D01*
X171475117Y-149154243D01*
X171474431Y-149039434D01*
X171473937Y-148909670D01*
X171473605Y-148764015D01*
X171473407Y-148601535D01*
X171473313Y-148421295D01*
X171473292Y-148222360D01*
X171473315Y-148003796D01*
X171473354Y-147764668D01*
X171473378Y-147504040D01*
X171473378Y-147461889D01*
X171473364Y-147198992D01*
X171473339Y-146957732D01*
X171473329Y-146737165D01*
X171473358Y-146536352D01*
X171473452Y-146354349D01*
X171473638Y-146190216D01*
X171473941Y-146043011D01*
X171474386Y-145911792D01*
X171474966Y-145801867D01*
X171777803Y-145801867D01*
X171817593Y-145859711D01*
X171828764Y-145875479D01*
X171838834Y-145889441D01*
X171847862Y-145902784D01*
X171855903Y-145916693D01*
X171863014Y-145932356D01*
X171869253Y-145950958D01*
X171874675Y-145973686D01*
X171879338Y-146001727D01*
X171883299Y-146036267D01*
X171886615Y-146078492D01*
X171889341Y-146129589D01*
X171891536Y-146190744D01*
X171893255Y-146263144D01*
X171894556Y-146347975D01*
X171895495Y-146446422D01*
X171896130Y-146559674D01*
X171896516Y-146688916D01*
X171896712Y-146835334D01*
X171896773Y-147000116D01*
X171896757Y-147184447D01*
X171896720Y-147389513D01*
X171896711Y-147512133D01*
X171896735Y-147729082D01*
X171896769Y-147924642D01*
X171896757Y-148099999D01*
X171896642Y-148256341D01*
X171896370Y-148394857D01*
X171895882Y-148516734D01*
X171895124Y-148623160D01*
X171894038Y-148715322D01*
X171892569Y-148794409D01*
X171890660Y-148861608D01*
X171888256Y-148918107D01*
X171885299Y-148965093D01*
X171881734Y-149003755D01*
X171877505Y-149035280D01*
X171872554Y-149060855D01*
X171866827Y-149081670D01*
X171860267Y-149098911D01*
X171852817Y-149113765D01*
X171844421Y-149127422D01*
X171835024Y-149141069D01*
X171824568Y-149155893D01*
X171818477Y-149164783D01*
X171779704Y-149222400D01*
X172311268Y-149222400D01*
X172434517Y-149222365D01*
X172537013Y-149222215D01*
X172620580Y-149221878D01*
X172687044Y-149221286D01*
X172738229Y-149220367D01*
X172775959Y-149219051D01*
X172802060Y-149217269D01*
X172818356Y-149214951D01*
X172826672Y-149212026D01*
X172828832Y-149208424D01*
X172826661Y-149204075D01*
X172825465Y-149202645D01*
X172800315Y-149165573D01*
X172774417Y-149112772D01*
X172750808Y-149050770D01*
X172742539Y-149024357D01*
X172737922Y-149006416D01*
X172734021Y-148985355D01*
X172730752Y-148959089D01*
X172728034Y-148925532D01*
X172725785Y-148882599D01*
X172723923Y-148828204D01*
X172722364Y-148760262D01*
X172721028Y-148676688D01*
X172719831Y-148575395D01*
X172718692Y-148454300D01*
X172718315Y-148409600D01*
X172717298Y-148284449D01*
X172716540Y-148180082D01*
X172716097Y-148094707D01*
X172716030Y-148026533D01*
X172716395Y-147973765D01*
X172717252Y-147934614D01*
X172718659Y-147907285D01*
X172720675Y-147889986D01*
X172723357Y-147880926D01*
X172726764Y-147878312D01*
X172730956Y-147880351D01*
X172735429Y-147884667D01*
X172745784Y-147897602D01*
X172767842Y-147926676D01*
X172800043Y-147969759D01*
X172840826Y-148024718D01*
X172888630Y-148089423D01*
X172941895Y-148161742D01*
X172999060Y-148239544D01*
X173058563Y-148320698D01*
X173118845Y-148403072D01*
X173178345Y-148484536D01*
X173235502Y-148562957D01*
X173288755Y-148636204D01*
X173336543Y-148702147D01*
X173377307Y-148758654D01*
X173409484Y-148803593D01*
X173431515Y-148834834D01*
X173436083Y-148841466D01*
X173459004Y-148878369D01*
X173485812Y-148926359D01*
X173511211Y-148975897D01*
X173514432Y-148982577D01*
X173536110Y-149030772D01*
X173548696Y-149068334D01*
X173554426Y-149104160D01*
X173555544Y-149146200D01*
X173554910Y-149222400D01*
X174709349Y-149222400D01*
X174618185Y-149128669D01*
X174571388Y-149078775D01*
X174521101Y-149022295D01*
X174475056Y-148968026D01*
X174454631Y-148942673D01*
X174424193Y-148903128D01*
X174384138Y-148849916D01*
X174335639Y-148784667D01*
X174279865Y-148709011D01*
X174217989Y-148624577D01*
X174151181Y-148532994D01*
X174080613Y-148435892D01*
X174007455Y-148334901D01*
X173932879Y-148231650D01*
X173858056Y-148127768D01*
X173784157Y-148024885D01*
X173712354Y-147924631D01*
X173643816Y-147828636D01*
X173579716Y-147738527D01*
X173521225Y-147655936D01*
X173469514Y-147582492D01*
X173425753Y-147519824D01*
X173391115Y-147469561D01*
X173366770Y-147433334D01*
X173353889Y-147412771D01*
X173352131Y-147408668D01*
X173360090Y-147397342D01*
X173380885Y-147370162D01*
X173413153Y-147328829D01*
X173455530Y-147275044D01*
X173506653Y-147210506D01*
X173565159Y-147136918D01*
X173629686Y-147055978D01*
X173698869Y-146969388D01*
X173771347Y-146878848D01*
X173845754Y-146786060D01*
X173905483Y-146711702D01*
X174916489Y-146711702D01*
X174922398Y-146724659D01*
X174936728Y-146746908D01*
X174937775Y-146748391D01*
X174956562Y-146778544D01*
X174976209Y-146815375D01*
X174980108Y-146823511D01*
X174983644Y-146831940D01*
X174986770Y-146842059D01*
X174989514Y-146855260D01*
X174991908Y-146872938D01*
X174993981Y-146896484D01*
X174995765Y-146927293D01*
X174997288Y-146966757D01*
X174998581Y-147016269D01*
X174999674Y-147077223D01*
X175000597Y-147151011D01*
X175001381Y-147239028D01*
X175002055Y-147342665D01*
X175002650Y-147463316D01*
X175003195Y-147602374D01*
X175003721Y-147761232D01*
X175004255Y-147940089D01*
X175004794Y-148125207D01*
X175005228Y-148289145D01*
X175005491Y-148433303D01*
X175005516Y-148559079D01*
X175005235Y-148667871D01*
X175004581Y-148761077D01*
X175003486Y-148840097D01*
X175001882Y-148906328D01*
X174999703Y-148961170D01*
X174996881Y-149006021D01*
X174993349Y-149042278D01*
X174989039Y-149071341D01*
X174983883Y-149094609D01*
X174977815Y-149113479D01*
X174970767Y-149129351D01*
X174962671Y-149143622D01*
X174953460Y-149157691D01*
X174944960Y-149170158D01*
X174927824Y-149196452D01*
X174917678Y-149214037D01*
X174916489Y-149217257D01*
X174927396Y-149218334D01*
X174958589Y-149219335D01*
X175007777Y-149220235D01*
X175072667Y-149221010D01*
X175150970Y-149221637D01*
X175240393Y-149222091D01*
X175338644Y-149222349D01*
X175407555Y-149222400D01*
X175512548Y-149222180D01*
X175609390Y-149221548D01*
X175695893Y-149220549D01*
X175769868Y-149219227D01*
X175829126Y-149217626D01*
X175871480Y-149215791D01*
X175894740Y-149213765D01*
X175898622Y-149212493D01*
X175890924Y-149197591D01*
X175882926Y-149189560D01*
X175869754Y-149172434D01*
X175852515Y-149142183D01*
X175840593Y-149117622D01*
X175813955Y-149058711D01*
X175810880Y-147881845D01*
X175807805Y-146704978D01*
X175362147Y-146704978D01*
X175264330Y-146705142D01*
X175173936Y-146705611D01*
X175093370Y-146706347D01*
X175025038Y-146707316D01*
X174971344Y-146708480D01*
X174934695Y-146709803D01*
X174917496Y-146711249D01*
X174916489Y-146711702D01*
X173905483Y-146711702D01*
X173920730Y-146692722D01*
X173994910Y-146600537D01*
X174066931Y-146511204D01*
X174135431Y-146426424D01*
X174199045Y-146347898D01*
X174256412Y-146277326D01*
X174306167Y-146216409D01*
X174346948Y-146166847D01*
X174364112Y-146146178D01*
X174450404Y-146045516D01*
X174527003Y-145962259D01*
X174595817Y-145894438D01*
X174658752Y-145840089D01*
X174668133Y-145832722D01*
X174707644Y-145802117D01*
X173575884Y-145801867D01*
X173581173Y-145849844D01*
X173577870Y-145907188D01*
X173556339Y-145975463D01*
X173516365Y-146055212D01*
X173471057Y-146127495D01*
X173454839Y-146150140D01*
X173426786Y-146187696D01*
X173388570Y-146238021D01*
X173341863Y-146298973D01*
X173288339Y-146368411D01*
X173229669Y-146444194D01*
X173167525Y-146524180D01*
X173103579Y-146606228D01*
X173039505Y-146688196D01*
X172976973Y-146767943D01*
X172917657Y-146843327D01*
X172863229Y-146912207D01*
X172815361Y-146972442D01*
X172775725Y-147021889D01*
X172745994Y-147058408D01*
X172727839Y-147079858D01*
X172724780Y-147083156D01*
X172721921Y-147075149D01*
X172719707Y-147044855D01*
X172718143Y-146992556D01*
X172717233Y-146918531D01*
X172716980Y-146823063D01*
X172717387Y-146706434D01*
X172718296Y-146586445D01*
X172719618Y-146454333D01*
X172721143Y-146342594D01*
X172723119Y-146249025D01*
X172725794Y-146171419D01*
X172729418Y-146107574D01*
X172734239Y-146055283D01*
X172740506Y-146012344D01*
X172748468Y-145976551D01*
X172758373Y-145945700D01*
X172770469Y-145917586D01*
X172785007Y-145890005D01*
X172799689Y-145864966D01*
X172837686Y-145801867D01*
X171777803Y-145801867D01*
X171474966Y-145801867D01*
X171474999Y-145795617D01*
X171475805Y-145693544D01*
X171476830Y-145604633D01*
X171478100Y-145527941D01*
X171479640Y-145462527D01*
X171481476Y-145407449D01*
X171483633Y-145361765D01*
X171486137Y-145324534D01*
X171489013Y-145294813D01*
X171492287Y-145271662D01*
X171495985Y-145254139D01*
X171500131Y-145241301D01*
X171504753Y-145232208D01*
X171509874Y-145225918D01*
X171515522Y-145221488D01*
X171521721Y-145217978D01*
X171528496Y-145214445D01*
X171534492Y-145210876D01*
X171539725Y-145208300D01*
X171547901Y-145205972D01*
X171560114Y-145203878D01*
X171577459Y-145202007D01*
X171601031Y-145200347D01*
X171631923Y-145198884D01*
X171671232Y-145197608D01*
X171720050Y-145196504D01*
X171779473Y-145195561D01*
X171850596Y-145194767D01*
X171934512Y-145194109D01*
X172032317Y-145193575D01*
X172145106Y-145193153D01*
X172273971Y-145192829D01*
X172420009Y-145192592D01*
X172584314Y-145192430D01*
X172767980Y-145192330D01*
X172972103Y-145192280D01*
X173183247Y-145192267D01*
X174803600Y-145192267D01*
X174803600Y-145289054D01*
G36*
X174803600Y-145289054D02*
G01*
X174814465Y-145402993D01*
X174846082Y-145510616D01*
X174896985Y-145609615D01*
X174965707Y-145697684D01*
X175050781Y-145772516D01*
X175147768Y-145830384D01*
X175254036Y-145870005D01*
X175361050Y-145888573D01*
X175466700Y-145887434D01*
X175568875Y-145867930D01*
X175665466Y-145831406D01*
X175754362Y-145779205D01*
X175833454Y-145712673D01*
X175900631Y-145633152D01*
X175953783Y-145541987D01*
X175990801Y-145440523D01*
X176009573Y-145330102D01*
X176011511Y-145280206D01*
X176011511Y-145192267D01*
X176063440Y-145192267D01*
X176099747Y-145195111D01*
X176126645Y-145206911D01*
X176153751Y-145230649D01*
X176192133Y-145269031D01*
X176192133Y-147460602D01*
X176192124Y-147722739D01*
X176192092Y-147963241D01*
X176192028Y-148183048D01*
X176191924Y-148383101D01*
X176191773Y-148564344D01*
X176191566Y-148727716D01*
X176191294Y-148874160D01*
X176190950Y-149004617D01*
X176190526Y-149120029D01*
X176190013Y-149221338D01*
X176189403Y-149309484D01*
X176188688Y-149385410D01*
X176187860Y-149450057D01*
X176186911Y-149504367D01*
X176185833Y-149549280D01*
X176184617Y-149585740D01*
X176183255Y-149614687D01*
X176181739Y-149637063D01*
X176180062Y-149653809D01*
X176178214Y-149665868D01*
X176176187Y-149674180D01*
X176173975Y-149679687D01*
X176172892Y-149681537D01*
X176168729Y-149688549D01*
X176165195Y-149694996D01*
X176161365Y-149700900D01*
X176156318Y-149706286D01*
X176149129Y-149711178D01*
X176138877Y-149715598D01*
X176124636Y-149719572D01*
X176105486Y-149723121D01*
X176080501Y-149726270D01*
X176048760Y-149729042D01*
X176009338Y-149731461D01*
X175961314Y-149733551D01*
X175903763Y-149735335D01*
X175835763Y-149736837D01*
X175756390Y-149738080D01*
X175664721Y-149739089D01*
X175559834Y-149739885D01*
X175440804Y-149740494D01*
X175306710Y-149740939D01*
X175156627Y-149741243D01*
X174989633Y-149741430D01*
X174804804Y-149741524D01*
X174601217Y-149741548D01*
X174377950Y-149741525D01*
X174134078Y-149741480D01*
X173868679Y-149741437D01*
X173830296Y-149741432D01*
X173563318Y-149741389D01*
X173317998Y-149741318D01*
X173093417Y-149741213D01*
X172888655Y-149741066D01*
X172702794Y-149740869D01*
X172534912Y-149740616D01*
X172384092Y-149740300D01*
X172249413Y-149739913D01*
X172129956Y-149739447D01*
X172024801Y-149738897D01*
X171933029Y-149738253D01*
X171853721Y-149737511D01*
X171785957Y-149736661D01*
X171728818Y-149735697D01*
X171681383Y-149734611D01*
X171642734Y-149733397D01*
X171611951Y-149732047D01*
X171588115Y-149730555D01*
X171570306Y-149728911D01*
X171557605Y-149727111D01*
X171549092Y-149725145D01*
X171544734Y-149723477D01*
X171536272Y-149719906D01*
X171528503Y-149717270D01*
X171521398Y-149714634D01*
X171514927Y-149711062D01*
X171509061Y-149705621D01*
X171503771Y-149697375D01*
X171499026Y-149685390D01*
X171494798Y-149668731D01*
X171491057Y-149646463D01*
X171487773Y-149617652D01*
X171484917Y-149581363D01*
X171482460Y-149536661D01*
X171480371Y-149482611D01*
X171478622Y-149418279D01*
X171477183Y-149342730D01*
X171476024Y-149255030D01*
X171475117Y-149154243D01*
X171474431Y-149039434D01*
X171473937Y-148909670D01*
X171473605Y-148764015D01*
X171473407Y-148601535D01*
X171473313Y-148421295D01*
X171473292Y-148222360D01*
X171473315Y-148003796D01*
X171473354Y-147764668D01*
X171473378Y-147504040D01*
X171473378Y-147461889D01*
X171473364Y-147198992D01*
X171473339Y-146957732D01*
X171473329Y-146737165D01*
X171473358Y-146536352D01*
X171473452Y-146354349D01*
X171473638Y-146190216D01*
X171473941Y-146043011D01*
X171474386Y-145911792D01*
X171474966Y-145801867D01*
X171777803Y-145801867D01*
X171817593Y-145859711D01*
X171828764Y-145875479D01*
X171838834Y-145889441D01*
X171847862Y-145902784D01*
X171855903Y-145916693D01*
X171863014Y-145932356D01*
X171869253Y-145950958D01*
X171874675Y-145973686D01*
X171879338Y-146001727D01*
X171883299Y-146036267D01*
X171886615Y-146078492D01*
X171889341Y-146129589D01*
X171891536Y-146190744D01*
X171893255Y-146263144D01*
X171894556Y-146347975D01*
X171895495Y-146446422D01*
X171896130Y-146559674D01*
X171896516Y-146688916D01*
X171896712Y-146835334D01*
X171896773Y-147000116D01*
X171896757Y-147184447D01*
X171896720Y-147389513D01*
X171896711Y-147512133D01*
X171896735Y-147729082D01*
X171896769Y-147924642D01*
X171896757Y-148099999D01*
X171896642Y-148256341D01*
X171896370Y-148394857D01*
X171895882Y-148516734D01*
X171895124Y-148623160D01*
X171894038Y-148715322D01*
X171892569Y-148794409D01*
X171890660Y-148861608D01*
X171888256Y-148918107D01*
X171885299Y-148965093D01*
X171881734Y-149003755D01*
X171877505Y-149035280D01*
X171872554Y-149060855D01*
X171866827Y-149081670D01*
X171860267Y-149098911D01*
X171852817Y-149113765D01*
X171844421Y-149127422D01*
X171835024Y-149141069D01*
X171824568Y-149155893D01*
X171818477Y-149164783D01*
X171779704Y-149222400D01*
X172311268Y-149222400D01*
X172434517Y-149222365D01*
X172537013Y-149222215D01*
X172620580Y-149221878D01*
X172687044Y-149221286D01*
X172738229Y-149220367D01*
X172775959Y-149219051D01*
X172802060Y-149217269D01*
X172818356Y-149214951D01*
X172826672Y-149212026D01*
X172828832Y-149208424D01*
X172826661Y-149204075D01*
X172825465Y-149202645D01*
X172800315Y-149165573D01*
X172774417Y-149112772D01*
X172750808Y-149050770D01*
X172742539Y-149024357D01*
X172737922Y-149006416D01*
X172734021Y-148985355D01*
X172730752Y-148959089D01*
X172728034Y-148925532D01*
X172725785Y-148882599D01*
X172723923Y-148828204D01*
X172722364Y-148760262D01*
X172721028Y-148676688D01*
X172719831Y-148575395D01*
X172718692Y-148454300D01*
X172718315Y-148409600D01*
X172717298Y-148284449D01*
X172716540Y-148180082D01*
X172716097Y-148094707D01*
X172716030Y-148026533D01*
X172716395Y-147973765D01*
X172717252Y-147934614D01*
X172718659Y-147907285D01*
X172720675Y-147889986D01*
X172723357Y-147880926D01*
X172726764Y-147878312D01*
X172730956Y-147880351D01*
X172735429Y-147884667D01*
X172745784Y-147897602D01*
X172767842Y-147926676D01*
X172800043Y-147969759D01*
X172840826Y-148024718D01*
X172888630Y-148089423D01*
X172941895Y-148161742D01*
X172999060Y-148239544D01*
X173058563Y-148320698D01*
X173118845Y-148403072D01*
X173178345Y-148484536D01*
X173235502Y-148562957D01*
X173288755Y-148636204D01*
X173336543Y-148702147D01*
X173377307Y-148758654D01*
X173409484Y-148803593D01*
X173431515Y-148834834D01*
X173436083Y-148841466D01*
X173459004Y-148878369D01*
X173485812Y-148926359D01*
X173511211Y-148975897D01*
X173514432Y-148982577D01*
X173536110Y-149030772D01*
X173548696Y-149068334D01*
X173554426Y-149104160D01*
X173555544Y-149146200D01*
X173554910Y-149222400D01*
X174709349Y-149222400D01*
X174618185Y-149128669D01*
X174571388Y-149078775D01*
X174521101Y-149022295D01*
X174475056Y-148968026D01*
X174454631Y-148942673D01*
X174424193Y-148903128D01*
X174384138Y-148849916D01*
X174335639Y-148784667D01*
X174279865Y-148709011D01*
X174217989Y-148624577D01*
X174151181Y-148532994D01*
X174080613Y-148435892D01*
X174007455Y-148334901D01*
X173932879Y-148231650D01*
X173858056Y-148127768D01*
X173784157Y-148024885D01*
X173712354Y-147924631D01*
X173643816Y-147828636D01*
X173579716Y-147738527D01*
X173521225Y-147655936D01*
X173469514Y-147582492D01*
X173425753Y-147519824D01*
X173391115Y-147469561D01*
X173366770Y-147433334D01*
X173353889Y-147412771D01*
X173352131Y-147408668D01*
X173360090Y-147397342D01*
X173380885Y-147370162D01*
X173413153Y-147328829D01*
X173455530Y-147275044D01*
X173506653Y-147210506D01*
X173565159Y-147136918D01*
X173629686Y-147055978D01*
X173698869Y-146969388D01*
X173771347Y-146878848D01*
X173845754Y-146786060D01*
X173905483Y-146711702D01*
X174916489Y-146711702D01*
X174922398Y-146724659D01*
X174936728Y-146746908D01*
X174937775Y-146748391D01*
X174956562Y-146778544D01*
X174976209Y-146815375D01*
X174980108Y-146823511D01*
X174983644Y-146831940D01*
X174986770Y-146842059D01*
X174989514Y-146855260D01*
X174991908Y-146872938D01*
X174993981Y-146896484D01*
X174995765Y-146927293D01*
X174997288Y-146966757D01*
X174998581Y-147016269D01*
X174999674Y-147077223D01*
X175000597Y-147151011D01*
X175001381Y-147239028D01*
X175002055Y-147342665D01*
X175002650Y-147463316D01*
X175003195Y-147602374D01*
X175003721Y-147761232D01*
X175004255Y-147940089D01*
X175004794Y-148125207D01*
X175005228Y-148289145D01*
X175005491Y-148433303D01*
X175005516Y-148559079D01*
X175005235Y-148667871D01*
X175004581Y-148761077D01*
X175003486Y-148840097D01*
X175001882Y-148906328D01*
X174999703Y-148961170D01*
X174996881Y-149006021D01*
X174993349Y-149042278D01*
X174989039Y-149071341D01*
X174983883Y-149094609D01*
X174977815Y-149113479D01*
X174970767Y-149129351D01*
X174962671Y-149143622D01*
X174953460Y-149157691D01*
X174944960Y-149170158D01*
X174927824Y-149196452D01*
X174917678Y-149214037D01*
X174916489Y-149217257D01*
X174927396Y-149218334D01*
X174958589Y-149219335D01*
X175007777Y-149220235D01*
X175072667Y-149221010D01*
X175150970Y-149221637D01*
X175240393Y-149222091D01*
X175338644Y-149222349D01*
X175407555Y-149222400D01*
X175512548Y-149222180D01*
X175609390Y-149221548D01*
X175695893Y-149220549D01*
X175769868Y-149219227D01*
X175829126Y-149217626D01*
X175871480Y-149215791D01*
X175894740Y-149213765D01*
X175898622Y-149212493D01*
X175890924Y-149197591D01*
X175882926Y-149189560D01*
X175869754Y-149172434D01*
X175852515Y-149142183D01*
X175840593Y-149117622D01*
X175813955Y-149058711D01*
X175810880Y-147881845D01*
X175807805Y-146704978D01*
X175362147Y-146704978D01*
X175264330Y-146705142D01*
X175173936Y-146705611D01*
X175093370Y-146706347D01*
X175025038Y-146707316D01*
X174971344Y-146708480D01*
X174934695Y-146709803D01*
X174917496Y-146711249D01*
X174916489Y-146711702D01*
X173905483Y-146711702D01*
X173920730Y-146692722D01*
X173994910Y-146600537D01*
X174066931Y-146511204D01*
X174135431Y-146426424D01*
X174199045Y-146347898D01*
X174256412Y-146277326D01*
X174306167Y-146216409D01*
X174346948Y-146166847D01*
X174364112Y-146146178D01*
X174450404Y-146045516D01*
X174527003Y-145962259D01*
X174595817Y-145894438D01*
X174658752Y-145840089D01*
X174668133Y-145832722D01*
X174707644Y-145802117D01*
X173575884Y-145801867D01*
X173581173Y-145849844D01*
X173577870Y-145907188D01*
X173556339Y-145975463D01*
X173516365Y-146055212D01*
X173471057Y-146127495D01*
X173454839Y-146150140D01*
X173426786Y-146187696D01*
X173388570Y-146238021D01*
X173341863Y-146298973D01*
X173288339Y-146368411D01*
X173229669Y-146444194D01*
X173167525Y-146524180D01*
X173103579Y-146606228D01*
X173039505Y-146688196D01*
X172976973Y-146767943D01*
X172917657Y-146843327D01*
X172863229Y-146912207D01*
X172815361Y-146972442D01*
X172775725Y-147021889D01*
X172745994Y-147058408D01*
X172727839Y-147079858D01*
X172724780Y-147083156D01*
X172721921Y-147075149D01*
X172719707Y-147044855D01*
X172718143Y-146992556D01*
X172717233Y-146918531D01*
X172716980Y-146823063D01*
X172717387Y-146706434D01*
X172718296Y-146586445D01*
X172719618Y-146454333D01*
X172721143Y-146342594D01*
X172723119Y-146249025D01*
X172725794Y-146171419D01*
X172729418Y-146107574D01*
X172734239Y-146055283D01*
X172740506Y-146012344D01*
X172748468Y-145976551D01*
X172758373Y-145945700D01*
X172770469Y-145917586D01*
X172785007Y-145890005D01*
X172799689Y-145864966D01*
X172837686Y-145801867D01*
X171777803Y-145801867D01*
X171474966Y-145801867D01*
X171474999Y-145795617D01*
X171475805Y-145693544D01*
X171476830Y-145604633D01*
X171478100Y-145527941D01*
X171479640Y-145462527D01*
X171481476Y-145407449D01*
X171483633Y-145361765D01*
X171486137Y-145324534D01*
X171489013Y-145294813D01*
X171492287Y-145271662D01*
X171495985Y-145254139D01*
X171500131Y-145241301D01*
X171504753Y-145232208D01*
X171509874Y-145225918D01*
X171515522Y-145221488D01*
X171521721Y-145217978D01*
X171528496Y-145214445D01*
X171534492Y-145210876D01*
X171539725Y-145208300D01*
X171547901Y-145205972D01*
X171560114Y-145203878D01*
X171577459Y-145202007D01*
X171601031Y-145200347D01*
X171631923Y-145198884D01*
X171671232Y-145197608D01*
X171720050Y-145196504D01*
X171779473Y-145195561D01*
X171850596Y-145194767D01*
X171934512Y-145194109D01*
X172032317Y-145193575D01*
X172145106Y-145193153D01*
X172273971Y-145192829D01*
X172420009Y-145192592D01*
X172584314Y-145192430D01*
X172767980Y-145192330D01*
X172972103Y-145192280D01*
X173183247Y-145192267D01*
X174803600Y-145192267D01*
X174803600Y-145289054D01*
G37*
D12*
%TO.C,R6*%
X135495000Y-130930000D02*
X135495000Y-134770000D01*
X133655000Y-130930000D02*
X133655000Y-134770000D01*
%TO.C,R9*%
X109745000Y-130105000D02*
X109745000Y-133945000D01*
X107905000Y-130105000D02*
X107905000Y-133945000D01*
%TO.C,C10*%
X141955000Y-90254000D02*
X141955000Y-88996000D01*
X143795000Y-90254000D02*
X143795000Y-88996000D01*
%TO.C,R1*%
X95620000Y-106780000D02*
X95620000Y-110620000D01*
X93780000Y-106780000D02*
X93780000Y-110620000D01*
%TO.C,U4*%
X71785000Y-35827500D02*
X71785000Y-80107500D01*
X71785000Y-80107500D02*
X194065000Y-80107500D01*
D11*
X79948000Y-43420500D02*
X79948000Y-76948500D01*
X80710000Y-42658500D02*
X80710000Y-43420500D01*
X80710000Y-43420500D02*
X79948000Y-43420500D01*
X80710000Y-76948500D02*
X79948000Y-76948500D01*
X80710000Y-77710500D02*
X80710000Y-76948500D01*
X80710000Y-77710500D02*
X184850000Y-77710500D01*
X81726000Y-43928500D02*
X81980000Y-44182500D01*
X81726000Y-76440500D02*
X81980000Y-76694500D01*
X81980000Y-43674500D02*
X81726000Y-43928500D01*
X81980000Y-44182500D02*
X183580000Y-44182500D01*
X81980000Y-76186500D02*
X81726000Y-76440500D01*
X81980000Y-76694500D02*
X183580000Y-76694500D01*
X83250000Y-49008500D02*
X84012000Y-48246500D01*
X83250000Y-71360500D02*
X83250000Y-49008500D01*
X84012000Y-48246500D02*
X181548000Y-48246500D01*
X84012000Y-72122500D02*
X83250000Y-71360500D01*
D12*
X148925000Y-35467500D02*
X150925000Y-35467500D01*
D11*
X181548000Y-48246500D02*
X182310000Y-49008500D01*
X181548000Y-72122500D02*
X84012000Y-72122500D01*
X182310000Y-49008500D02*
X182310000Y-71360500D01*
X182310000Y-71360500D02*
X181548000Y-72122500D01*
X183580000Y-43674500D02*
X81980000Y-43674500D01*
X183580000Y-43674500D02*
X183834000Y-43928500D01*
X183580000Y-76186500D02*
X81980000Y-76186500D01*
X183580000Y-76694500D02*
X183834000Y-76440500D01*
X183834000Y-43928500D02*
X183580000Y-44182500D01*
X183834000Y-76440500D02*
X183580000Y-76186500D01*
X184850000Y-42658500D02*
X80710000Y-42658500D01*
X184850000Y-42658500D02*
X184850000Y-43420500D01*
X184850000Y-43420500D02*
X185612000Y-43420500D01*
X184850000Y-76948500D02*
X184850000Y-77710500D01*
X185612000Y-76948500D02*
X184850000Y-76948500D01*
X185612000Y-76948500D02*
X185612000Y-43420500D01*
D12*
X194065000Y-35827500D02*
X71785000Y-35827500D01*
X194065000Y-35827500D02*
X194065000Y-80107500D01*
%TO.C,U2*%
X152455000Y-96355000D02*
X101535000Y-96355000D01*
X101535000Y-96355000D02*
X101535000Y-108475000D01*
X152455000Y-101415000D02*
X152455000Y-96355000D01*
X152455000Y-108475000D02*
X152455000Y-103415000D01*
X101535000Y-108475000D02*
X152455000Y-108475000D01*
X152455000Y-101415000D02*
G75*
G03*
X152455000Y-103415000I0J-1000000D01*
G01*
%TO.C,R2*%
X158820000Y-95895000D02*
X154980000Y-95895000D01*
X158820000Y-94055000D02*
X154980000Y-94055000D01*
%TO.C,Q1*%
X153100000Y-119245000D02*
X153100000Y-122845000D01*
X157550000Y-121045000D02*
G75*
G03*
X153111522Y-119206522I-2600000J0D01*
G01*
X153111522Y-122883478D02*
G75*
G03*
X157550000Y-121045000I1838478J1838478D01*
G01*
%TO.C,C1*%
X84855000Y-115429000D02*
X84855000Y-114171000D01*
X86695000Y-115429000D02*
X86695000Y-114171000D01*
%TO.C,R10*%
X158030000Y-104395000D02*
X158030000Y-100555000D01*
X159870000Y-104395000D02*
X159870000Y-100555000D01*
%TO.C,D4*%
X125889000Y-126605000D02*
X126045000Y-126605000D01*
X128205000Y-126605000D02*
X128361000Y-126605000D01*
X126046392Y-123372666D02*
G75*
G03*
X125889485Y-126604999I1078608J-1672334D01*
G01*
X126045164Y-124003871D02*
G75*
G03*
X126045001Y-126085960I1079836J-1041129D01*
G01*
X128204999Y-126085960D02*
G75*
G03*
X128204836Y-124003871I-1079999J1040960D01*
G01*
X128360515Y-126604999D02*
G75*
G03*
X128203608Y-123372666I-1235515J1559999D01*
G01*
%TO.C,BZ1*%
X186300000Y-98500000D02*
G75*
G03*
X174100000Y-98500000I-6100000J0D01*
G01*
X174100000Y-98500000D02*
G75*
G03*
X186300000Y-98500000I6100000J0D01*
G01*
%TO.C,J2*%
X195735000Y-117045000D02*
X188115000Y-117045000D01*
X188115000Y-117045000D02*
X188115000Y-127205000D01*
X195735000Y-127205000D02*
X195735000Y-117045000D01*
X189385000Y-127205000D02*
X189385000Y-117045000D01*
X188115000Y-127205000D02*
X195735000Y-127205000D01*
%TO.C,FB1*%
X80515000Y-121787779D02*
X80515000Y-121462221D01*
X81535000Y-121787779D02*
X81535000Y-121462221D01*
%TO.C,R5*%
X142945000Y-131105000D02*
X142945000Y-134945000D01*
X141105000Y-131105000D02*
X141105000Y-134945000D01*
%TO.C,SW3*%
X73100000Y-125215000D02*
X83320000Y-125215000D01*
X83320000Y-125215000D02*
X83320000Y-127935000D01*
X83320000Y-127935000D02*
X73100000Y-127935000D01*
X73100000Y-127935000D02*
X73100000Y-125215000D01*
%TO.C,R7*%
X128120000Y-130770000D02*
X128120000Y-134610000D01*
X126280000Y-130770000D02*
X126280000Y-134610000D01*
%TO.C,K1*%
X167400000Y-130207500D02*
X169700000Y-130207500D01*
X184250000Y-129967500D02*
X165240000Y-129967500D01*
X170250000Y-128257500D02*
X172550000Y-128257500D01*
X180750000Y-126557500D02*
X180750000Y-124257500D01*
X176050000Y-125957500D02*
X169150000Y-125957500D01*
X170050000Y-123757500D02*
X170050000Y-120757500D01*
X172550000Y-123757500D02*
X172550000Y-128257500D01*
X175050000Y-123757500D02*
X170050000Y-123757500D01*
X175050000Y-123757500D02*
X170050000Y-120757500D01*
X165240000Y-123457500D02*
X165240000Y-129967500D01*
X169150000Y-122257500D02*
X169150000Y-125957500D01*
X169150000Y-122257500D02*
X168250000Y-122257500D01*
X176050000Y-122257500D02*
X176050000Y-125957500D01*
X176050000Y-122257500D02*
X177550000Y-122257500D01*
X177550000Y-122257500D02*
X182050000Y-119557500D01*
X170050000Y-120757500D02*
X175050000Y-120757500D01*
X175050000Y-120757500D02*
X175050000Y-123757500D01*
X180750000Y-117957500D02*
X180750000Y-120257500D01*
X172550000Y-116257500D02*
X172550000Y-120757500D01*
X172550000Y-116257500D02*
X170250000Y-116257500D01*
X165240000Y-114547500D02*
X165240000Y-121057500D01*
X165240000Y-114547500D02*
X184260000Y-114547500D01*
X184260000Y-114547500D02*
X184260000Y-129967500D01*
%TO.C,D2*%
X140814000Y-126890000D02*
X140970000Y-126890000D01*
X143130000Y-126890000D02*
X143286000Y-126890000D01*
X140971392Y-123657666D02*
G75*
G03*
X140814485Y-126889999I1078608J-1672334D01*
G01*
X140970164Y-124288871D02*
G75*
G03*
X140970001Y-126370960I1079836J-1041129D01*
G01*
X143129999Y-126370960D02*
G75*
G03*
X143129836Y-124288871I-1079999J1040960D01*
G01*
X143285515Y-126889999D02*
G75*
G03*
X143128608Y-123657666I-1235515J1559999D01*
G01*
%TO.C,SW4*%
X108560000Y-138500000D02*
X120860000Y-138500000D01*
X108560000Y-141220000D02*
X108560000Y-138500000D01*
X108560000Y-146220000D02*
X108560000Y-143080000D01*
X108560000Y-150800000D02*
X108560000Y-148080000D01*
X120860000Y-138500000D02*
X120860000Y-141220000D01*
X120860000Y-143080000D02*
X120860000Y-146220000D01*
X120860000Y-148080000D02*
X120860000Y-150800000D01*
X120860000Y-150800000D02*
X108560000Y-150800000D01*
X119389050Y-144690000D02*
G75*
G03*
X110230950Y-144690000I-4579050J0D01*
G01*
X110230950Y-144690000D02*
G75*
G03*
X119389050Y-144690000I4579050J0D01*
G01*
%TO.C,Q2*%
X167325000Y-102125000D02*
X167325000Y-98525000D01*
X162875000Y-100325000D02*
G75*
G03*
X167313478Y-102163478I2600000J0D01*
G01*
X167313478Y-98486522D02*
G75*
G03*
X162875000Y-100325000I-1838478J-1838478D01*
G01*
%TO.C,J1*%
X72350000Y-134975000D02*
X87050000Y-134975000D01*
X72350000Y-144175000D02*
X72350000Y-134975000D01*
X81150000Y-144175000D02*
X72350000Y-144175000D01*
X86200000Y-134775000D02*
X87250000Y-134775000D01*
X87050000Y-134975000D02*
X87050000Y-137575000D01*
X87050000Y-141475000D02*
X87050000Y-144175000D01*
X87050000Y-144175000D02*
X85150000Y-144175000D01*
X87250000Y-135825000D02*
X87250000Y-134775000D01*
%TO.C,C4*%
X127345000Y-84971000D02*
X127345000Y-86229000D01*
X125505000Y-84971000D02*
X125505000Y-86229000D01*
%TO.C,C5*%
X113345000Y-85096000D02*
X113345000Y-86354000D01*
X111505000Y-85096000D02*
X111505000Y-86354000D01*
%TO.C,Y1*%
X117125000Y-83700000D02*
X121825000Y-83700000D01*
X117125000Y-87400000D02*
X121825000Y-87400000D01*
X117125000Y-83700000D02*
G75*
G03*
X117125000Y-87400000I0J-1850000D01*
G01*
X121825000Y-87400000D02*
G75*
G03*
X121825000Y-83700000I0J1850000D01*
G01*
%TO.C,U1*%
X77560000Y-104825000D02*
X82201000Y-104825000D01*
X77560000Y-104825000D02*
X77560000Y-94585000D01*
X79070000Y-104825000D02*
X79070000Y-94585000D01*
X82201000Y-104825000D02*
X82201000Y-94585000D01*
X77560000Y-101555000D02*
X79070000Y-101555000D01*
X77560000Y-97854000D02*
X79070000Y-97854000D01*
X77560000Y-94585000D02*
X82201000Y-94585000D01*
%TO.C,D6*%
X108214000Y-126515000D02*
X108370000Y-126515000D01*
X110530000Y-126515000D02*
X110686000Y-126515000D01*
X108371392Y-123282666D02*
G75*
G03*
X108214485Y-126514999I1078608J-1672334D01*
G01*
X108370164Y-123913871D02*
G75*
G03*
X108370001Y-125995960I1079836J-1041129D01*
G01*
X110529999Y-125995960D02*
G75*
G03*
X110529836Y-123913871I-1079999J1040960D01*
G01*
X110685515Y-126514999D02*
G75*
G03*
X110528608Y-123282666I-1235515J1559999D01*
G01*
%TO.C,SW1*%
X79190000Y-83890000D02*
X79190000Y-84190000D01*
X79190000Y-83890000D02*
X86810000Y-83890000D01*
X79190000Y-86130000D02*
X79190000Y-89270000D01*
X79190000Y-91210000D02*
X79190000Y-91510000D01*
X86810000Y-83890000D02*
X86810000Y-84190000D01*
X86810000Y-86130000D02*
X86810000Y-89270000D01*
X86810000Y-91210000D02*
X86810000Y-91510000D01*
X86810000Y-91510000D02*
X79190000Y-91510000D01*
X85540000Y-87700000D02*
G75*
G03*
X80460000Y-87700000I-2540000J0D01*
G01*
X80460000Y-87700000D02*
G75*
G03*
X85540000Y-87700000I2540000J0D01*
G01*
%TO.C,D3*%
X133164000Y-126780000D02*
X133320000Y-126780000D01*
X135480000Y-126780000D02*
X135636000Y-126780000D01*
X133321392Y-123547666D02*
G75*
G03*
X133164485Y-126779999I1078608J-1672334D01*
G01*
X133320164Y-124178871D02*
G75*
G03*
X133320001Y-126260960I1079836J-1041129D01*
G01*
X135479999Y-126260960D02*
G75*
G03*
X135479836Y-124178871I-1079999J1040960D01*
G01*
X135635515Y-126779999D02*
G75*
G03*
X135478608Y-123547666I-1235515J1559999D01*
G01*
%TO.C,U3*%
X77580000Y-118335000D02*
X82221000Y-118335000D01*
X77580000Y-118335000D02*
X77580000Y-108095000D01*
X79090000Y-118335000D02*
X79090000Y-108095000D01*
X82221000Y-118335000D02*
X82221000Y-108095000D01*
X77580000Y-115065000D02*
X79090000Y-115065000D01*
X77580000Y-111364000D02*
X79090000Y-111364000D01*
X77580000Y-108095000D02*
X82221000Y-108095000D01*
%TO.C,C6*%
X130179000Y-114920000D02*
X128921000Y-114920000D01*
X130179000Y-113080000D02*
X128921000Y-113080000D01*
%TO.C,SW2*%
X130585000Y-138400000D02*
X142885000Y-138400000D01*
X130585000Y-141120000D02*
X130585000Y-138400000D01*
X130585000Y-146120000D02*
X130585000Y-142980000D01*
X130585000Y-150700000D02*
X130585000Y-147980000D01*
X142885000Y-138400000D02*
X142885000Y-141120000D01*
X142885000Y-142980000D02*
X142885000Y-146120000D01*
X142885000Y-147980000D02*
X142885000Y-150700000D01*
X142885000Y-150700000D02*
X130585000Y-150700000D01*
X141414050Y-144590000D02*
G75*
G03*
X132255950Y-144590000I-4579050J0D01*
G01*
X132255950Y-144590000D02*
G75*
G03*
X141414050Y-144590000I4579050J0D01*
G01*
%TO.C,RV1*%
X158920000Y-84990000D02*
X158920000Y-91830000D01*
X158920000Y-84990000D02*
X161950000Y-84990000D01*
X158920000Y-91830000D02*
X161950000Y-91830000D01*
X163250000Y-84990000D02*
X166160000Y-84990000D01*
X163250000Y-91830000D02*
X166160000Y-91830000D01*
X166160000Y-84990000D02*
X166160000Y-91830000D01*
%TO.C,C3*%
X90320000Y-100471000D02*
X90320000Y-101729000D01*
X88480000Y-100471000D02*
X88480000Y-101729000D01*
%TD*%
M02*
