%TF.GenerationSoftware,KiCad,Pcbnew,7.0.11*%
%TF.CreationDate,2024-07-12T13:59:45+01:00*%
%TF.ProjectId,3 mode bottle filling machine,33206d6f-6465-4206-926f-74746c652066,v1*%
%TF.SameCoordinates,Original*%
%TF.FileFunction,Copper,L2,Bot*%
%TF.FilePolarity,Positive*%
%FSLAX46Y46*%
G04 Gerber Fmt 4.6, Leading zero omitted, Abs format (unit mm)*
G04 Created by KiCad (PCBNEW 7.0.11) date 2024-07-12 13:59:45*
%MOMM*%
%LPD*%
G01*
G04 APERTURE LIST*
G04 Aperture macros list*
%AMRoundRect*
0 Rectangle with rounded corners*
0 $1 Rounding radius*
0 $2 $3 $4 $5 $6 $7 $8 $9 X,Y pos of 4 corners*
0 Add a 4 corners polygon primitive as box body*
4,1,4,$2,$3,$4,$5,$6,$7,$8,$9,$2,$3,0*
0 Add four circle primitives for the rounded corners*
1,1,$1+$1,$2,$3*
1,1,$1+$1,$4,$5*
1,1,$1+$1,$6,$7*
1,1,$1+$1,$8,$9*
0 Add four rect primitives between the rounded corners*
20,1,$1+$1,$2,$3,$4,$5,0*
20,1,$1+$1,$4,$5,$6,$7,0*
20,1,$1+$1,$6,$7,$8,$9,0*
20,1,$1+$1,$8,$9,$2,$3,0*%
G04 Aperture macros list end*
%TA.AperFunction,ComponentPad*%
%ADD10R,2.200000X2.200000*%
%TD*%
%TA.AperFunction,ComponentPad*%
%ADD11O,2.200000X2.200000*%
%TD*%
%TA.AperFunction,ComponentPad*%
%ADD12C,1.600000*%
%TD*%
%TA.AperFunction,ComponentPad*%
%ADD13C,1.400000*%
%TD*%
%TA.AperFunction,ComponentPad*%
%ADD14O,1.400000X1.400000*%
%TD*%
%TA.AperFunction,ComponentPad*%
%ADD15R,1.800000X1.800000*%
%TD*%
%TA.AperFunction,ComponentPad*%
%ADD16C,1.800000*%
%TD*%
%TA.AperFunction,ComponentPad*%
%ADD17C,6.500000*%
%TD*%
%TA.AperFunction,ComponentPad*%
%ADD18R,1.500000X3.000000*%
%TD*%
%TA.AperFunction,ComponentPad*%
%ADD19O,1.500000X3.000000*%
%TD*%
%TA.AperFunction,ComponentPad*%
%ADD20R,2.000000X2.000000*%
%TD*%
%TA.AperFunction,ComponentPad*%
%ADD21R,1.600000X2.400000*%
%TD*%
%TA.AperFunction,ComponentPad*%
%ADD22O,1.600000X2.400000*%
%TD*%
%TA.AperFunction,ComponentPad*%
%ADD23R,1.500000X1.050000*%
%TD*%
%TA.AperFunction,ComponentPad*%
%ADD24O,1.500000X1.050000*%
%TD*%
%TA.AperFunction,ComponentPad*%
%ADD25C,2.000000*%
%TD*%
%TA.AperFunction,ComponentPad*%
%ADD26R,3.000000X3.000000*%
%TD*%
%TA.AperFunction,ComponentPad*%
%ADD27C,3.000000*%
%TD*%
%TA.AperFunction,ComponentPad*%
%ADD28C,3.400000*%
%TD*%
%TA.AperFunction,ConnectorPad*%
%ADD29C,6.000000*%
%TD*%
%TA.AperFunction,ComponentPad*%
%ADD30R,1.500000X1.500000*%
%TD*%
%TA.AperFunction,ComponentPad*%
%ADD31C,2.400000*%
%TD*%
%TA.AperFunction,ComponentPad*%
%ADD32RoundRect,0.250000X1.000000X-1.000000X1.000000X1.000000X-1.000000X1.000000X-1.000000X-1.000000X0*%
%TD*%
%TA.AperFunction,ComponentPad*%
%ADD33O,3.048000X1.850000*%
%TD*%
%TA.AperFunction,ComponentPad*%
%ADD34R,3.500000X3.500000*%
%TD*%
%TA.AperFunction,ComponentPad*%
%ADD35RoundRect,0.750000X-0.750000X-1.000000X0.750000X-1.000000X0.750000X1.000000X-0.750000X1.000000X0*%
%TD*%
%TA.AperFunction,ComponentPad*%
%ADD36RoundRect,0.875000X-0.875000X-0.875000X0.875000X-0.875000X0.875000X0.875000X-0.875000X0.875000X0*%
%TD*%
%TA.AperFunction,ComponentPad*%
%ADD37C,1.500000*%
%TD*%
%TA.AperFunction,ComponentPad*%
%ADD38RoundRect,0.249999X-1.025001X-1.025001X1.025001X-1.025001X1.025001X1.025001X-1.025001X1.025001X0*%
%TD*%
%TA.AperFunction,ComponentPad*%
%ADD39C,2.550000*%
%TD*%
%TA.AperFunction,ComponentPad*%
%ADD40R,2.000000X1.905000*%
%TD*%
%TA.AperFunction,ComponentPad*%
%ADD41O,2.000000X1.905000*%
%TD*%
%TA.AperFunction,ComponentPad*%
%ADD42C,1.397000*%
%TD*%
%TA.AperFunction,ComponentPad*%
%ADD43C,1.440000*%
%TD*%
%TA.AperFunction,ViaPad*%
%ADD44C,0.900000*%
%TD*%
%TA.AperFunction,Conductor*%
%ADD45C,0.500000*%
%TD*%
G04 APERTURE END LIST*
D10*
%TO.P,D7,1,K*%
%TO.N,Net-(D7-K)*%
X162050000Y-127405000D03*
D11*
%TO.P,D7,2,A*%
%TO.N,Net-(D7-A)*%
X162050000Y-117245000D03*
%TD*%
D12*
%TO.P,C9,1*%
%TO.N,+5V*%
X137100000Y-90800000D03*
%TO.P,C9,2*%
%TO.N,GND*%
X137100000Y-88300000D03*
%TD*%
D13*
%TO.P,R3,1*%
%TO.N,pump*%
X149150000Y-125740000D03*
D14*
%TO.P,R3,2*%
%TO.N,Net-(Q1-B)*%
X149150000Y-120660000D03*
%TD*%
D15*
%TO.P,D1,1,K*%
%TO.N,Net-(D1-K)*%
X93550000Y-102140000D03*
D16*
%TO.P,D1,2,A*%
%TO.N,+5V*%
X93550000Y-99600000D03*
%TD*%
D13*
%TO.P,R8,1*%
%TO.N,Net-(D5-K)*%
X117175000Y-129585000D03*
D14*
%TO.P,R8,2*%
%TO.N,GND*%
X117175000Y-134665000D03*
%TD*%
D12*
%TO.P,C7,1*%
%TO.N,+5V*%
X126900000Y-90650000D03*
%TO.P,C7,2*%
%TO.N,GND*%
X124400000Y-90650000D03*
%TD*%
D15*
%TO.P,D5,1,K*%
%TO.N,Net-(D5-K)*%
X117175000Y-126300000D03*
D16*
%TO.P,D5,2,A*%
%TO.N,Pumping*%
X117175000Y-123760000D03*
%TD*%
D12*
%TO.P,C2,1*%
%TO.N,+12V*%
X85930000Y-102315000D03*
%TO.P,C2,2*%
%TO.N,GND*%
X85930000Y-99815000D03*
%TD*%
%TO.P,C8,1*%
%TO.N,+5V*%
X131975000Y-90700000D03*
%TO.P,C8,2*%
%TO.N,GND*%
X131975000Y-88200000D03*
%TD*%
D13*
%TO.P,R6,1*%
%TO.N,Net-(D3-K)*%
X134575000Y-130310000D03*
D14*
%TO.P,R6,2*%
%TO.N,GND*%
X134575000Y-135390000D03*
%TD*%
D13*
%TO.P,R9,1*%
%TO.N,Net-(D6-K)*%
X108825000Y-129485000D03*
D14*
%TO.P,R9,2*%
%TO.N,GND*%
X108825000Y-134565000D03*
%TD*%
D12*
%TO.P,C10,1*%
%TO.N,+5V*%
X142875000Y-90875000D03*
%TO.P,C10,2*%
%TO.N,GND*%
X142875000Y-88375000D03*
%TD*%
D13*
%TO.P,R1,1*%
%TO.N,Net-(D1-K)*%
X94700000Y-106160000D03*
D14*
%TO.P,R1,2*%
%TO.N,GND*%
X94700000Y-111240000D03*
%TD*%
D17*
%TO.P,U4,*%
%TO.N,*%
X75425000Y-39467500D03*
X75425000Y-76467500D03*
X190425000Y-39467500D03*
X190425000Y-76467500D03*
D18*
%TO.P,U4,1,VSS*%
%TO.N,GND*%
X149925000Y-38467500D03*
D19*
%TO.P,U4,2,VDD*%
%TO.N,+5V*%
X152465000Y-38467500D03*
%TO.P,U4,3,VO*%
%TO.N,Net-(U4-VO)*%
X155005000Y-38467500D03*
%TO.P,U4,4,RS*%
%TO.N,EN*%
X157545000Y-38467500D03*
%TO.P,U4,5,R/~{W}*%
%TO.N,GND*%
X160085000Y-38467500D03*
%TO.P,U4,6,E*%
%TO.N,RS*%
X162625000Y-38467500D03*
%TO.P,U4,7,DB0*%
%TO.N,unconnected-(U4-DB0-Pad7)*%
X165165000Y-38467500D03*
%TO.P,U4,8,DB1*%
%TO.N,unconnected-(U4-DB1-Pad8)*%
X167705000Y-38467500D03*
%TO.P,U4,9,DB2*%
%TO.N,unconnected-(U4-DB2-Pad9)*%
X170245000Y-38467500D03*
%TO.P,U4,10,DB3*%
%TO.N,unconnected-(U4-DB3-Pad10)*%
X172785000Y-38467500D03*
%TO.P,U4,11,DB4*%
%TO.N,D4*%
X175325000Y-38467500D03*
%TO.P,U4,12,DB5*%
%TO.N,D5*%
X177865000Y-38467500D03*
%TO.P,U4,13,DB6*%
%TO.N,D6*%
X180405000Y-38467500D03*
%TO.P,U4,14,DB7*%
%TO.N,D7*%
X182945000Y-38467500D03*
%TO.P,U4,15,A/VEE*%
%TO.N,+5V*%
X147385000Y-38467500D03*
%TO.P,U4,16,K*%
%TO.N,GND*%
X144845000Y-38467500D03*
D20*
%TO.P,U4,A1,A1*%
%TO.N,unconnected-(U4-PadA1)*%
X74425000Y-52467500D03*
%TO.P,U4,A2,A2*%
%TO.N,unconnected-(U4-PadA2)*%
X74425000Y-63467500D03*
%TO.P,U4,K1,K1*%
%TO.N,unconnected-(U4-PadK1)*%
X74425000Y-56467500D03*
%TO.P,U4,K2,K2*%
%TO.N,unconnected-(U4-PadK2)*%
X74425000Y-67467500D03*
%TD*%
D21*
%TO.P,U2,1,~{MCLR}/Vpp*%
%TO.N,Net-(U2-~{MCLR}{slash}Vpp)*%
X151125000Y-94795000D03*
D22*
%TO.P,U2,2,AN0/RA0*%
%TO.N,unconnected-(U2-AN0{slash}RA0-Pad2)*%
X148585000Y-94795000D03*
%TO.P,U2,3,AN1/RA1*%
%TO.N,unconnected-(U2-AN1{slash}RA1-Pad3)*%
X146045000Y-94795000D03*
%TO.P,U2,4,CVref/Vref-/AN2/RA2*%
%TO.N,unconnected-(U2-CVref{slash}Vref-{slash}AN2{slash}RA2-Pad4)*%
X143505000Y-94795000D03*
%TO.P,U2,5,Vref+/AN3/RA3*%
%TO.N,unconnected-(U2-Vref+{slash}AN3{slash}RA3-Pad5)*%
X140965000Y-94795000D03*
%TO.P,U2,6,C1OUT/T0CKI/RA4*%
%TO.N,unconnected-(U2-C1OUT{slash}T0CKI{slash}RA4-Pad6)*%
X138425000Y-94795000D03*
%TO.P,U2,7,~{SS}/C2OUT/AN4/RA5*%
%TO.N,unconnected-(U2-~{SS}{slash}C2OUT{slash}AN4{slash}RA5-Pad7)*%
X135885000Y-94795000D03*
%TO.P,U2,8,RE0/~{RD}/AN5*%
%TO.N,unconnected-(U2-RE0{slash}~{RD}{slash}AN5-Pad8)*%
X133345000Y-94795000D03*
%TO.P,U2,9,RE1/~{WR}/AN6*%
%TO.N,unconnected-(U2-RE1{slash}~{WR}{slash}AN6-Pad9)*%
X130805000Y-94795000D03*
%TO.P,U2,10,RE2/~{CS}/AN7*%
%TO.N,unconnected-(U2-RE2{slash}~{CS}{slash}AN7-Pad10)*%
X128265000Y-94795000D03*
%TO.P,U2,11,VDD*%
%TO.N,+5V*%
X125725000Y-94795000D03*
%TO.P,U2,12,VSS*%
%TO.N,GND*%
X123185000Y-94795000D03*
%TO.P,U2,13,OSC1/CLKI*%
%TO.N,Net-(U2-OSC1{slash}CLKI)*%
X120645000Y-94795000D03*
%TO.P,U2,14,OSC2/CLKO*%
%TO.N,Net-(U2-OSC2{slash}CLKO)*%
X118105000Y-94795000D03*
%TO.P,U2,15,T1OSO/T1CKI/RC0*%
%TO.N,Mode1*%
X115565000Y-94795000D03*
%TO.P,U2,16,T1OSI/CCP2/RC1*%
%TO.N,Mode2*%
X113025000Y-94795000D03*
%TO.P,U2,17,CCP1/RC2*%
%TO.N,Mode3*%
X110485000Y-94795000D03*
%TO.P,U2,18,SCK/SCL/RC3*%
%TO.N,Pumping*%
X107945000Y-94795000D03*
%TO.P,U2,19,RD0/PSP0*%
%TO.N,RS*%
X105405000Y-94795000D03*
%TO.P,U2,20,RD1/PSP1*%
%TO.N,EN*%
X102865000Y-94795000D03*
%TO.P,U2,21,RD2/PSP2*%
%TO.N,unconnected-(U2-RD2{slash}PSP2-Pad21)*%
X102865000Y-110035000D03*
%TO.P,U2,22,RD3/PSP3*%
%TO.N,unconnected-(U2-RD3{slash}PSP3-Pad22)*%
X105405000Y-110035000D03*
%TO.P,U2,23,SDI/SDA/RC4*%
%TO.N,Filled*%
X107945000Y-110035000D03*
%TO.P,U2,24,SDO/RC5*%
%TO.N,pump*%
X110485000Y-110035000D03*
%TO.P,U2,25,CK/TX/RC6*%
%TO.N,buzzer*%
X113025000Y-110035000D03*
%TO.P,U2,26,DT/RX/RC7*%
%TO.N,unconnected-(U2-DT{slash}RX{slash}RC7-Pad26)*%
X115565000Y-110035000D03*
%TO.P,U2,27,RD4/PSP4*%
%TO.N,D4*%
X118105000Y-110035000D03*
%TO.P,U2,28,RD5/PSP5*%
%TO.N,D5*%
X120645000Y-110035000D03*
%TO.P,U2,29,RD6/PSP6*%
%TO.N,D6*%
X123185000Y-110035000D03*
%TO.P,U2,30,RD7/PSP7*%
%TO.N,D7*%
X125725000Y-110035000D03*
%TO.P,U2,31,VSS*%
%TO.N,GND*%
X128265000Y-110035000D03*
%TO.P,U2,32,VDD*%
%TO.N,+5V*%
X130805000Y-110035000D03*
%TO.P,U2,33,INT/RB0*%
%TO.N,sensor*%
X133345000Y-110035000D03*
%TO.P,U2,34,RB1*%
%TO.N,start_button*%
X135885000Y-110035000D03*
%TO.P,U2,35,RB2*%
%TO.N,Mode_Button*%
X138425000Y-110035000D03*
%TO.P,U2,36,PGM/RB3*%
%TO.N,unconnected-(U2-PGM{slash}RB3-Pad36)*%
X140965000Y-110035000D03*
%TO.P,U2,37,RB4*%
%TO.N,unconnected-(U2-RB4-Pad37)*%
X143505000Y-110035000D03*
%TO.P,U2,38,RB5*%
%TO.N,unconnected-(U2-RB5-Pad38)*%
X146045000Y-110035000D03*
%TO.P,U2,39,PGC/RB6*%
%TO.N,unconnected-(U2-PGC{slash}RB6-Pad39)*%
X148585000Y-110035000D03*
%TO.P,U2,40,PGD/RB7*%
%TO.N,unconnected-(U2-PGD{slash}RB7-Pad40)*%
X151125000Y-110035000D03*
%TD*%
D13*
%TO.P,R2,1*%
%TO.N,+5V*%
X159440000Y-94975000D03*
D14*
%TO.P,R2,2*%
%TO.N,Net-(U2-~{MCLR}{slash}Vpp)*%
X154360000Y-94975000D03*
%TD*%
D23*
%TO.P,Q1,1,C*%
%TO.N,Net-(D7-A)*%
X154950000Y-119775000D03*
D24*
%TO.P,Q1,2,B*%
%TO.N,Net-(Q1-B)*%
X154950000Y-121045000D03*
%TO.P,Q1,3,E*%
%TO.N,GND*%
X154950000Y-122315000D03*
%TD*%
D12*
%TO.P,C1,1*%
%TO.N,Net-(U3-VI)*%
X85775000Y-116050000D03*
%TO.P,C1,2*%
%TO.N,GND*%
X85775000Y-113550000D03*
%TD*%
D13*
%TO.P,R10,1*%
%TO.N,buzzer*%
X158950000Y-105015000D03*
D14*
%TO.P,R10,2*%
%TO.N,Net-(Q2-B)*%
X158950000Y-99935000D03*
%TD*%
D15*
%TO.P,D4,1,K*%
%TO.N,Net-(D4-K)*%
X127125000Y-126315000D03*
D16*
%TO.P,D4,2,A*%
%TO.N,Mode3*%
X127125000Y-123775000D03*
%TD*%
D20*
%TO.P,BZ1,1,+*%
%TO.N,+12V*%
X180200000Y-102300000D03*
D25*
%TO.P,BZ1,2,-*%
%TO.N,Net-(BZ1--)*%
X180200000Y-94700000D03*
%TD*%
D26*
%TO.P,J2,1,Pin_1*%
%TO.N,GND*%
X191925000Y-119585000D03*
D27*
%TO.P,J2,2,Pin_2*%
%TO.N,Net-(J2-Pin_2)*%
X191925000Y-124665000D03*
%TD*%
D13*
%TO.P,R5,1*%
%TO.N,Net-(D2-K)*%
X142025000Y-130485000D03*
D14*
%TO.P,R5,2*%
%TO.N,GND*%
X142025000Y-135565000D03*
%TD*%
D28*
%TO.P,H4,1,1*%
%TO.N,unconnected-(H4-Pad1)*%
X65700000Y-28750000D03*
D29*
X65700000Y-28750000D03*
%TD*%
D30*
%TO.P,SW3,1,B*%
%TO.N,/16V*%
X78210000Y-126575000D03*
D12*
%TO.P,SW3,2,C*%
%TO.N,unconnected-(SW3-C-Pad2)*%
X75670000Y-126575000D03*
%TO.P,SW3,3,A*%
%TO.N,Net-(SW3-A)*%
X80750000Y-126575000D03*
%TD*%
D13*
%TO.P,R7,1*%
%TO.N,Net-(D4-K)*%
X127200000Y-130150000D03*
D14*
%TO.P,R7,2*%
%TO.N,GND*%
X127200000Y-135230000D03*
%TD*%
D28*
%TO.P,H3,1,1*%
%TO.N,unconnected-(H3-Pad1)*%
X193050000Y-147775000D03*
D29*
X193050000Y-147775000D03*
%TD*%
D31*
%TO.P,K1,11*%
%TO.N,+12V*%
X166550000Y-122257500D03*
%TO.P,K1,12*%
%TO.N,unconnected-(K1-Pad12)*%
X180750000Y-116257500D03*
%TO.P,K1,14*%
%TO.N,Net-(J2-Pin_2)*%
X180750000Y-128257500D03*
D32*
%TO.P,K1,A1*%
%TO.N,Net-(D7-K)*%
X168550000Y-128257500D03*
D31*
%TO.P,K1,A2*%
%TO.N,Net-(D7-A)*%
X168550000Y-116257500D03*
%TD*%
D15*
%TO.P,D2,1,K*%
%TO.N,Net-(D2-K)*%
X142050000Y-126600000D03*
D16*
%TO.P,D2,2,A*%
%TO.N,Mode1*%
X142050000Y-124060000D03*
%TD*%
D33*
%TO.P,SW4,1,1*%
%TO.N,Mode_Button*%
X108460000Y-142150000D03*
X120960000Y-142150000D03*
%TO.P,SW4,2,2*%
%TO.N,GND*%
X108460000Y-147150000D03*
X120960000Y-147150000D03*
%TD*%
D23*
%TO.P,Q2,1,C*%
%TO.N,Net-(BZ1--)*%
X165475000Y-101595000D03*
D24*
%TO.P,Q2,2,B*%
%TO.N,Net-(Q2-B)*%
X165475000Y-100325000D03*
%TO.P,Q2,3,E*%
%TO.N,GND*%
X165475000Y-99055000D03*
%TD*%
D34*
%TO.P,J1,1*%
%TO.N,/16V*%
X86150000Y-139575000D03*
D35*
%TO.P,J1,2*%
%TO.N,GND*%
X80150000Y-139575000D03*
D36*
%TO.P,J1,3*%
X83150000Y-144275000D03*
%TD*%
D12*
%TO.P,C4,1*%
%TO.N,Net-(U2-OSC1{slash}CLKI)*%
X126425000Y-84350000D03*
%TO.P,C4,2*%
%TO.N,GND*%
X126425000Y-86850000D03*
%TD*%
D28*
%TO.P,H1,1,1*%
%TO.N,unconnected-(H1-Pad1)*%
X194250000Y-29200000D03*
D29*
X194250000Y-29200000D03*
%TD*%
D28*
%TO.P,H2,1,1*%
%TO.N,unconnected-(H2-Pad1)*%
X67075000Y-147575000D03*
D29*
X67075000Y-147575000D03*
%TD*%
D12*
%TO.P,C5,1*%
%TO.N,Net-(U2-OSC2{slash}CLKO)*%
X112425000Y-84475000D03*
%TO.P,C5,2*%
%TO.N,GND*%
X112425000Y-86975000D03*
%TD*%
D37*
%TO.P,Y1,1,1*%
%TO.N,Net-(U2-OSC2{slash}CLKO)*%
X117575000Y-85550000D03*
%TO.P,Y1,2,2*%
%TO.N,Net-(U2-OSC1{slash}CLKI)*%
X121375000Y-85550000D03*
%TD*%
D38*
%TO.P,J3,1,Pin_1*%
%TO.N,+5V*%
X172200000Y-138625000D03*
D39*
%TO.P,J3,2,Pin_2*%
%TO.N,sensor*%
X177000000Y-138625000D03*
%TO.P,J3,3,Pin_3*%
%TO.N,GND*%
X181800000Y-138625000D03*
%TD*%
D40*
%TO.P,U1,1,VI*%
%TO.N,+12V*%
X80830000Y-102245000D03*
D41*
%TO.P,U1,2,GND*%
%TO.N,GND*%
X80830000Y-99705000D03*
%TO.P,U1,3,VO*%
%TO.N,+5V*%
X80830000Y-97165000D03*
%TD*%
D15*
%TO.P,D6,1,K*%
%TO.N,Net-(D6-K)*%
X109450000Y-126225000D03*
D16*
%TO.P,D6,2,A*%
%TO.N,Filled*%
X109450000Y-123685000D03*
%TD*%
D42*
%TO.P,SW1,1,1*%
%TO.N,GND*%
X79190000Y-85160000D03*
X86810000Y-85160000D03*
%TO.P,SW1,2,2*%
%TO.N,Net-(U2-~{MCLR}{slash}Vpp)*%
X79190000Y-90240000D03*
X86810000Y-90240000D03*
%TD*%
D15*
%TO.P,D3,1,K*%
%TO.N,Net-(D3-K)*%
X134400000Y-126490000D03*
D16*
%TO.P,D3,2,A*%
%TO.N,Mode2*%
X134400000Y-123950000D03*
%TD*%
D40*
%TO.P,U3,1,VI*%
%TO.N,Net-(U3-VI)*%
X80850000Y-115755000D03*
D41*
%TO.P,U3,2,GND*%
%TO.N,GND*%
X80850000Y-113215000D03*
%TO.P,U3,3,VO*%
%TO.N,+12V*%
X80850000Y-110675000D03*
%TD*%
D12*
%TO.P,C6,1*%
%TO.N,+5V*%
X130800000Y-114000000D03*
%TO.P,C6,2*%
%TO.N,GND*%
X128300000Y-114000000D03*
%TD*%
D33*
%TO.P,SW2,1,1*%
%TO.N,start_button*%
X130485000Y-142050000D03*
X142985000Y-142050000D03*
%TO.P,SW2,2,2*%
%TO.N,GND*%
X130485000Y-147050000D03*
X142985000Y-147050000D03*
%TD*%
D43*
%TO.P,RV1,1,1*%
%TO.N,+5V*%
X162600000Y-90950000D03*
%TO.P,RV1,2,2*%
%TO.N,Net-(U4-VO)*%
X165140000Y-88410000D03*
%TO.P,RV1,3,3*%
%TO.N,GND*%
X162600000Y-85870000D03*
%TD*%
D12*
%TO.P,C3,1*%
%TO.N,+5V*%
X89400000Y-99850000D03*
%TO.P,C3,2*%
%TO.N,GND*%
X89400000Y-102350000D03*
%TD*%
D44*
%TO.N,GND*%
X118350000Y-102575000D03*
X149750000Y-133925000D03*
X118475000Y-106475000D03*
X109200000Y-101500000D03*
%TO.N,+5V*%
X134900000Y-106400000D03*
X94125000Y-95975000D03*
X125650000Y-99775000D03*
X137675000Y-104015000D03*
X112425000Y-52100000D03*
X154800000Y-88625000D03*
X116325000Y-99625000D03*
%TO.N,pump*%
X143250000Y-115500000D03*
X136885000Y-116175000D03*
X140032107Y-116692893D03*
X137725000Y-117375000D03*
%TD*%
D45*
%TO.N,GND*%
X119355000Y-98625000D02*
X123185000Y-94795000D01*
X143775000Y-135350000D02*
X148325000Y-135350000D01*
X118475000Y-106475000D02*
X118475000Y-102700000D01*
X118475000Y-102700000D02*
X118350000Y-102575000D01*
X87508500Y-84461500D02*
X86810000Y-85160000D01*
X116100000Y-90650000D02*
X112425000Y-86975000D01*
X112425000Y-86975000D02*
X109911500Y-84461500D01*
X148325000Y-135350000D02*
X149750000Y-133925000D01*
X142025000Y-135565000D02*
X143560000Y-135565000D01*
X112075000Y-98625000D02*
X119355000Y-98625000D01*
X109200000Y-101500000D02*
X112075000Y-98625000D01*
X109911500Y-84461500D02*
X87508500Y-84461500D01*
X143560000Y-135565000D02*
X143775000Y-135350000D01*
X124400000Y-90650000D02*
X116100000Y-90650000D01*
%TO.N,+5V*%
X122500000Y-73700000D02*
X155625000Y-73700000D01*
X162275000Y-77350000D02*
X157850000Y-81775000D01*
X116650000Y-67850000D02*
X122500000Y-73700000D01*
X125725000Y-99700000D02*
X125725000Y-94795000D01*
X112425000Y-52100000D02*
X112425000Y-63625000D01*
X93550000Y-99600000D02*
X93550000Y-96550000D01*
X135290000Y-106400000D02*
X137675000Y-104015000D01*
X157850000Y-81775000D02*
X157850000Y-85575000D01*
X160275000Y-73700000D02*
X162275000Y-75700000D01*
X157850000Y-85575000D02*
X154800000Y-88625000D01*
X125650000Y-99775000D02*
X125725000Y-99700000D01*
X116325000Y-99625000D02*
X120895000Y-99625000D01*
X120895000Y-99625000D02*
X125725000Y-94795000D01*
X93550000Y-96550000D02*
X94125000Y-95975000D01*
X155625000Y-73700000D02*
X160275000Y-73700000D01*
X134900000Y-106400000D02*
X135290000Y-106400000D01*
X162275000Y-75700000D02*
X162275000Y-77350000D01*
X112425000Y-63625000D02*
X116650000Y-67850000D01*
%TO.N,Mode1*%
X142050000Y-124060000D02*
X140777208Y-124060000D01*
X108075863Y-131635000D02*
X96150000Y-119709138D01*
X115565000Y-93840000D02*
X115565000Y-94795000D01*
X99205888Y-85350000D02*
X107075000Y-85350000D01*
X96150000Y-119709138D02*
X96150000Y-88405888D01*
X127482767Y-131635000D02*
X108075863Y-131635000D01*
X140777208Y-124060000D02*
X135777208Y-129060000D01*
X135777208Y-129060000D02*
X130057767Y-129060000D01*
X130057767Y-129060000D02*
X127482767Y-131635000D01*
X107075000Y-85350000D02*
X115565000Y-93840000D01*
X96150000Y-88405888D02*
X99205888Y-85350000D01*
%TO.N,Mode2*%
X113025000Y-92925000D02*
X113025000Y-94795000D01*
X119627767Y-128900000D02*
X117692767Y-130835000D01*
X132225000Y-123950000D02*
X127275000Y-128900000D01*
X99537258Y-86150000D02*
X106250000Y-86150000D01*
X96950000Y-88737258D02*
X99537258Y-86150000D01*
X108407233Y-130835000D02*
X96950000Y-119377767D01*
X134400000Y-123950000D02*
X132225000Y-123950000D01*
X106250000Y-86150000D02*
X113025000Y-92925000D01*
X96950000Y-119377767D02*
X96950000Y-88737258D01*
X127275000Y-128900000D02*
X119627767Y-128900000D01*
X117692767Y-130835000D02*
X108407233Y-130835000D01*
%TO.N,Mode3*%
X116125000Y-127925000D02*
X97775000Y-109575000D01*
X122600000Y-123775000D02*
X118450000Y-127925000D01*
X118450000Y-127925000D02*
X116125000Y-127925000D01*
X97775000Y-109575000D02*
X97775000Y-89043630D01*
X110485000Y-91678630D02*
X110485000Y-94795000D01*
X99868629Y-86950000D02*
X105756370Y-86950000D01*
X97775000Y-89043630D02*
X99868629Y-86950000D01*
X127125000Y-123775000D02*
X122600000Y-123775000D01*
X105756370Y-86950000D02*
X110485000Y-91678630D01*
%TO.N,Pumping*%
X100200000Y-87750000D02*
X105425000Y-87750000D01*
X114067767Y-123760000D02*
X98575000Y-108267233D01*
X105425000Y-87750000D02*
X107945000Y-90270000D01*
X98575000Y-108267233D02*
X98575000Y-89375000D01*
X107945000Y-90270000D02*
X107945000Y-94795000D01*
X98575000Y-89375000D02*
X100200000Y-87750000D01*
X117175000Y-123760000D02*
X114067767Y-123760000D01*
%TO.N,sensor*%
X147900000Y-129575000D02*
X147900000Y-122725000D01*
X133345000Y-111195000D02*
X133345000Y-110035000D01*
X137575000Y-115425000D02*
X133345000Y-111195000D01*
X169925000Y-145700000D02*
X164025000Y-145700000D01*
X147900000Y-122725000D02*
X140600000Y-115425000D01*
X164025000Y-145700000D02*
X147900000Y-129575000D01*
X140600000Y-115425000D02*
X137575000Y-115425000D01*
X177000000Y-138625000D02*
X169925000Y-145700000D01*
%TO.N,pump*%
X151200000Y-115100000D02*
X143650000Y-115100000D01*
X110485000Y-111660000D02*
X110485000Y-110035000D01*
X138407107Y-116692893D02*
X137725000Y-117375000D01*
X143650000Y-115100000D02*
X143250000Y-115500000D01*
X140032107Y-116692893D02*
X138407107Y-116692893D01*
X115000000Y-116175000D02*
X110485000Y-111660000D01*
X136885000Y-116175000D02*
X115000000Y-116175000D01*
X152125000Y-122765000D02*
X152125000Y-116025000D01*
X152125000Y-116025000D02*
X151200000Y-115100000D01*
X149150000Y-125740000D02*
X152125000Y-122765000D01*
%TO.N,Net-(U4-VO)*%
X155005000Y-45555000D02*
X155005000Y-38467500D01*
X165140000Y-88410000D02*
X165140000Y-55690000D01*
X165140000Y-55690000D02*
X155005000Y-45555000D01*
%TO.N,D4*%
X175325000Y-84250000D02*
X175325000Y-38467500D01*
X130540000Y-97600000D02*
X161975000Y-97600000D01*
X118105000Y-110035000D02*
X130540000Y-97600000D01*
X161975000Y-97600000D02*
X175325000Y-84250000D01*
%TO.N,D5*%
X120645000Y-110035000D02*
X120645000Y-109980000D01*
X120645000Y-109980000D02*
X132100000Y-98525000D01*
X177865000Y-83310000D02*
X177865000Y-38467500D01*
X132100000Y-98525000D02*
X132100000Y-98400000D01*
X132100000Y-98400000D02*
X162775000Y-98400000D01*
X162775000Y-98400000D02*
X177865000Y-83310000D01*
%TO.N,D6*%
X155250000Y-101625000D02*
X159675000Y-101625000D01*
X161425000Y-103375000D02*
X168025000Y-103375000D01*
X170850000Y-104725000D02*
X173275000Y-102300000D01*
X180405000Y-83345000D02*
X180405000Y-38467500D01*
X179075000Y-85200000D02*
X179075000Y-84675000D01*
X169375000Y-104725000D02*
X170850000Y-104725000D01*
X123185000Y-109890000D02*
X131700000Y-101375000D01*
X179075000Y-84675000D02*
X180405000Y-83345000D01*
X173275000Y-91000000D02*
X179075000Y-85200000D01*
X159675000Y-101625000D02*
X161425000Y-103375000D01*
X168025000Y-103375000D02*
X169375000Y-104725000D01*
X131700000Y-101375000D02*
X155000000Y-101375000D01*
X173275000Y-102300000D02*
X173275000Y-91000000D01*
X155000000Y-101375000D02*
X155250000Y-101625000D01*
X123185000Y-110035000D02*
X123185000Y-109890000D01*
%TO.N,D7*%
X162100000Y-105000000D02*
X167075000Y-105000000D01*
X161825000Y-104725000D02*
X162100000Y-105000000D01*
X174900000Y-91950000D02*
X182945000Y-83905000D01*
X125725000Y-110035000D02*
X132785000Y-102975000D01*
X167075000Y-105000000D02*
X168025000Y-105950000D01*
X174900000Y-103125000D02*
X174900000Y-91950000D01*
X172075000Y-105950000D02*
X174900000Y-103125000D01*
X159893630Y-102975000D02*
X161643630Y-104725000D01*
X161643630Y-104725000D02*
X161825000Y-104725000D01*
X168025000Y-105950000D02*
X172075000Y-105950000D01*
X132785000Y-102975000D02*
X159893630Y-102975000D01*
X182945000Y-83905000D02*
X182945000Y-38467500D01*
%TD*%
M02*
